<?xml version="1.0" encoding="utf-8"?>
<!-- Generator: Adobe Illustrator 23.0.0, SVG Export Plug-In . SVG Version: 6.00 Build 0)  -->
<svg version="1.1" id="Capa_1" xmlns="http://www.w3.org/2000/svg" xmlns:xlink="http://www.w3.org/1999/xlink" x="0px" y="0px"
	 viewBox="0 0 200 59.1" style="enable-background:new 0 0 200 59.1;" xml:space="preserve">
<style type="text/css">
	.st0{fill:#CC0033;}
</style>
<g>
	<path class="st0" d="M9.8,27.8c-1.3,0-2.4-0.2-3.3-0.6s-1.6-1-2.2-1.8c-0.6-0.9-1-1.9-1.2-2.9c-0.2-1.1-0.4-2.5-0.4-3.9
		c0-2.9,0.5-5.1,1.7-6.8s2.8-2.4,5.1-2.4H21V13h-9.8c-0.7,0-1.3,0.1-2,0.3c-0.9,0.3-1.6,1-1.9,2c-0.1,0.5-0.2,0.9-0.2,1.4h11.2v3.7
		H7.2c0,1.2,0.3,2.1,1,2.7s1.7,1,3,1H21v3.8H9.8V27.8z"/>
	<path d="M29,27.8h-4.5V9.3h12.7c1,0,1.8,0.2,2.7,0.6c0.8,0.4,1.6,1,2.2,1.8c1.2,1.5,1.9,3.3,2,5.2l0,0H44c0,1.9-0.7,3.8-1.9,5.2
		c-0.6,0.8-1.4,1.4-2.3,1.8l2.9,3.8h-4.8l-2.4-3.3H29V27.8z M35.3,20.9c0.8,0,1.4-0.1,1.9-0.2s0.9-0.4,1.2-0.7
		c0.3-0.3,0.5-0.7,0.7-1.2s0.3-1.1,0.3-1.7c0-0.5-0.1-1-0.3-1.5s-0.4-0.9-0.7-1.3c-0.3-0.4-0.7-0.7-1.2-0.9s-1.2-0.3-2-0.3H29V21
		L35.3,20.9L35.3,20.9z M51.8,18.5c0,1.2,0.1,2.1,0.3,2.9c0.1,0.7,0.4,1.3,0.9,1.8c0.4,0.4,0.9,0.8,1.6,0.9c0.7,0.2,1.5,0.3,2.4,0.3
		h6.3v-7.7h4.4v11.1h-12c-1.1,0-2.3-0.1-3.4-0.5c-1-0.3-1.9-0.8-2.6-1.6c-0.8-0.8-1.4-1.8-1.7-2.9c-0.5-1.4-0.7-2.9-0.6-4.4
		c0-2.9,0.7-5.1,2.1-6.8c1.4-1.6,3.5-2.4,6.4-2.4h11.8V13H57c-0.8,0-1.5,0.1-2.1,0.2s-1.2,0.4-1.6,0.8c-0.5,0.5-0.8,1-1.1,1.7
		C52,16.6,51.8,17.5,51.8,18.5z M90.7,24.3c-0.3,0.8-0.9,1.4-1.7,2c-1,0.6-2.1,1-3.2,1.2c-1.3,0.3-2.9,0.4-4.9,0.4
		c-1.6,0-3.2-0.1-4.7-0.4c-1.3-0.3-2.3-0.7-3-1.2s-1.3-1.2-1.6-2c-0.3-0.8-0.5-1.7-0.5-2.6v-6.1c0-1,0.2-1.9,0.5-2.6
		c0.3-0.8,0.9-1.4,1.7-2c0.9-0.6,2-1,3.1-1.2c1.3-0.3,2.9-0.4,4.8-0.4c1.6,0,3.2,0.1,4.8,0.4c1.3,0.2,2.3,0.6,3.1,1.1
		s1.3,1.1,1.6,1.9c0.3,0.8,0.5,1.7,0.5,2.7v6.1C91.2,22.5,91.1,23.4,90.7,24.3z M76.7,13.8c-0.8,0.5-1.3,1.5-1.3,2.5v4.3
		c0,0.5,0.1,1,0.3,1.5c0.2,0.5,0.5,0.8,0.9,1.1c0.4,0.3,1,0.5,1.7,0.7c1.9,0.3,3.8,0.3,5.6,0.1c0.6-0.1,1.2-0.3,1.8-0.6
		c0.4-0.3,0.7-0.7,0.8-1.1c0.2-0.5,0.2-1.1,0.2-1.8v-4.2c0-0.5-0.1-0.9-0.2-1.3c-0.1-0.4-0.4-0.8-0.8-1.1s-1-0.5-1.7-0.7
		s-1.7-0.3-2.9-0.3C79.1,12.9,77.6,13.2,76.7,13.8z M114.1,27.8h-4.3V17.6c0-0.6-0.1-1.2-0.2-1.7c-0.1-0.5-0.3-1-0.7-1.4
		c-0.4-0.4-0.8-0.8-1.3-1c-0.6-0.2-1.3-0.4-2.2-0.4h-6.3v14.8h-4.5V9.3h12.7c1,0,1.8,0.2,2.7,0.6c0.8,0.4,1.6,1,2.2,1.8
		c1.2,1.5,1.9,3.3,2,5.2L114.1,27.8L114.1,27.8z M137.1,24.3c-0.3,0.8-0.9,1.4-1.7,2c-1,0.6-2.1,1-3.2,1.2c-1.3,0.3-2.9,0.4-4.9,0.4
		c-1.6,0-3.2-0.1-4.7-0.4c-1.3-0.3-2.3-0.7-3-1.2s-1.3-1.2-1.6-2c-0.3-0.8-0.5-1.7-0.5-2.6v-6.1c0-1,0.2-1.9,0.5-2.6
		c0.3-0.8,0.9-1.4,1.7-2c0.9-0.6,2-1,3.1-1.2c1.3-0.3,2.9-0.4,4.8-0.4c1.6,0,3.2,0.1,4.8,0.4c1.3,0.2,2.3,0.6,3.1,1.1
		s1.3,1.1,1.6,1.9c0.3,0.8,0.5,1.7,0.5,2.7v6.1C137.6,22.6,137.5,23.5,137.1,24.3z M123.1,13.8c-0.8,0.5-1.3,1.5-1.3,2.5v4.3
		c0,0.5,0.1,1,0.3,1.5c0.2,0.5,0.5,0.8,0.9,1.1c0.4,0.3,1,0.5,1.7,0.7c1.9,0.3,3.8,0.3,5.6,0.1c0.6-0.1,1.2-0.3,1.8-0.6
		c0.4-0.3,0.7-0.7,0.8-1.1c0.2-0.5,0.2-1.1,0.2-1.8v-4.2c0-0.5-0.1-0.9-0.2-1.3c-0.1-0.4-0.4-0.8-0.8-1.1c-0.4-0.3-1-0.5-1.7-0.7
		s-1.7-0.3-2.9-0.3C125.5,12.9,124,13.2,123.1,13.8z M163.3,27.8V17.6c0-0.6-0.1-1.1-0.2-1.7c-0.1-0.5-0.3-1.1-0.6-1.5
		c-0.4-0.5-0.9-0.8-1.5-1.1c-0.7-0.3-1.6-0.4-2.7-0.4h-2.7c0.3,0.6,0.6,1.2,0.7,1.9c0.1,0.7,0.2,1.3,0.2,2v10.9h-4.4V17.6
		c0-0.6,0-1.2-0.1-1.7c0-0.5-0.2-1-0.5-1.4s-0.7-0.8-1.1-1c-0.6-0.3-1.3-0.4-2-0.4h-3v14.8h-4.5V9.3h19.8c1,0,1.8,0.2,2.7,0.6
		c0.8,0.4,1.6,1,2.2,1.8c1.2,1.5,1.9,3.3,2,5.2v10.9L163.3,27.8L163.3,27.8z M175.5,27.8H171V9.3h4.5V27.8z M197.2,27.8H186
		c-1.3,0-2.4-0.2-3.3-0.6c-0.9-0.4-1.6-1-2.2-1.8c-0.6-0.9-1-1.9-1.2-2.9c-0.2-1.1-0.4-2.5-0.4-3.9c0-2.9,0.5-5.1,1.7-6.8
		s2.8-2.4,5.1-2.4h11.5V13h-9.8c-0.7,0-1.3,0.1-2,0.3c-0.9,0.3-1.6,1-1.9,2c-0.1,0.5-0.2,0.9-0.2,1.5v3.8c0,2.4,1.4,3.5,4,3.5h9.8
		L197.2,27.8L197.2,27.8z"/>
	<g>
		<path d="M36.2,44.8c0-3.4,1.7-5.1,5-5.1s5,1.7,5,5.1c0,3.4-1.7,5-5,5S36.2,48.1,36.2,44.8z M41.2,47.9c1.6,0,2.4-1.1,2.4-3.2
			c0-2-0.8-3.1-2.4-3.1c-1.6,0-2.4,1-2.4,3.1C38.7,46.8,39.5,47.9,41.2,47.9z M54.4,39.7v-0.5c0-2.6,1.5-3.8,4.5-3.8
			c1.1,0,2.2,0.2,3.2,0.7v2c-1-0.4-2-0.7-3.1-0.7c-1.4,0-2.2,0.6-2.2,1.7v0.6H63v10.1h-2.6v-8.2H57v8.2h-2.6v-8.2h-3.8v8.2H48V39.2
			c0-2.4,1.4-3.7,4.1-3.7c0.6,0,1.1,0.1,1.6,0.3v2c-0.4-0.2-0.9-0.3-1.5-0.3c-1.1,0-1.6,0.5-1.6,1.6v0.6
			C50.6,39.7,54.4,39.7,54.4,39.7z M73,49.5c-0.8,0.2-1.7,0.3-2.6,0.3c-3.6,0-5.4-1.7-5.4-5.2c0-3.2,1.8-4.8,5.4-4.8
			c0.9,0,1.8,0.1,2.6,0.3v2c-0.8-0.2-1.6-0.3-2.4-0.3c-2,0-3,0.9-3,2.8c0,2.1,1,3.2,3,3.2c0.8,0,1.6-0.1,2.4-0.3V49.5z M78.9,39.7
			c3.1,0,4.6,1.6,4.6,4.7l-0.1,1.3h-6.7c0,1.4,1.1,2.1,3.1,2.1c1,0,2-0.1,3.1-0.3v2c-0.9,0.2-2,0.3-3.2,0.3c-3.7,0-5.5-1.7-5.5-5.2
			C74.2,41.4,75.8,39.7,78.9,39.7L78.9,39.7z M76.7,43.9H81v-0.1c0-1.4-0.7-2.1-2.1-2.1C77.6,41.7,76.9,42.4,76.7,43.9z M89.7,49.8
			V39.7c0-2.8,1.5-4.1,4.5-4.1c0.8,0,1.6,0.1,2.3,0.4v2c-0.6-0.3-1.3-0.4-2.1-0.4c-1.4,0-2.2,0.7-2.2,2.1h3v2h-3v8L89.7,49.8
			L89.7,49.8z M105.2,39.7v10.1h-2l-0.3-1.3c-1.1,0.8-2.4,1.3-3.7,1.3c-2.1,0-3.1-1.2-3.1-3.7v-6.4h2.6v6.4c0,1.1,0.5,1.7,1.5,1.7
			c0.9,0,1.8-0.4,2.5-1v-7L105.2,39.7L105.2,39.7z M107.6,49.8V39.7h2l0.3,1.3c0.7-0.8,1.7-1.3,2.8-1.3v2c-1,0-1.8,0.4-2.6,1.2v6.8
			L107.6,49.8L107.6,49.8z M114.2,49.8V39.7h2l0.3,1.5c0.8-0.9,2-1.5,3.3-1.5c2.4,0,3.6,1.2,3.6,3.7v6.4h-2.6v-6.4
			c0-1.1-0.5-1.7-1.7-1.7c-0.8,0-1.6,0.3-2.4,1v7L114.2,49.8L114.2,49.8z M128.2,36.1v2h-2.6v-2H128.2z M128.2,39.7v10.1h-2.6V39.7
			H128.2z M130.5,38.1h1.9l0.4,1.6h2.5v2H133v4.6c0,0.9,0.4,1.4,1.2,1.4h1.1v2H133c-1.7,0-2.5-0.9-2.5-2.7V38.1L130.5,38.1z
			 M146.1,39.7v10.1h-2l-0.3-1.3c-1.1,0.8-2.4,1.3-3.7,1.3c-2.1,0-3.1-1.2-3.1-3.7v-6.4h2.6v6.4c0,1.1,0.5,1.7,1.5,1.7
			c0.9,0,1.8-0.4,2.5-1v-7L146.1,39.7L146.1,39.7z M148.5,49.8V39.7h2l0.3,1.3c0.7-0.8,1.7-1.3,2.8-1.3v2c-1,0-1.8,0.4-2.6,1.2v6.8
			L148.5,49.8L148.5,49.8z M159.2,39.7c3.1,0,4.6,1.6,4.6,4.7l-0.1,1.3H157c0,1.4,1.1,2.1,3.1,2.1c1,0,2-0.1,3.1-0.3v2
			c-0.9,0.2-2,0.3-3.2,0.3c-3.7,0-5.5-1.7-5.5-5.2C154.5,41.4,156.1,39.7,159.2,39.7L159.2,39.7z M157.1,43.9h4.3v-0.1
			c0-1.4-0.7-2.1-2.1-2.1C157.9,41.7,157.2,42.4,157.1,43.9z"/>
	</g>
</g>
</svg>
