<svg width="102" height="48" viewBox="0 0 102 48" fill="none" xmlns="http://www.w3.org/2000/svg">
<path d="M0 34.181C0.636717 34.1138 1.04936 34.0003 1.2381 33.8406C1.42698 33.6809 1.52127 33.276 1.52127 32.6259V24.9261C1.52127 24.312 1.42835 23.9105 1.24236 23.7216C1.05652 23.5329 0.642353 23.4161 0 23.371V23.0497H9.19569L9.25494 25.5262H8.81533C8.6688 24.7634 8.44915 24.2698 8.15607 24.0455C7.863 23.8212 7.20953 23.709 6.19535 23.709H3.83873C3.58435 23.709 3.42761 23.75 3.36836 23.8316C3.30895 23.9132 3.2794 24.0669 3.2794 24.2922V28.1547H5.95026C6.68827 28.1547 7.1588 28.0455 7.36155 27.8268C7.56444 27.6082 7.72774 27.1652 7.85188 26.498H8.25752V30.496H7.85188C7.7221 29.8254 7.55591 29.3817 7.35317 29.1648C7.15027 28.9479 6.68248 28.8394 5.95026 28.8394H3.2794V33.1245C3.2794 33.4683 3.38785 33.671 3.60507 33.733C3.82244 33.7952 4.47271 33.8259 5.55635 33.8259C6.73001 33.8259 7.59613 33.698 8.15485 33.4415C8.71343 33.1851 9.21534 32.5639 9.66058 31.5778H10.1424L9.35639 34.5021H0V34.181Z" fill="black"/>
<path d="M10.5735 34.181C11.2102 34.1138 11.6229 34.0003 11.8117 33.8406C12.0003 33.6809 12.0948 33.276 12.0948 32.6259V24.9261C12.0948 24.312 12.0018 23.9105 11.8158 23.7216C11.63 23.5329 11.2158 23.4161 10.5735 23.371V23.0497H15.4587V23.371C14.822 23.4046 14.3952 23.509 14.1782 23.6835C13.9612 23.8583 13.8527 24.233 13.8527 24.8077V33.1245C13.8527 33.3161 13.8852 33.4669 13.9502 33.5767C14.015 33.6866 14.1574 33.7557 14.3775 33.7837C14.5071 33.8006 14.6441 33.8121 14.788 33.8176C14.9316 33.8232 15.2013 33.8259 15.5961 33.8259C17.1361 33.8259 18.1771 33.6992 18.7187 33.4456C19.2603 33.1921 19.785 32.5441 20.2927 31.5018H20.7326L19.8865 34.5021H10.5735V34.181Z" fill="black"/>
<path d="M24.8401 34.181C25.4768 34.1138 25.8895 34.0003 26.0783 33.8406C26.2669 33.6809 26.3614 33.276 26.3614 32.6259V24.9261C26.3614 24.312 26.2684 23.9105 26.0824 23.7216C25.8966 23.5329 25.4824 23.4161 24.8401 23.371V23.0497H29.7253V23.371C29.0886 23.4046 28.6618 23.509 28.4449 23.6835C28.2278 23.8583 28.1193 24.233 28.1193 24.8077V33.1245C28.1193 33.3161 28.1518 33.4669 28.2168 33.5767C28.2816 33.6866 28.424 33.7557 28.6441 33.7837C28.7737 33.8006 28.9107 33.8121 29.0546 33.8176C29.1982 33.8232 29.4679 33.8259 29.8627 33.8259C31.4027 33.8259 32.4437 33.6992 32.9853 33.4456C33.5269 33.1921 34.0516 32.5441 34.5593 31.5018H34.9992L34.1531 34.5021H24.8401V34.181Z" fill="black"/>
<path d="M35.4141 34.181C36.0508 34.1138 36.4634 34.0003 36.6523 33.8406C36.8409 33.6809 36.9353 33.276 36.9353 32.6259V24.9261C36.9353 24.312 36.8424 23.9105 36.6564 23.7216C36.4706 23.5329 36.0564 23.4161 35.4141 23.371V23.0497H44.6098L44.669 25.5262H44.2294C44.0829 24.7634 43.8632 24.2698 43.5701 24.0455C43.2771 23.8212 42.6236 23.709 41.6094 23.709H39.2528C38.9984 23.709 38.8417 23.75 38.7824 23.8316C38.723 23.9132 38.6933 24.0669 38.6933 24.2922V28.1547H41.3643C42.1023 28.1547 42.5729 28.0455 42.7756 27.8268C42.9785 27.6082 43.1418 27.1652 43.2659 26.498H43.6716V30.496H43.2659C43.1362 29.8254 42.97 29.3817 42.7672 29.1648C42.5643 28.9479 42.0965 28.8394 41.3643 28.8394H38.6933V33.1245C38.6933 33.4683 38.8019 33.671 39.0191 33.733C39.2365 33.7952 39.8868 33.8259 40.9704 33.8259C42.1441 33.8259 43.0102 33.698 43.5689 33.4415C44.1275 33.1851 44.6294 32.5639 45.0746 31.5778H45.5564L44.7705 34.5021H35.4141V34.181Z" fill="black"/>
<path d="M54.1773 23.1258C54.8251 23.3117 55.1969 23.4047 55.2929 23.4047C55.5407 23.4047 55.7167 23.357 55.8212 23.261C55.9253 23.1652 56.0142 23.0274 56.0874 22.8468H56.4676L56.6029 26.4897H56.2056C55.8507 25.6501 55.4844 25.0246 55.1071 24.6134C54.4251 23.8921 53.5377 23.5315 52.4446 23.5315C51.3344 23.5315 50.3583 23.9527 49.5158 24.7951C48.6735 25.6374 48.2524 27.0251 48.2524 28.9577C48.2524 30.5523 48.6719 31.7974 49.5117 32.6934C50.3513 33.5892 51.3881 34.0372 52.622 34.0372C52.8304 34.0372 53.0757 34.0176 53.3573 33.9783C53.6391 33.9388 53.9067 33.8771 54.1604 33.7927C54.5716 33.6579 54.828 33.5413 54.9294 33.4429C55.0309 33.3445 55.0816 33.1996 55.0816 33.0084V30.2507C55.0816 29.5823 54.987 29.1659 54.7984 29.0017C54.6096 28.8373 54.1969 28.7353 53.5602 28.6957V28.3746H57.9721V28.6957C57.5439 28.7238 57.2593 28.7942 57.1185 28.9069C56.8818 29.0873 56.7636 29.4593 56.7636 30.0226V33.4287C56.7636 33.6316 56.2662 33.9021 55.2719 34.2401C54.2772 34.5783 53.3206 34.7472 52.4024 34.7472C50.7119 34.7472 49.2864 34.2543 48.1256 33.2681C46.8465 32.1807 46.207 30.7213 46.207 28.89C46.207 27.2786 46.7169 25.8981 47.7368 24.7486C48.8579 23.4808 50.3455 22.8468 52.1995 22.8468C52.8699 22.8468 53.5291 22.9398 54.1773 23.1258Z" fill="black"/>
<path d="M64.9645 30.0564L62.9808 25.2895L60.9881 30.0564H64.9645ZM57.5098 34.5021V34.181C57.9547 34.1308 58.2886 33.9634 58.5113 33.6787C58.7338 33.3938 59.1154 32.6148 59.6557 31.3415L63.2619 22.8468H63.6066L67.9192 32.6599C68.2066 33.3099 68.4362 33.7119 68.6081 33.8659C68.78 34.02 69.0686 34.125 69.4744 34.181V34.5021H65.0727V34.181C65.5784 34.1361 65.9045 34.0814 66.0511 34.017C66.1973 33.9525 66.2706 33.794 66.2706 33.5416C66.2706 33.4576 66.2424 33.3091 66.1862 33.096C66.1297 32.8828 66.0509 32.6585 65.9495 32.4229L65.2565 30.7578H60.6947C60.2452 31.8905 59.9767 32.5816 59.8894 32.831C59.8018 33.0806 59.7584 33.2782 59.7584 33.424C59.7584 33.7155 59.8766 33.9175 60.113 34.0296C60.2592 34.0969 60.5348 34.1474 60.9397 34.181V34.5021H57.5098Z" fill="black"/>
<path d="M73.8667 33.7245C74.0045 33.8148 74.2905 33.8599 74.7246 33.8599C76.0768 33.8599 77.1895 33.592 78.0631 33.0562C79.404 32.2329 80.0745 30.8259 80.0745 28.8352C80.0745 27.0589 79.5224 25.7223 78.418 24.8257C77.4713 24.0587 76.2177 23.6752 74.6569 23.6752C74.2681 23.6752 74.0045 23.7177 73.8667 23.802C73.7285 23.8867 73.6595 24.0729 73.6595 24.3603V33.1662C73.6595 33.4482 73.7285 33.6343 73.8667 33.7245ZM70.3801 34.181C71.0112 34.1138 71.4225 34.0003 71.6141 33.8406C71.8057 33.6809 71.9015 33.276 71.9015 32.6259V24.9261C71.9015 24.2951 71.8085 23.8895 71.6226 23.709C71.4367 23.5288 71.0225 23.4161 70.3801 23.371V23.0497H75.0457C76.6178 23.0497 77.9475 23.309 79.0351 23.8273C80.9959 24.757 81.9763 26.4193 81.9763 28.814C81.9763 29.6761 81.8001 30.496 81.448 31.2736C81.0959 32.051 80.5649 32.7076 79.8549 33.2428C79.404 33.581 78.9364 33.8374 78.4518 34.0119C77.5671 34.3388 76.4795 34.5021 75.1895 34.5021H70.3801V34.181Z" fill="black"/>
<path d="M86.1527 32.816C86.8691 33.6865 87.7491 34.1217 88.7927 34.1217C89.8137 34.1217 90.6867 33.698 91.4114 32.8498C92.1363 32.0018 92.4989 30.6454 92.4989 28.7802C92.4989 26.8926 92.1322 25.5291 91.3988 24.6893C90.6655 23.8499 89.7968 23.4301 88.7927 23.4301C87.7547 23.4301 86.8761 23.8654 86.1568 24.7359C85.4377 25.6065 85.0781 26.9546 85.0781 28.7802C85.0781 30.6003 85.4362 31.9455 86.1527 32.816ZM84.8583 24.3344C85.9233 23.3146 87.2333 22.8046 88.7885 22.8046C90.3493 22.8046 91.6621 23.3175 92.727 24.3429C93.8821 25.4529 94.4597 26.9322 94.4597 28.7802C94.4597 30.6565 93.8623 32.1497 92.6678 33.2597C91.5973 34.2515 90.3042 34.7472 88.7885 34.7472C87.1657 34.7472 85.819 34.1979 84.7484 33.099C83.661 31.9779 83.1172 30.5381 83.1172 28.7802C83.1172 26.9322 83.6975 25.45 84.8583 24.3344Z" fill="black"/>
<path d="M39.6934 17.552C35.6519 17.552 32.3769 13.8983 32.3769 9.39171C32.3769 4.88421 35.6519 1.23084 39.6934 1.23084C43.734 1.23084 47.0099 4.88421 47.0099 9.39171C47.0099 13.8983 43.734 17.552 39.6934 17.552ZM64.3053 8.79206H58.1574L59.9498 10.933H61.7803C61.7612 11.0255 61.7367 11.1152 61.7144 11.2062C60.983 14.8391 58.1037 17.552 54.66 17.552C50.6633 17.552 47.4232 13.8983 47.4232 9.39171C47.4232 4.88421 50.6633 1.23084 54.66 1.23084C57.6073 1.23084 60.1403 3.21784 61.2683 6.06796C61.4524 6.4564 61.5997 6.86191 61.7086 7.28509H64.1271C63.7859 5.52729 62.9801 3.99289 61.7071 2.68387C59.9664 0.894217 57.7881 0 55.1716 0C53.7664 0 52.4558 0.291674 51.2395 0.87532C50.0242 1.45912 49.06 2.26404 48.3458 3.29068V2.7945L46.1065 0.109112V0.350494L46.1059 0.350037V3.24283C45.349 2.1947 44.3983 1.39207 43.2524 0.835243C42.1069 0.278263 40.8472 0 39.4743 0C36.804 0 34.5797 0.897264 32.8019 2.69225C31.0234 4.48723 30.134 6.71988 30.134 9.39003C30.134 12.0178 31.0042 14.2264 32.7447 16.0159C34.4851 17.8054 36.6633 18.6998 39.2797 18.6998C40.685 18.6998 41.9956 18.4078 43.2117 17.8244C44.4278 17.2403 45.3924 16.4353 46.1059 15.4085V15.8946L48.3445 18.5803V18.2284L48.3458 18.2295V15.4575C49.103 16.5055 50.0542 17.3081 51.1995 17.8647C52.3452 18.4213 53.6049 18.6998 54.9771 18.6998C57.6473 18.6998 59.8716 17.8023 61.6501 16.0077C63.4286 14.2127 64.3177 11.9799 64.3177 9.30957C64.3177 9.13478 64.3134 8.96304 64.3053 8.79206Z" fill="black"/>
<path d="M62.6865 46.9243C62.6708 46.9086 62.6629 46.8667 62.6629 46.7987C62.6629 46.7097 62.6708 46.6652 62.6865 46.6652C62.7336 46.6652 62.7938 46.6574 62.8671 46.6417C62.9456 46.626 63.0189 46.605 63.0869 46.5788C63.1602 46.5527 63.2021 46.5239 63.2125 46.4925C63.2492 46.3878 63.2675 46.1496 63.2675 45.778V42.81C63.2675 42.4907 63.2492 42.2761 63.2125 42.1662C63.2021 42.1243 63.1628 42.0903 63.0948 42.0641C63.0319 42.0327 62.9587 42.0092 62.8749 41.9935C62.7964 41.9778 62.731 41.9699 62.6786 41.9699C62.6577 41.9699 62.6472 41.9306 62.6472 41.8521C62.6472 41.7788 62.6577 41.7317 62.6786 41.7108C62.8514 41.7213 63.0241 41.7317 63.1968 41.7422C63.3696 41.7474 63.5449 41.7501 63.7229 41.7501C63.8381 41.7501 63.9977 41.7474 64.2019 41.7422C64.406 41.7317 64.652 41.7213 64.9399 41.7108C65.5209 41.6951 65.9606 41.6872 66.259 41.6872C66.2695 41.7658 66.2852 41.86 66.3061 41.9699C66.327 42.0798 66.3532 42.2028 66.3846 42.3389L66.4867 42.8022C66.4605 42.8284 66.4056 42.8414 66.3218 42.8414C66.2642 42.8414 66.2276 42.8231 66.2119 42.7865C66.0391 42.3206 65.7041 42.0877 65.2069 42.0877H64.7986C64.406 42.0877 64.2071 42.1217 64.2019 42.1897C64.1704 42.3363 64.1547 42.5483 64.1547 42.8257V44.0585C64.1547 44.0899 64.2699 44.1056 64.5002 44.1056H64.9399C65.2383 44.1056 65.4189 44.0925 65.4817 44.0663C65.5393 44.0401 65.5837 43.9485 65.6152 43.7915C65.6309 43.7234 65.6466 43.658 65.6623 43.5952C65.6675 43.5586 65.7094 43.5402 65.7879 43.5402C65.8612 43.5402 65.9109 43.5533 65.9371 43.5795V45.0635C65.9161 45.0844 65.8664 45.0949 65.7879 45.0949C65.7198 45.0949 65.678 45.0739 65.6623 45.0321C65.6413 44.9588 65.623 44.8986 65.6073 44.8515C65.5916 44.7991 65.5785 44.7546 65.568 44.718C65.5419 44.6604 65.5262 44.629 65.5209 44.6238C65.5157 44.6133 65.4895 44.5924 65.4424 44.561C65.3691 44.5191 65.1284 44.4981 64.7201 44.4981C64.3432 44.4981 64.1547 44.5191 64.1547 44.561V45.778C64.1547 46.0659 64.1783 46.2779 64.2254 46.414C64.2463 46.482 64.4243 46.516 64.7593 46.516H65.0498C65.4634 46.516 65.7748 46.4611 65.9842 46.3511C66.0679 46.3093 66.1622 46.2177 66.2668 46.0763C66.3715 45.935 66.4527 45.7754 66.5102 45.5974C66.5207 45.566 66.5574 45.5503 66.6202 45.5503C66.7353 45.5503 66.8086 45.566 66.84 45.5974L66.5888 46.2962C66.5574 46.3799 66.5233 46.4872 66.4867 46.6181C66.4501 46.7437 66.4265 46.8458 66.416 46.9243C66.2067 46.9243 65.7748 46.9165 65.1205 46.9008C64.7907 46.8903 64.5107 46.8851 64.2804 46.8851C64.0501 46.8851 63.8668 46.8877 63.7308 46.8929L62.6865 46.9243Z" fill="black"/>
<path d="M59.5065 46.9165C58.8784 46.9165 58.3837 46.728 58.0225 46.3511C57.6614 45.969 57.4808 45.3566 57.4808 44.5138V42.8022C57.4808 42.4724 57.4598 42.2526 57.4179 42.1426C57.4075 42.1112 57.3682 42.0824 57.3002 42.0563C57.2374 42.0301 57.1667 42.0092 57.0882 41.9935C57.0149 41.9725 56.9573 41.962 56.9154 41.962C56.8945 41.962 56.884 41.9228 56.884 41.8443C56.884 41.7658 56.8919 41.7186 56.9076 41.7029L57.9519 41.7501C58.0513 41.7501 58.3863 41.7343 58.9569 41.7029C58.9621 41.7239 58.9647 41.7448 58.9647 41.7658C58.97 41.7867 58.9726 41.8076 58.9726 41.8286C58.9726 41.9176 58.9621 41.962 58.9412 41.962C58.9098 41.962 58.8522 41.9725 58.7684 41.9935C58.6899 42.0092 58.6166 42.0301 58.5486 42.0563C58.4805 42.0824 58.4439 42.1112 58.4387 42.1426C58.4177 42.2212 58.402 42.318 58.3916 42.4331C58.3811 42.5483 58.3759 42.6818 58.3759 42.8336V44.6395C58.3759 45.1786 58.491 45.6105 58.7213 45.935C58.9569 46.2543 59.2814 46.414 59.6949 46.414C60.098 46.414 60.4199 46.2831 60.6607 46.0214C60.9067 45.7544 61.0297 45.3147 61.0297 44.7023V42.7865C61.0297 42.4672 61.0036 42.2578 60.9512 42.1583C60.9303 42.1269 60.8779 42.0955 60.7942 42.0641C60.7157 42.0327 60.6319 42.0065 60.5429 41.9856C60.4539 41.9647 60.3859 41.9542 60.3388 41.9542C60.3178 41.9542 60.3048 41.9176 60.2995 41.8443C60.2995 41.771 60.3074 41.7239 60.3231 41.7029C60.6057 41.7239 60.8282 41.7396 60.9905 41.7501C61.158 41.7553 61.2653 41.7579 61.3124 41.7579C61.3804 41.7579 61.4563 41.7553 61.5401 41.7501C61.6291 41.7448 61.7285 41.737 61.8385 41.7265C62.0531 41.7108 62.1865 41.7029 62.2389 41.7029C62.2441 41.7239 62.2467 41.7448 62.2467 41.7658C62.252 41.7815 62.2546 41.8024 62.2546 41.8286C62.2546 41.9123 62.2441 41.9542 62.2232 41.9542C62.1761 41.9542 62.108 41.9647 62.019 41.9856C61.9301 42.0013 61.8437 42.0249 61.7599 42.0563C61.6762 42.0877 61.6186 42.1269 61.5872 42.174C61.5296 42.3154 61.5008 42.5326 61.5008 42.8257V44.6709C61.5008 45.4875 61.3098 46.0711 60.9277 46.4218C60.7444 46.5945 60.5351 46.7202 60.2995 46.7987C60.0692 46.8772 59.8049 46.9165 59.5065 46.9165Z" fill="black"/>
<path d="M55.5492 48C55.3555 48 55.1461 47.9529 54.921 47.8587C54.7012 47.7697 54.5049 47.6676 54.3321 47.5525C54.1594 47.4321 53.9579 47.3064 53.7276 47.1756C53.4972 47.05 53.2931 46.9584 53.1151 46.9008C52.9267 46.8432 52.7304 46.7464 52.5263 46.6103C52.3273 46.4742 52.1337 46.3014 51.9452 46.092C51.7516 45.8827 51.5919 45.6236 51.4663 45.3147C51.3406 45.0007 51.2778 44.6709 51.2778 44.3254C51.2778 43.8386 51.3904 43.3937 51.6155 42.9906C51.8405 42.5823 52.1441 42.2604 52.5263 42.0249C52.9136 41.7841 53.335 41.6637 53.7904 41.6637C54.2458 41.6637 54.6645 41.7815 55.0466 42.017C55.434 42.2578 55.7402 42.5823 55.9653 42.9906C56.1904 43.3989 56.3029 43.8438 56.3029 44.3254C56.3029 44.6761 56.2427 45.0085 56.1223 45.3226C56.0072 45.6314 55.858 45.8905 55.6748 46.0999C55.4968 46.3093 55.3084 46.4794 55.1095 46.6103C54.9105 46.7411 54.7221 46.8249 54.5441 46.8615C54.7587 46.9662 54.9367 47.0604 55.0781 47.1442C55.2246 47.2279 55.3398 47.2907 55.4235 47.3326C55.5177 47.3797 55.6434 47.4216 55.8004 47.4582C55.9574 47.5001 56.1328 47.5211 56.3265 47.5211C56.4626 47.5211 56.5803 47.508 56.6798 47.4818C56.7845 47.4609 56.8552 47.4504 56.8918 47.4504C56.9546 47.4504 56.986 47.5027 56.986 47.6074V47.6467C56.5463 47.8822 56.0674 48 55.5492 48ZM53.916 46.571C54.2144 46.571 54.4682 46.4768 54.6776 46.2883C54.887 46.0999 55.0466 45.846 55.1566 45.5267C55.2665 45.2074 55.3215 44.8567 55.3215 44.4746C55.3215 43.8674 55.1958 43.3283 54.9446 42.8572C54.8137 42.6216 54.6384 42.4332 54.4185 42.2918C54.1987 42.1505 53.9474 42.0798 53.6647 42.0798C53.3664 42.0798 53.1125 42.1741 52.9031 42.3625C52.6938 42.5509 52.5341 42.8022 52.4242 43.1163C52.3143 43.4251 52.2593 43.7706 52.2593 44.1527C52.2593 44.54 52.3143 44.9117 52.4242 45.2676C52.4975 45.5032 52.6048 45.7204 52.7461 45.9193C52.8874 46.1182 53.0575 46.2779 53.2565 46.3983C53.4554 46.5134 53.6752 46.571 53.916 46.571Z" fill="black"/>
<path d="M48.7887 46.9243C48.7678 46.9034 48.7573 46.8667 48.7573 46.8144C48.7573 46.7149 48.7678 46.6652 48.7887 46.6652C48.8306 46.6652 48.8908 46.6574 48.9693 46.6417C49.0478 46.626 49.1211 46.605 49.1892 46.5788C49.2572 46.5474 49.2965 46.5186 49.3069 46.4925C49.3279 46.4087 49.3436 46.3119 49.3541 46.202C49.3645 46.092 49.3698 45.969 49.3698 45.8329V42.8022C49.3698 42.4986 49.3488 42.2787 49.3069 42.1426C49.2965 42.1112 49.2572 42.0824 49.1892 42.0563C49.1264 42.0301 49.0557 42.0092 48.9772 41.9935C48.9039 41.9725 48.8463 41.962 48.8044 41.962C48.7835 41.962 48.773 41.9228 48.773 41.8443C48.773 41.7605 48.7783 41.7134 48.7887 41.7029L49.2284 41.7265C49.3593 41.7317 49.4744 41.7396 49.5739 41.7501C49.6786 41.7553 49.765 41.7553 49.833 41.7501L50.838 41.7029C50.8537 41.7501 50.8616 41.7919 50.8616 41.8286C50.8616 41.9176 50.8511 41.962 50.8302 41.962C50.7988 41.962 50.7438 41.9725 50.6653 41.9935C50.5868 42.0144 50.5109 42.0379 50.4376 42.0641C50.3695 42.0903 50.3303 42.1165 50.3198 42.1426C50.2989 42.2264 50.2832 42.3258 50.2727 42.441C50.2622 42.5509 50.257 42.6818 50.257 42.8336V45.7858C50.257 46.0737 50.2806 46.3093 50.3277 46.4925C50.3381 46.5134 50.3748 46.5396 50.4376 46.571C50.5056 46.5972 50.5763 46.6207 50.6496 46.6417C50.7281 46.6574 50.7831 46.6652 50.8145 46.6652C50.8354 46.6652 50.8459 46.7149 50.8459 46.8144C50.8459 46.8458 50.8406 46.8824 50.8302 46.9243L49.833 46.8772C49.6498 46.8667 49.4614 46.8694 49.2677 46.8851C49.074 46.9008 48.9144 46.9138 48.7887 46.9243Z" fill="black"/>
<path d="M44.9102 46.9322C44.8893 46.9112 44.8788 46.8694 44.8788 46.8066C44.8788 46.7123 44.8893 46.6652 44.9102 46.6652C44.9521 46.6652 45.0123 46.6574 45.0908 46.6417C45.1693 46.626 45.2426 46.605 45.3107 46.5789C45.3787 46.5474 45.418 46.5187 45.4284 46.4925C45.4703 46.3407 45.4912 46.1235 45.4912 45.8408V42.9985C45.4912 42.5588 45.4677 42.3049 45.4206 42.2369C45.3787 42.1479 45.1301 42.1034 44.6747 42.1034C44.4182 42.1034 44.2297 42.1557 44.1093 42.2604C43.989 42.3599 43.8895 42.5509 43.811 42.8336C43.8057 42.865 43.7796 42.8807 43.7325 42.8807C43.6382 42.8807 43.5702 42.8598 43.5283 42.8179L43.6775 41.6244C43.7927 41.6506 43.8947 41.6715 43.9837 41.6872C44.0727 41.6977 44.1512 41.703 44.2193 41.703C44.6904 41.7134 45.0673 41.7239 45.3499 41.7344C45.6378 41.7396 45.8603 41.7448 46.0173 41.7501C46.1796 41.7501 46.3 41.7501 46.3785 41.7501C46.457 41.7501 46.5198 41.7501 46.5669 41.7501C46.6193 41.7448 46.6795 41.7422 46.7475 41.7422C46.8156 41.737 46.9203 41.7317 47.0616 41.7265C47.2029 41.716 47.4044 41.7082 47.6662 41.703C47.7342 41.703 47.8127 41.6977 47.9017 41.6872C47.9907 41.6715 48.0928 41.6506 48.2079 41.6244L48.3571 42.8257C48.3205 42.8624 48.2498 42.8807 48.1451 42.8807C48.1032 42.8807 48.0771 42.8676 48.0666 42.8414C47.9933 42.5536 47.8965 42.3599 47.7761 42.2604C47.6557 42.1557 47.4673 42.1034 47.2108 42.1034C46.7292 42.1034 46.4753 42.1479 46.4491 42.2369C46.402 42.3834 46.3785 42.6295 46.3785 42.9749V45.8094C46.3785 46.092 46.402 46.3197 46.4491 46.4925C46.4544 46.5134 46.4884 46.5396 46.5512 46.571C46.6193 46.5972 46.6926 46.6207 46.7711 46.6417C46.8496 46.6574 46.9045 46.6652 46.936 46.6652C46.9569 46.6652 46.9674 46.7123 46.9674 46.8066C46.9674 46.8327 46.9647 46.8563 46.9595 46.8772C46.9595 46.8982 46.9569 46.9165 46.9517 46.9322C46.758 46.9165 46.58 46.9034 46.4177 46.8929C46.2555 46.8825 46.1011 46.8772 45.9545 46.8772C45.8603 46.8772 45.7373 46.8825 45.5855 46.8929C45.4389 46.8982 45.3002 46.9034 45.1693 46.9086C45.0385 46.9191 44.9521 46.9269 44.9102 46.9322Z" fill="black"/>
<path d="M40.3954 46.9165C39.7673 46.9165 39.2726 46.728 38.9114 46.3511C38.5503 45.969 38.3697 45.3566 38.3697 44.5138V42.8022C38.3697 42.4724 38.3487 42.2526 38.3069 42.1426C38.2964 42.1112 38.2571 42.0824 38.1891 42.0563C38.1263 42.0301 38.0556 42.0092 37.9771 41.9935C37.9038 41.9725 37.8462 41.962 37.8044 41.962C37.7834 41.962 37.7729 41.9228 37.7729 41.8443C37.7729 41.7658 37.7808 41.7186 37.7965 41.7029L38.8408 41.7501C38.9402 41.7501 39.2752 41.7343 39.8458 41.7029C39.851 41.7239 39.8536 41.7448 39.8536 41.7658C39.8589 41.7867 39.8615 41.8076 39.8615 41.8286C39.8615 41.9176 39.851 41.962 39.8301 41.962C39.7987 41.962 39.7411 41.9725 39.6574 41.9935C39.5788 42.0092 39.5056 42.0301 39.4375 42.0563C39.3695 42.0824 39.3328 42.1112 39.3276 42.1426C39.3066 42.2212 39.2909 42.318 39.2805 42.4331C39.27 42.5483 39.2648 42.6818 39.2648 42.8336V44.6395C39.2648 45.1786 39.3799 45.6105 39.6102 45.935C39.8458 46.2543 40.1703 46.414 40.5839 46.414C40.9869 46.414 41.3088 46.2831 41.5496 46.0214C41.7956 45.7544 41.9186 45.3147 41.9186 44.7023V42.7865C41.9186 42.4672 41.8925 42.2578 41.8401 42.1583C41.8192 42.1269 41.7668 42.0955 41.6831 42.0641C41.6046 42.0327 41.5208 42.0065 41.4318 41.9856C41.3429 41.9647 41.2748 41.9542 41.2277 41.9542C41.2068 41.9542 41.1937 41.9176 41.1884 41.8443C41.1884 41.771 41.1963 41.7239 41.212 41.7029C41.4947 41.7239 41.7171 41.7396 41.8794 41.7501C42.0469 41.7553 42.1542 41.7579 42.2013 41.7579C42.2694 41.7579 42.3453 41.7553 42.429 41.7501C42.518 41.7448 42.6174 41.737 42.7274 41.7265C42.942 41.7108 43.0755 41.7029 43.1278 41.7029C43.133 41.7239 43.1357 41.7448 43.1357 41.7658C43.1409 41.7815 43.1435 41.8024 43.1435 41.8286C43.1435 41.9123 43.133 41.9542 43.1121 41.9542C43.065 41.9542 42.9969 41.9647 42.908 41.9856C42.819 42.0013 42.7326 42.0249 42.6488 42.0563C42.5651 42.0877 42.5075 42.1269 42.4761 42.174C42.4185 42.3154 42.3897 42.5326 42.3897 42.8257V44.6709C42.3897 45.4875 42.1987 46.0711 41.8166 46.4218C41.6334 46.5945 41.424 46.7202 41.1884 46.7987C40.9581 46.8772 40.6938 46.9165 40.3954 46.9165Z" fill="black"/>
<path d="M33.0777 46.202C32.5856 45.689 32.3396 45.0635 32.3396 44.3254C32.3396 43.959 32.405 43.6162 32.5359 43.2968C32.6668 42.9723 32.8473 42.6897 33.0777 42.4489C33.308 42.2028 33.5749 42.0118 33.8785 41.8757C34.1821 41.7344 34.5067 41.6637 34.8521 41.6637C35.1976 41.6637 35.5222 41.7344 35.8258 41.8757C36.1293 42.0118 36.3963 42.2028 36.6266 42.4489C36.8622 42.6897 37.0454 42.9723 37.1762 43.2968C37.3071 43.6162 37.3725 43.959 37.3725 44.3254C37.3725 45.0635 37.1265 45.689 36.6345 46.202C36.2942 46.5579 35.9121 46.7935 35.4881 46.9086C35.0641 47.029 34.6401 47.029 34.2162 46.9086C33.7974 46.7935 33.4179 46.5579 33.0777 46.202ZM34.9778 46.5867C35.2761 46.5867 35.5274 46.4925 35.7315 46.304C35.9409 46.1104 36.1006 45.8539 36.2105 45.5346C36.3204 45.21 36.3754 44.8567 36.3754 44.4746C36.3754 44.0768 36.323 43.6973 36.2183 43.3361C36.1503 43.1006 36.0456 42.8859 35.9043 42.6923C35.7682 42.4934 35.6007 42.3363 35.4018 42.2212C35.2081 42.106 34.9856 42.0484 34.7344 42.0484C34.436 42.0484 34.1821 42.1426 33.9728 42.3311C33.7686 42.5195 33.6116 42.7734 33.5016 43.0927C33.397 43.412 33.3446 43.7653 33.3446 44.1527C33.3446 44.5453 33.3996 44.9195 33.5095 45.2755C33.5828 45.511 33.6875 45.7283 33.8236 45.9272C33.9597 46.1261 34.1246 46.2857 34.3182 46.4061C34.5171 46.5265 34.737 46.5867 34.9778 46.5867Z" fill="black"/>
<path d="M27.7775 46.9243C27.7618 46.9086 27.754 46.8667 27.754 46.7987C27.754 46.7097 27.7618 46.6652 27.7775 46.6652C27.8246 46.6652 27.8848 46.6574 27.9581 46.6417C28.0366 46.626 28.1099 46.605 28.178 46.5788C28.2513 46.5527 28.2931 46.5239 28.3036 46.4925C28.3402 46.3878 28.3586 46.1496 28.3586 45.778V42.81C28.3586 42.4907 28.3402 42.2761 28.3036 42.1662C28.2931 42.1243 28.2539 42.0903 28.1858 42.0641C28.123 42.0327 28.0497 42.0092 27.966 41.9935C27.8875 41.9778 27.822 41.9699 27.7697 41.9699C27.7488 41.9699 27.7383 41.9306 27.7383 41.8521C27.7383 41.7788 27.7488 41.7317 27.7697 41.7108C28.1152 41.7265 28.4633 41.7344 28.814 41.7344L29.4892 41.7265H29.9603C30.3529 41.7265 30.7245 41.8207 31.0752 42.0092C31.2532 42.1086 31.3972 42.2499 31.5071 42.4332C31.6223 42.6164 31.6798 42.8284 31.6798 43.0691C31.6798 43.2523 31.6249 43.4277 31.5149 43.5952C31.405 43.7575 31.3003 43.8726 31.2009 43.9407C31.1067 44.0035 31.0255 44.048 30.9575 44.0742C30.9156 44.0899 30.9051 44.1056 30.9261 44.1213C31.0569 44.1422 31.1983 44.2129 31.3501 44.3333C31.5071 44.4484 31.6432 44.6002 31.7583 44.7887C31.8735 44.9771 31.9311 45.1917 31.9311 45.4325C31.9311 45.7309 31.8473 45.9926 31.6798 46.2177C31.5176 46.4375 31.2872 46.6076 30.9889 46.728C30.6905 46.8432 30.3398 46.9008 29.9368 46.9008L28.8218 46.8929L27.7775 46.9243ZM29.7169 43.9799C29.9106 43.9799 30.0571 43.9642 30.1566 43.9328C30.5387 43.8491 30.7298 43.5926 30.7298 43.1634C30.7298 42.4567 30.4288 42.1034 29.8268 42.1034C29.586 42.1034 29.4185 42.1165 29.3243 42.1426C29.2824 42.1531 29.2615 42.1819 29.2615 42.229L29.2458 42.9828V43.9014C29.2458 43.9538 29.4028 43.9799 29.7169 43.9799ZM29.8425 46.5082C29.9577 46.5082 30.0702 46.4977 30.1802 46.4768C30.2901 46.4506 30.4105 46.4061 30.5413 46.3433C30.667 46.2857 30.769 46.1863 30.8476 46.0449C30.9313 45.8984 30.9732 45.723 30.9732 45.5189C30.9732 45.1839 30.879 44.9091 30.6905 44.6944C30.5073 44.4746 30.2089 44.3647 29.7954 44.3647C29.7221 44.3647 29.6436 44.3699 29.5599 44.3804C29.4814 44.3856 29.3976 44.3935 29.3086 44.4039C29.2667 44.4301 29.2458 44.4824 29.2458 44.561V46.0214C29.2458 46.236 29.2772 46.3721 29.34 46.4297C29.4081 46.482 29.5756 46.5082 29.8425 46.5082Z" fill="black"/>
<path d="M100.633 27.1022C100.427 27.1022 100.237 27.0497 100.065 26.9447C99.8923 26.8396 99.7554 26.6971 99.6541 26.517C99.5528 26.3369 99.5022 26.1362 99.5022 25.9149C99.5022 25.6186 99.5622 25.3353 99.6823 25.0652C99.8023 24.7951 99.9636 24.5569 100.166 24.3506C100.365 24.1443 100.579 23.9661 100.808 23.816C101.04 23.6622 101.284 23.5347 101.539 23.4334C101.569 23.4371 101.594 23.4578 101.612 23.4953C101.635 23.5328 101.648 23.5684 101.652 23.6022C101.31 23.7523 101.014 23.9473 100.763 24.1874C100.515 24.4237 100.344 24.7013 100.251 25.0202C100.236 25.0615 100.237 25.0896 100.256 25.1046L100.267 25.099C100.316 25.0727 100.389 25.0446 100.487 25.0146C100.584 24.9808 100.674 24.9639 100.757 24.9639C100.945 24.9639 101.113 25.0127 101.263 25.1102C101.417 25.2078 101.539 25.3353 101.629 25.4929C101.719 25.6504 101.764 25.8193 101.764 25.9993C101.764 26.1944 101.712 26.3763 101.607 26.5451C101.502 26.714 101.363 26.849 101.19 26.9503C101.021 27.0516 100.836 27.1022 100.633 27.1022ZM100.667 26.8434C100.817 26.8434 100.935 26.7777 101.021 26.6464C101.108 26.5151 101.151 26.3257 101.151 26.0781C101.151 25.8268 101.102 25.6279 101.005 25.4816C100.907 25.3316 100.755 25.2566 100.549 25.2566C100.47 25.2566 100.395 25.2772 100.324 25.3184C100.252 25.356 100.207 25.4029 100.189 25.4591C100.17 25.5154 100.155 25.5848 100.144 25.6673C100.136 25.7461 100.131 25.838 100.127 25.943C100.127 26.2056 100.176 26.4213 100.273 26.5902C100.371 26.759 100.502 26.8434 100.667 26.8434Z" fill="black"/>
<path d="M97.2516 27.1135C97.2066 27.1135 97.1616 27.0947 97.1166 27.0572C97.0753 27.0197 97.0547 26.9822 97.0547 26.9447L98.5177 24.0074H97.2066C97.1616 24.0074 97.1184 24.0186 97.0772 24.0411C97.0397 24.0636 97.0115 24.0843 96.9928 24.103C96.974 24.1218 96.9496 24.1612 96.9196 24.2212C96.8933 24.2812 96.8765 24.3206 96.869 24.3393C96.8615 24.3581 96.8465 24.4012 96.8239 24.4688C96.8202 24.4875 96.7883 24.4988 96.7283 24.5025C96.6683 24.5063 96.627 24.5007 96.6045 24.4856C96.6683 24.2156 96.717 24.0036 96.7508 23.8498C96.7883 23.6922 96.8089 23.5947 96.8127 23.5572C96.8239 23.5122 96.8577 23.4897 96.914 23.4897H98.5571L98.7878 23.484C98.8366 23.4803 98.8722 23.4784 98.8947 23.4784C98.9172 23.4784 98.9303 23.4784 98.9341 23.4784C98.9603 23.4784 98.9735 23.4934 98.9735 23.5234C98.9735 23.5722 98.921 23.6997 98.8159 23.9061L97.3022 27.1022C97.2872 27.1097 97.2704 27.1135 97.2516 27.1135Z" fill="black"/>
<path d="M96.1771 23.0958C96.1996 23.0958 96.2277 23.1089 96.2615 23.1351C96.299 23.1577 96.3234 23.1839 96.3346 23.2139C96.1996 23.2927 96.0983 23.3846 96.0308 23.4896C95.967 23.5909 95.9351 23.6697 95.9351 23.726C95.9351 23.771 95.9539 23.816 95.9914 23.861C96.0326 23.9061 96.072 23.9511 96.1095 23.9961C96.1508 24.0411 96.1714 24.0861 96.1714 24.1311C96.1714 24.1949 96.1321 24.2512 96.0533 24.2999C95.9782 24.3487 95.8938 24.3731 95.8001 24.3731C95.7438 24.3731 95.6913 24.36 95.6425 24.3337C95.59 24.2587 95.5637 24.1274 95.5637 23.9398C95.5637 23.8423 95.5825 23.7466 95.62 23.6528C95.6613 23.5553 95.71 23.4746 95.7663 23.4109C95.8451 23.3246 95.9257 23.2514 96.0083 23.1914C96.0945 23.1276 96.1508 23.0958 96.1771 23.0958Z" fill="black"/>
</svg>
