<svg width="193" height="78" viewBox="0 0 193 78" fill="none" xmlns="http://www.w3.org/2000/svg">
<g clip-path="url(#clip0_1311_568)">
<path d="M192.509 13.2399C192.245 12.2831 191.809 11.3832 191.223 10.5851C191.177 10.5191 191.13 10.4548 191.083 10.3904L190.944 10.1974C190.896 10.1331 190.851 10.0687 190.802 10.0044C190.754 9.94007 190.711 9.87573 190.663 9.8114C190.614 9.74706 190.57 9.68103 190.523 9.61839C190.476 9.55575 190.431 9.48802 190.384 9.42538C190.337 9.36273 190.291 9.29501 190.244 9.23067L190.104 9.03766C190.059 8.97163 190.012 8.90899 189.965 8.84466C189.918 8.78032 189.872 8.71429 189.825 8.65164C189.778 8.589 189.733 8.52128 189.686 8.45864C189.639 8.39599 189.593 8.32827 189.546 8.26394L189.407 8.07092C189.361 8.00489 189.314 7.94225 189.267 7.87792C189.22 7.81358 189.175 7.74755 189.128 7.6849C187.569 5.43989 184.974 4.32586 182.011 4.56797C181.941 4.56837 181.871 4.57289 181.801 4.58151C177.338 5.13176 172.951 6.1476 168.574 7.16852C168.544 7.1245 168.509 7.08217 168.477 7.03984C168.445 6.99752 168.384 6.90948 168.337 6.84514C168.29 6.78081 168.245 6.71647 168.198 6.65213C168.151 6.58779 168.105 6.52346 168.058 6.45912C166.871 4.70003 164.66 3.71466 162.415 3.76884C161.135 3.80101 159.615 4.22258 159.183 5.59904C159.092 5.90998 159.072 6.23749 159.124 6.55732C159.149 6.74017 159.235 6.89593 159.265 7.06524C159.22 7.68998 158.966 8.55683 158.709 9.36781C155.85 9.94684 152.946 10.4835 150.025 10.5225C148.512 10.5428 146.92 10.3735 145.64 9.57775C145.564 9.35427 145.489 9.12401 145.408 8.8819C145.264 8.43339 145.046 8.01264 144.762 7.6375C144.719 7.57147 144.671 7.50713 144.623 7.44449C144.574 7.38185 144.532 7.31412 144.483 7.25148C144.434 7.18883 144.392 7.11942 144.344 7.05847C144.295 6.99752 144.253 6.92641 144.204 6.86546C144.155 6.80451 144.113 6.7334 144.064 6.67076C144.016 6.60811 143.974 6.54039 143.925 6.47774C143.876 6.4151 143.834 6.34738 143.785 6.28474C143.737 6.22209 143.694 6.15268 143.646 6.09173C143.597 6.03078 143.555 5.95967 143.506 5.89872C143.457 5.83777 143.415 5.76666 143.367 5.70571C143.318 5.64476 143.276 5.57365 143.227 5.511C143.178 5.44836 143.136 5.38064 143.087 5.318C143.039 5.25535 142.997 5.18594 142.948 5.12499C142.899 5.06403 142.855 4.99293 142.808 4.93198C142.761 4.87103 142.716 4.79992 142.667 4.73897C142.582 4.60928 142.486 4.48695 142.381 4.37326C142.366 4.35295 142.348 4.33432 142.332 4.3157C142.289 4.24837 142.243 4.18338 142.193 4.121C142.149 4.05497 142.104 3.99063 142.053 3.92798C142.003 3.86534 141.964 3.79762 141.914 3.73498C141.863 3.67233 141.825 3.60461 141.774 3.54197C141.731 3.47518 141.684 3.41076 141.635 3.34896C141.592 3.28162 141.545 3.21663 141.495 3.15425C141.451 3.08822 141.404 3.02389 141.355 2.96124C141.307 2.8986 141.265 2.83088 141.216 2.76823C141.167 2.70559 141.125 2.63787 141.075 2.57523C141.032 2.50806 140.986 2.4436 140.935 2.38222C140.893 2.31476 140.846 2.25028 140.796 2.18921C140.217 1.30034 138.981 0.804276 138.014 0.54693C136.365 0.110119 134.227 -0.0219417 132.852 1.18352C131.675 2.21629 130.834 3.8755 130.052 5.31969C130.024 5.27905 129.992 5.23842 129.961 5.19948C129.918 5.13176 129.871 5.06911 129.822 5.00478C129.773 4.94044 129.731 4.8761 129.682 4.81177C129.634 4.74743 129.592 4.68309 129.543 4.61876C129.494 4.55442 129.452 4.48839 129.403 4.42575C129.354 4.3631 129.312 4.29538 129.264 4.23274C129.215 4.17009 129.173 4.10237 129.124 4.03804C129.075 3.9737 129.032 3.90936 128.985 3.84503C128.937 3.78069 128.892 3.71635 128.845 3.65202C128.798 3.58768 128.752 3.52334 128.705 3.45901C128.658 3.39467 128.613 3.32864 128.566 3.266C128.519 3.20335 128.473 3.13563 128.426 3.07129C128.379 3.00696 128.334 2.94262 128.287 2.87828C127.48 1.66266 126.007 0.846603 124.671 0.406405C123.114 -0.111674 120.523 -0.472297 119.729 1.42225C119.544 1.86826 119.51 2.36329 119.632 2.83088C119.595 2.98664 119.613 2.94431 119.632 2.85628C119.602 3.00865 119.573 3.16272 119.538 3.31509C118.899 6.08495 117.777 8.7854 116.74 11.4215C115.181 15.3765 113.518 19.34 111.685 23.2205L111.67 23.2002C111.626 23.1342 111.579 23.0698 111.53 23.0072C111.482 22.9445 111.44 22.8768 111.391 22.8142C111.342 22.7515 111.3 22.6838 111.25 22.6212C111.207 22.5543 111.16 22.4898 111.11 22.4281C111.067 22.3604 111.021 22.2954 110.97 22.2334C110.927 22.1665 110.881 22.1021 110.831 22.0404L110.831 22.0409C110.691 21.848 110.691 21.848 110.551 21.6551L110.552 21.6544C110.509 21.5875 110.462 21.5231 110.412 21.4614C110.076 20.9399 109.543 20.537 108.746 20.3186C105.188 19.3468 101.419 22.6499 99.3292 25.1133C97.7773 26.9516 96.4428 28.9652 95.3524 31.1136L95.2986 31.0459C95.2532 30.9815 95.2078 30.9155 95.159 30.8528C95.1103 30.7902 95.0682 30.7225 95.0195 30.6598C94.9707 30.5972 94.9287 30.5295 94.8799 30.4668C94.8311 30.4042 94.7891 30.3365 94.7403 30.2721C94.6916 30.2078 94.6495 30.1418 94.6008 30.0791C94.552 30.0165 94.51 29.9487 94.4612 29.8861C94.4124 29.8235 94.3704 29.7557 94.3216 29.6931C94.2729 29.6305 94.2308 29.5627 94.1821 29.5001C93.4775 28.4842 92.3324 27.7427 91.0342 27.3922C88.929 26.8386 87.086 27.4566 86.5177 29.6592C86.4841 29.6135 86.4521 29.5661 86.4151 29.5204C86.3727 29.4531 86.3261 29.3887 86.2755 29.3274C86.2328 29.2598 86.1862 29.1948 86.136 29.1327C85.8385 28.7074 85.438 28.3659 84.9724 28.1406C82.9377 27.0655 79.7378 27.1162 78.5321 29.3477C77.5535 31.1576 76.8725 33.1029 76.1259 35.0195C75.972 34.759 75.8036 34.5074 75.6214 34.2661C75.5743 34.2017 75.5289 34.1357 75.4819 34.0731C75.4348 34.0104 75.3894 33.9427 75.3423 33.8801C75.2952 33.8174 75.2498 33.7497 75.2027 33.687L75.0632 33.4923L74.9236 33.2993C74.8765 33.235 74.8311 33.1707 74.7823 33.1063C74.7336 33.042 74.6915 32.976 74.6428 32.9133C74.594 32.8507 74.552 32.7829 74.5032 32.7203C74.4544 32.6577 74.4124 32.5899 74.3636 32.5256C74.3149 32.4613 74.2728 32.3969 74.2241 32.3326C74.1753 32.2683 74.1333 32.2039 74.0845 32.1396C74.0358 32.0752 73.9937 32.0092 73.9449 31.9466C73.8962 31.8839 73.8541 31.8162 73.8054 31.7536C73.7566 31.6909 73.7146 31.6232 73.6658 31.5589C73.6171 31.4945 73.575 31.4302 73.5262 31.3658C73.216 30.9341 72.879 30.5224 72.5173 30.1333C72.2096 29.7947 71.8784 29.4832 71.5437 29.1682C71.5807 28.6485 71.833 28.1118 72.0835 27.5006C72.9091 25.4858 74.0845 22.8633 72.7242 21.1431C72.6804 21.0788 72.6334 21.0127 72.5829 20.9501C72.54 20.8832 72.4934 20.8188 72.4433 20.7571C72.4004 20.6902 72.3538 20.6258 72.3038 20.5641C72.2608 20.4972 72.2142 20.4327 72.1642 20.3711C72.1222 20.305 72.0751 20.2407 72.0247 20.1764C71.9742 20.112 71.9355 20.0477 71.8851 19.9834C71.8421 19.9165 71.7955 19.852 71.7455 19.7903C71.7018 19.7243 71.6564 19.66 71.6059 19.5973C71.5555 19.5347 71.5168 19.467 71.4664 19.4043C71.4159 19.3417 71.3773 19.274 71.3268 19.2096C71.2764 19.1453 71.2377 19.0809 71.1872 19.0166C71.1368 18.9523 71.0981 18.8862 71.0477 18.8236C70.9972 18.761 70.9586 18.6932 70.9081 18.6306C70.8577 18.5679 70.819 18.5002 70.7686 18.4376C70.7181 18.3749 70.6794 18.3072 70.629 18.2446C70.256 17.7106 69.7416 17.2929 69.1442 17.0391C67.4324 16.2434 63.1882 16.1096 62.8301 18.6949C62.7359 19.3722 63.0235 19.7853 63.3598 20.3084C63.3807 20.3763 63.3903 20.4473 63.3884 20.5184C63.3581 20.9332 63.3884 21.3463 63.3413 21.7611C63.111 23.6156 62.6796 25.4392 62.0549 27.1992C61.7304 28.1507 61.3369 29.0853 60.9653 30.0199C60.1649 32.0346 59.3493 34.0731 58.443 36.0675C58.4094 36.0201 58.3774 35.9693 58.3404 35.9219C58.3599 35.7879 58.3689 35.6526 58.3673 35.5173C58.3488 34.515 57.8629 33.5279 57.2239 32.6814C57.1785 32.6153 57.1331 32.551 57.0843 32.4883C57.0356 32.4257 56.9935 32.358 56.9448 32.2937C56.896 32.2293 56.854 32.165 56.8052 32.1006C56.7564 32.0363 56.7144 31.972 56.6656 31.9076C56.6169 31.8433 56.5748 31.7773 56.5261 31.7146C56.4773 31.652 56.4353 31.5843 56.3865 31.5216C56.3377 31.459 56.2957 31.3912 56.2469 31.3286C56.1982 31.266 56.1561 31.1982 56.1074 31.1339C56.0586 31.0696 56.0166 31.0052 55.9678 30.9409C55.919 30.8766 55.8753 30.8105 55.8282 30.7479C55.7812 30.6852 55.7358 30.6175 55.6887 30.5549C55.6416 30.4922 55.5962 30.4245 55.5491 30.3619C55.502 30.2992 55.4566 30.2315 55.4095 30.1672L55.27 29.9741L55.1304 29.7811C54.7268 29.2195 54.2639 28.7034 53.7499 28.2421C52.1289 26.7844 50.064 25.8583 47.8645 25.8329C46.1746 25.8126 44.6108 26.3307 43.1933 27.1484C44.33 24.0535 45.5026 20.9727 46.711 17.906C47.7401 15.2828 48.786 12.6732 49.8487 10.0772C50.2859 9.0055 51.1435 7.65951 51.194 6.46928C51.218 5.96805 51.0515 5.47643 50.7282 5.09451C50.6845 5.02848 50.6391 4.96414 50.5886 4.9015C50.5382 4.83886 50.4995 4.77113 50.449 4.70849C50.406 4.64171 50.3594 4.57728 50.3095 4.51548C50.2668 4.44842 50.2202 4.38397 50.1699 4.32247C50.1268 4.25514 50.0802 4.19015 50.0303 4.12777C49.9866 4.06174 49.9412 3.9974 49.8908 3.93476C49.8403 3.87212 49.8017 3.80439 49.7512 3.74175C49.7008 3.67911 49.6621 3.61138 49.6116 3.54874C49.5686 3.48196 49.522 3.41753 49.4721 3.35573C49.429 3.2884 49.3824 3.2234 49.3325 3.16103C49.2888 3.095 49.2417 3.03066 49.1929 2.96802C49.1442 2.90537 49.1021 2.83765 49.0534 2.77501C49.0046 2.71236 48.9626 2.64464 48.9121 2.582C48.8696 2.51483 48.823 2.45037 48.7726 2.38899C48.7304 2.32154 48.6838 2.25705 48.633 2.19598C48.0546 1.30712 46.8186 0.811048 45.8518 0.553701C44.2022 0.11689 42.065 -0.0151706 40.6895 1.19029C39.5124 2.22307 38.6717 3.88227 37.8898 5.32646C37.8612 5.28583 37.8292 5.24519 37.799 5.20625C37.7552 5.13853 37.7082 5.07589 37.6594 5.01155C37.6106 4.94721 37.5686 4.88288 37.5198 4.81854C37.4711 4.7542 37.429 4.68987 37.3803 4.62553C37.3315 4.56119 37.2895 4.49516 37.2407 4.43252C37.1919 4.36988 37.1499 4.30216 37.1011 4.23951C37.0524 4.17687 37.0103 4.10914 36.9616 4.04481C36.9128 3.98047 36.8691 3.91613 36.822 3.8518C36.7749 3.78746 36.7295 3.72312 36.6824 3.65879C36.6353 3.59445 36.5899 3.53011 36.5429 3.46578C36.4958 3.40144 36.4504 3.33541 36.4033 3.27277C36.3562 3.21012 36.3108 3.1424 36.2637 3.07807C36.2166 3.01373 36.1712 2.94939 36.1242 2.88506C35.3187 1.66943 33.844 0.853374 32.5089 0.413176C30.9518 -0.104903 28.3606 -0.465526 27.5669 1.42902C27.3816 1.87503 27.3473 2.37007 27.4694 2.83765C27.4324 2.99341 27.4509 2.95109 27.4694 2.86305C27.4391 3.01542 27.4105 3.16949 27.3752 3.32187C26.7362 6.09173 25.6146 8.79217 24.5772 11.4283C23.0184 15.3833 21.3554 19.3468 19.5225 23.2273L19.5074 23.207C19.4636 23.1409 19.4166 23.0766 19.3678 23.0139C19.319 22.9513 19.277 22.8836 19.2282 22.8209C19.1795 22.7583 19.1374 22.6906 19.087 22.6279C19.044 22.561 18.9974 22.4966 18.9474 22.4349C18.9049 22.3672 18.8583 22.3022 18.8078 22.2402C18.7649 22.1733 18.7183 22.1089 18.6683 22.0472C18.6253 21.9803 18.5788 21.9159 18.5287 21.8542C18.4858 21.7873 18.4392 21.7229 18.3892 21.6612C18.3462 21.5943 18.2996 21.5299 18.2496 21.4682C17.9133 20.9467 17.3802 20.5438 16.5832 20.3253C13.0251 19.3535 9.2568 22.6567 7.16667 25.1201C4.27834 28.5613 2.14342 32.5772 0.901327 36.9056C-0.0352806 40.1563 -0.743202 44.477 1.38392 47.4297C1.40074 47.4517 1.41923 47.472 1.43605 47.4957L1.52349 47.6227C1.5403 47.6464 1.5588 47.665 1.57561 47.6887L1.66306 47.8157C1.67987 47.8394 1.69837 47.858 1.71518 47.8817L1.80262 48.0087C1.81944 48.0324 1.83793 48.0527 1.85475 48.0747C1.87156 48.0967 1.91192 48.1611 1.94218 48.2017C1.97245 48.2424 1.9775 48.2457 1.99432 48.2677C2.01113 48.2898 2.05149 48.3541 2.08175 48.3964C2.11202 48.4387 2.11706 48.4388 2.13388 48.4625L2.22132 48.5894C2.23813 48.6131 2.25663 48.6318 2.27513 48.6555C2.29362 48.6792 2.33062 48.7401 2.36089 48.7824C2.39115 48.8248 2.3962 48.8248 2.4147 48.8485C2.43319 48.8722 2.47018 48.9331 2.50045 48.9755C2.53072 49.0178 2.53576 49.0195 2.55426 49.0415C2.57276 49.0635 2.60975 49.1278 2.64002 49.1685C2.67029 49.2091 2.67533 49.2125 2.69382 49.2345C2.71232 49.2565 2.74932 49.3208 2.77958 49.3615C2.80985 49.4021 2.81658 49.4055 2.83339 49.4292C2.85021 49.4529 2.88889 49.5138 2.91915 49.5562C2.94942 49.5985 2.95614 49.5985 2.97296 49.6222C2.98977 49.6459 3.02845 49.7069 3.05872 49.7492C3.08898 49.7915 3.09571 49.7915 3.11253 49.8152C3.12934 49.8389 3.16801 49.8999 3.19828 49.9422C3.22855 49.9845 3.23528 49.9845 3.25209 50.0082C3.26891 50.0319 3.30758 50.0946 3.33785 50.1352C3.36812 50.1758 3.37484 50.1792 3.39166 50.2012C3.40848 50.2232 3.44715 50.2876 3.47741 50.3282C3.50768 50.3688 3.51441 50.3722 3.53122 50.3942L3.61698 50.5229C5.52215 53.1641 8.99785 53.4011 11.6748 51.8774C14.5906 50.2182 16.748 47.235 18.5859 44.5007C21.009 40.8961 23.0352 37.0224 24.9235 33.1114C25.3019 32.3275 25.6701 31.5385 26.035 30.7411C26.0703 30.7919 26.1057 30.841 26.1426 30.8884C26.1796 30.9358 26.2351 31.0205 26.2822 31.0831C26.3293 31.1458 26.3747 31.2135 26.4218 31.2761C26.4689 31.3388 26.5143 31.4065 26.5613 31.4691C26.6084 31.5318 26.6538 31.5995 26.7026 31.6621C26.7514 31.7248 26.7934 31.7925 26.8422 31.8551C26.8854 31.9218 26.932 31.9862 26.9817 32.0482C27.0254 32.1159 27.0725 32.1802 27.1213 32.2429C27.1701 32.3055 27.2121 32.3732 27.2609 32.4359C27.3096 32.4985 27.3517 32.5662 27.4004 32.6289C27.4492 32.6915 27.4912 32.7592 27.54 32.8219C27.5888 32.8845 27.6308 32.9539 27.6796 33.0149C27.7283 33.0758 27.7704 33.147 27.8191 33.2096C27.8679 33.2722 27.9099 33.34 27.9587 33.4026L28.0041 33.4686C26.6505 37.1765 25.3759 40.9181 24.3552 44.7309C23.3345 48.5437 22.413 52.6765 24.8933 56.0305C24.9387 56.0965 24.9858 56.1608 25.0328 56.2252L25.1724 56.4182L25.312 56.6112L25.4515 56.8042L25.5911 56.9972C25.6365 57.0632 25.6836 57.1276 25.7307 57.1902C25.7778 57.2529 25.8232 57.3206 25.8702 57.3849C25.9173 57.4493 25.9627 57.5136 26.0115 57.5779C26.0603 57.6423 26.1023 57.7066 26.1511 57.7709C26.1998 57.8353 26.2419 57.8996 26.2906 57.964C26.3394 58.0283 26.3814 58.0926 26.4302 58.157C26.4789 58.2213 26.521 58.2873 26.5698 58.3517C26.6185 58.416 26.6622 58.4803 26.7093 58.5447L26.8489 58.7377L26.9885 58.9307C27.1626 59.1827 27.3506 59.4246 27.5518 59.6553C29.2249 61.5685 31.8111 62.6063 34.2997 62.7858C35.0513 62.8383 35.9493 62.8332 36.6084 62.4133C37.6459 61.753 37.6947 60.4866 37.0002 59.6553C36.9592 59.5964 36.9149 59.5398 36.8674 59.486C36.8254 59.4179 36.7788 59.3529 36.7278 59.2913C36.6855 59.224 36.6388 59.1596 36.5883 59.0983C36.5459 59.031 36.4993 58.9666 36.4487 58.9053C36.4063 58.838 36.3597 58.7736 36.3091 58.7123C36.2666 58.6451 36.22 58.5807 36.1696 58.5193C36.127 58.4516 36.0804 58.3865 36.03 58.3246C35.9871 58.2577 35.9405 58.1933 35.8904 58.1316C35.8534 58.074 35.8114 58.0164 35.7677 57.9623C35.5289 56.9464 35.5995 55.6495 35.5995 54.9266C35.6616 53.1095 35.8873 51.3018 36.2738 49.5257C36.3411 49.2006 36.4106 48.8761 36.4823 48.5522L36.5916 48.7046C36.6387 48.7689 36.6824 48.8349 36.7312 48.8976C36.78 48.9602 36.8237 49.0279 36.8708 49.0906C36.9178 49.1532 36.9632 49.2209 37.0103 49.2836C37.0574 49.3462 37.1028 49.414 37.1516 49.4766C37.2003 49.5392 37.2424 49.607 37.2911 49.6713C37.3399 49.7356 37.3819 49.8017 37.4307 49.8643C37.4795 49.927 37.5215 49.9947 37.5703 50.0573C37.619 50.12 37.6611 50.1877 37.7098 50.2503C37.7586 50.313 37.8006 50.3807 37.8494 50.4433C37.8982 50.506 37.9402 50.5737 37.989 50.6364C38.0377 50.699 38.0798 50.7684 38.1285 50.8311C38.6247 51.5337 39.2556 52.1291 39.9839 52.5825C40.7122 53.0358 41.5233 53.3377 42.3693 53.4705C44.298 53.7939 45.8888 52.1161 47.0776 50.809C47.6443 50.1911 48.1874 49.5477 48.7137 48.8925C48.7911 49.0076 48.8701 49.1227 48.9559 49.2311C49.0013 49.2954 49.0467 49.3615 49.0954 49.4241C49.1442 49.4868 49.1862 49.5545 49.235 49.6171C49.2838 49.6798 49.3258 49.7475 49.3745 49.8101C49.4233 49.8728 49.4654 49.9405 49.5141 50.0031C49.5629 50.0658 49.6049 50.1352 49.6537 50.1962C49.7024 50.2571 49.7445 50.3282 49.7932 50.3909C49.842 50.4535 49.8841 50.5212 49.9328 50.5839C49.9816 50.6465 50.0236 50.7142 50.0724 50.7769C50.1211 50.8395 50.1632 50.9072 50.2119 50.9699C50.2607 51.0325 50.3027 51.1003 50.3515 51.1629C50.4003 51.2255 50.4423 51.295 50.4911 51.3576C50.5398 51.4202 50.5819 51.488 50.6306 51.5506C50.6794 51.6133 50.7215 51.681 50.7702 51.7436C50.819 51.8063 50.861 51.874 50.9098 51.9366C50.9585 51.9993 51.0006 52.067 51.0493 52.1296C51.9944 53.4418 53.4337 54.3662 55.5272 54.5964C58.3135 54.9029 60.2086 52.1449 61.5118 50.0556C61.6429 49.8457 61.7657 49.6324 61.8918 49.4207C62.2432 50.3278 62.7162 51.1823 63.2976 51.9603C63.343 52.0264 63.39 52.0907 63.4371 52.1533C63.4842 52.216 63.5296 52.2837 63.5767 52.348L63.7163 52.5411L63.8558 52.7341L63.9954 52.9271C64.0425 52.9931 64.0879 53.0574 64.1349 53.1201C64.182 53.1827 64.2274 53.2505 64.2745 53.3131L64.4141 53.5078L64.5536 53.7008L64.6932 53.8938L64.8328 54.0868C64.8799 54.1529 64.9253 54.2172 64.9724 54.2798L65.1136 54.4745L65.2532 54.6675L65.3927 54.8606C65.7303 55.338 66.1012 55.7906 66.5025 56.215C66.2049 56.43 65.909 56.6484 65.618 56.8736C62.4232 59.3489 59.2838 62.5065 57.9049 66.4056C57.1869 68.4373 57.3332 70.5926 58.5237 72.1112C58.5691 72.1756 58.6145 72.2416 58.6633 72.3042C58.712 72.3669 58.7541 72.4346 58.8028 72.4972C58.8516 72.5599 58.8936 72.6276 58.9424 72.6903C58.9912 72.7529 59.0332 72.8206 59.082 72.8833C59.1307 72.9459 59.1728 73.0136 59.2215 73.078C59.2703 73.1423 59.3123 73.2083 59.3611 73.271C59.4099 73.3336 59.4519 73.4014 59.5007 73.464C59.5494 73.5266 59.5915 73.5944 59.6402 73.657C59.689 73.7197 59.731 73.7874 59.7798 73.85C59.8286 73.9127 59.8706 73.9804 59.9194 74.0447C59.9681 74.109 60.0102 74.1751 60.0589 74.2377C60.1077 74.3004 60.1497 74.3681 60.1985 74.4307C60.2473 74.4934 60.2893 74.5611 60.3381 74.6237C60.3868 74.6864 60.4289 74.7541 60.4793 74.8167C60.5298 74.8794 60.5684 74.9471 60.6189 75.0098C61.1962 75.8254 62.0069 76.4444 62.9427 76.7841C67.1583 78.3824 72.4904 76.4048 76.0199 74.0752C81.6665 70.3504 85.6652 64.5263 88.7844 58.5887C90.2456 58.5447 91.9961 58.5887 93.3917 59.1508C93.3399 60.1142 92.9653 61.0316 92.329 61.753C91.5505 62.5894 90.3112 63.0584 89.7143 64.1758C89.2451 65.0681 89.4469 65.9332 89.9715 66.6138C90.0152 66.6799 90.0623 66.7442 90.1111 66.8068C90.1599 66.8695 90.2019 66.9372 90.2507 66.9999C90.2994 67.0625 90.3415 67.1302 90.3902 67.1929C90.439 67.2555 90.481 67.3232 90.5298 67.3859C90.5786 67.4485 90.6206 67.5162 90.6694 67.5806C90.7181 67.6449 90.7602 67.7093 90.8089 67.7736C90.8577 67.8379 90.8997 67.904 90.9485 67.9666C90.9973 68.0292 91.0393 68.097 91.0881 68.1596C91.1368 68.2223 91.1789 68.29 91.2276 68.3526C91.2764 68.4153 91.3184 68.483 91.3672 68.5473C91.416 68.6117 91.458 68.676 91.5084 68.7403C91.5514 68.8072 91.598 68.8717 91.648 68.9333C91.69 68.9994 91.7388 69.0637 91.7876 69.1264C91.8363 69.189 91.8784 69.2567 91.9271 69.3194C91.9759 69.382 92.0179 69.4497 92.0667 69.5124C92.5222 70.1742 93.1855 70.6626 93.95 70.899C97.6796 72.0723 102.252 69.2449 104.375 66.3277C106.615 63.2548 106.743 58.8156 104.443 55.7359L104.389 55.6698C104.359 55.6275 104.333 55.5852 104.303 55.5429L104.249 55.4768C104.219 55.4345 104.194 55.3905 104.164 55.3499L104.11 55.2838C104.079 55.2415 104.054 55.1975 104.022 55.1568C103.99 55.1162 103.987 55.1128 103.97 55.0891C103.953 55.0654 103.915 55.0045 103.883 54.9638C103.851 54.9232 103.847 54.9198 103.831 54.8961C103.814 54.8724 103.775 54.8115 103.743 54.7708C103.711 54.7302 103.708 54.7268 103.689 54.7031C103.671 54.6794 103.636 54.6185 103.604 54.5761L103.55 54.5101C103.521 54.4678 103.496 54.4237 103.464 54.3831C103.432 54.3425 103.429 54.3391 103.41 54.3171C103.392 54.2951 103.355 54.2307 103.324 54.1901C103.294 54.1495 103.289 54.1461 103.271 54.1224C103.252 54.0987 103.215 54.0377 103.185 53.9971C103.155 53.9565 103.15 53.9531 103.131 53.9294C103.113 53.9057 103.076 53.8447 103.045 53.8041C103.015 53.7635 103.01 53.7601 102.992 53.7364C102.973 53.7127 102.936 53.6517 102.906 53.6094L102.852 53.5433C102.822 53.501 102.797 53.457 102.766 53.4164L102.712 53.3503C102.682 53.308 102.657 53.264 102.627 53.2234C102.596 53.1827 102.591 53.1793 102.573 53.1573C102.554 53.1353 102.517 53.071 102.487 53.0304C102.457 52.9897 102.45 52.9863 102.433 52.9626C102.416 52.9389 102.378 52.878 102.348 52.8373C102.317 52.7967 102.311 52.7933 102.294 52.7696C102.277 52.7459 102.238 52.685 102.208 52.6443C102.178 52.6037 102.176 52.6037 102.159 52.5834C102.746 52.4254 103.311 52.1932 103.841 51.8926C106.756 50.2334 108.914 47.2502 110.752 44.5159C113.175 40.9114 115.201 37.0376 117.089 33.1266C117.468 32.3428 117.836 31.5538 118.201 30.7563C118.236 30.8071 118.272 30.8562 118.309 30.9036C118.346 30.951 118.401 31.0357 118.448 31.0966C118.495 31.1576 118.541 31.2287 118.588 31.2914C118.635 31.354 118.68 31.4217 118.727 31.4844C118.774 31.547 118.82 31.6147 118.867 31.6774C118.914 31.74 118.959 31.8077 119.006 31.8704C119.053 31.933 119.099 32.0024 119.148 32.0634C119.196 32.1243 119.238 32.1955 119.287 32.2581C119.336 32.3207 119.378 32.3885 119.427 32.4511C119.476 32.5137 119.518 32.5815 119.566 32.6441C119.615 32.7068 119.657 32.7745 119.706 32.8371C119.755 32.8998 119.797 32.9675 119.845 33.0301C119.889 33.0968 119.935 33.1612 119.985 33.2231C120.03 33.2909 120.076 33.3552 120.125 33.4178L120.17 33.4839C118.816 37.1917 117.542 40.9334 116.521 44.7462C115.5 48.559 114.579 52.6917 117.059 56.0457C117.105 56.1117 117.152 56.1761 117.199 56.2404L117.338 56.4334L117.491 56.6366L117.631 56.8296L117.77 57.0226C117.816 57.0886 117.863 57.153 117.91 57.2156C117.957 57.2783 118.003 57.346 118.05 57.4103C118.097 57.4747 118.142 57.539 118.191 57.6033C118.24 57.6677 118.282 57.732 118.33 57.7963C118.379 57.8607 118.421 57.925 118.47 57.9893C118.519 58.0537 118.561 58.118 118.61 58.1824C118.658 58.2467 118.7 58.3127 118.749 58.3771C118.798 58.4414 118.84 58.5057 118.889 58.5701L119.028 58.7631L119.168 58.9561C119.342 59.2081 119.53 59.45 119.731 59.6807C121.404 61.5939 123.99 62.6317 126.479 62.8112C127.231 62.8637 128.129 62.8586 128.788 62.4387C129.825 61.7784 129.874 60.5137 129.18 59.6807C129.139 59.6222 129.095 59.5657 129.048 59.5114C129.005 59.4441 128.959 59.3791 128.909 59.3167C128.865 59.2507 128.82 59.1863 128.769 59.1237C128.726 59.0568 128.679 58.9924 128.628 58.9307C128.586 58.8634 128.539 58.7989 128.488 58.7377C128.447 58.6701 128.4 58.6056 128.349 58.5447C128.307 58.4768 128.261 58.4123 128.209 58.3517C128.167 58.2839 128.12 58.2189 128.07 58.157C128.033 58.0994 127.991 58.0418 127.947 57.9877C127.708 56.9718 127.779 55.6732 127.787 54.952C127.843 53.1297 128.063 51.3163 128.445 49.5342C128.924 47.1842 129.538 44.863 130.212 42.5621C130.467 43.7129 130.964 44.7953 131.67 45.7366C131.715 45.8009 131.761 45.867 131.809 45.9296C131.858 45.9923 131.9 46.06 131.949 46.1226C131.998 46.1853 132.04 46.253 132.089 46.3156C132.137 46.3783 132.179 46.446 132.228 46.5087C132.277 46.5713 132.319 46.639 132.368 46.7034C132.417 46.7677 132.459 46.8337 132.507 46.8964C132.556 46.959 132.598 47.0267 132.647 47.0894C132.696 47.152 132.738 47.2197 132.786 47.2824C132.835 47.345 132.877 47.4128 132.926 47.4754C132.975 47.538 133.017 47.6058 133.066 47.6701C133.114 47.7344 133.156 47.7988 133.205 47.8631C133.254 47.9274 133.296 47.9935 133.345 48.0561C133.393 48.1188 133.436 48.1865 133.484 48.2491C133.533 48.3118 133.575 48.3795 133.624 48.4421C133.673 48.5048 133.716 48.5725 133.765 48.6368C133.901 48.8265 134.044 49.0127 134.201 49.1905C136.156 51.3881 139.733 52.1127 142.457 51.1189C144.09 50.5246 145.46 49.4969 146.619 48.2288C146.77 48.4749 146.938 48.7232 147.123 48.9738L147.263 49.1668L147.402 49.3598L147.542 49.5528L147.681 49.7475L147.821 49.9405L147.96 50.1335C148.005 50.1979 148.052 50.2622 148.102 50.3265C148.145 50.3909 148.193 50.4552 148.241 50.5195C148.29 50.5839 148.332 50.6482 148.381 50.7125C148.43 50.7769 148.472 50.8429 148.52 50.9072C148.569 50.9716 148.611 51.0359 148.66 51.1003C148.709 51.1646 148.751 51.2289 148.8 51.2933L148.939 51.4863L149.079 51.6793L149.218 51.874C150.817 54.1461 153.747 56.4673 156.272 55.0536C157.981 54.097 157.887 52.2228 157.723 50.5331C157.752 50.8311 157.712 50.0624 157.713 49.9524C157.713 49.6459 157.735 49.3395 157.767 49.0347C157.825 48.537 157.908 48.0425 158.016 47.5533C158.033 47.5787 158.053 47.6024 158.07 47.6261C158.115 47.6921 158.162 47.7548 158.209 47.8191C158.256 47.8834 158.302 47.9478 158.349 48.0121C158.396 48.0764 158.441 48.1425 158.49 48.2051C158.539 48.2678 158.581 48.3355 158.63 48.3998C158.678 48.4641 158.721 48.5285 158.769 48.5928C158.818 48.6572 158.86 48.7215 158.909 48.7858C158.958 48.8502 159.001 48.9145 159.048 48.9788C159.096 49.0432 159.141 49.1092 159.188 49.1718C159.235 49.2345 159.28 49.3022 159.328 49.3666C159.375 49.4309 159.42 49.4952 159.467 49.5596C159.514 49.6239 159.56 49.6882 159.607 49.7526C159.654 49.8169 159.699 49.8812 159.746 49.9456C159.793 50.0099 159.839 50.0759 159.886 50.1386C160.373 50.8491 160.995 51.456 161.715 51.9248C162.248 52.285 162.834 52.5566 163.452 52.729C163.261 53.9141 163.284 55.0993 163.691 56.2235C163.849 56.6633 164.073 57.0766 164.354 57.4493C164.399 57.5153 164.446 57.5796 164.493 57.6423C164.54 57.7049 164.586 57.7726 164.633 57.8353C164.68 57.8979 164.725 57.9656 164.774 58.0283C164.823 58.0909 164.865 58.1587 164.914 58.2213C164.962 58.2839 165.004 58.3517 165.053 58.416C165.102 58.4803 165.144 58.5464 165.193 58.609C165.241 58.6717 165.284 58.7394 165.332 58.802C165.381 58.8647 165.423 58.9324 165.472 58.995C165.521 59.0577 165.563 59.1254 165.611 59.188C165.66 59.2507 165.702 59.3184 165.751 59.3827C165.8 59.4471 165.842 59.5131 165.891 59.5757C165.939 59.6384 165.981 59.7061 166.03 59.7688C166.079 59.8314 166.123 59.8991 166.17 59.9618C166.217 60.0244 166.262 60.0921 166.309 60.1548C166.356 60.2174 166.402 60.2851 166.449 60.3478C167.949 62.564 171.06 62.84 173.602 62.4574C177.459 61.8766 180.866 59.4454 183.106 56.2929C184.333 54.5791 185.115 52.5833 185.379 50.4874C185.664 48.1171 184.983 45.9161 184.066 43.7625C183.251 41.8426 182.164 40.1055 181.039 38.3582C180.311 37.2239 179.487 36.076 179.563 34.6724C179.812 32.5087 181.73 32.1785 182.834 30.6344C183.674 29.4578 183.4 28.2269 182.649 27.2483C182.605 27.184 182.558 27.1196 182.509 27.0553C182.46 26.991 182.418 26.9249 182.369 26.8623C182.321 26.7996 182.279 26.7319 182.23 26.6693C182.181 26.6066 182.139 26.5389 182.09 26.4763C182.042 26.4136 182 26.3459 181.951 26.2816C181.902 26.2172 181.86 26.1529 181.811 26.0886C181.762 26.0242 181.72 25.9582 181.672 25.8955C181.623 25.8329 181.581 25.7652 181.532 25.7025C181.483 25.6399 181.441 25.5722 181.393 25.5095C181.344 25.4469 181.302 25.3792 181.253 25.3148C181.204 25.2505 181.162 25.1861 181.113 25.1218C181.065 25.0575 181.023 24.9931 180.974 24.9288C180.925 24.8645 180.881 24.7984 180.834 24.7358C180.787 24.6731 180.742 24.6054 180.695 24.5428C180.648 24.4801 180.602 24.4124 180.555 24.3498C179.903 23.4341 178.978 22.7525 177.913 22.4044C176.706 22.0201 175.727 22.1606 174.925 22.6093C174.885 22.5517 174.843 22.4959 174.801 22.44C174.759 22.3841 174.708 22.3096 174.66 22.2453C174.611 22.181 174.569 22.1166 174.52 22.0523C174.471 21.9879 174.429 21.9219 174.381 21.8593C174.332 21.7966 174.29 21.7289 174.241 21.6663C174.192 21.6036 174.15 21.5359 174.101 21.4733C174.053 21.4106 174.011 21.3429 173.962 21.2802C173.913 21.2176 173.871 21.1499 173.822 21.0855C173.774 21.0212 173.731 20.9569 173.683 20.8925C173.634 20.8282 173.592 20.7622 173.543 20.6995C173.494 20.6369 173.452 20.5692 173.404 20.5065C173.355 20.4439 173.313 20.3761 173.264 20.3135C173.215 20.2509 173.173 20.1831 173.124 20.1188C173.076 20.0545 173.034 19.9901 172.985 19.9258C172.744 19.5656 172.445 19.2481 172.1 18.9861C173.761 18.6297 175.44 18.3685 177.13 18.2039C179.608 17.9838 182.485 17.7468 184.865 18.7119C184.971 18.7559 185.068 18.7999 185.164 18.8456C185.25 19.1673 185.332 19.511 185.45 19.8767C185.589 20.2337 185.778 20.5689 186.012 20.8722C186.055 20.9393 186.102 21.0037 186.153 21.0652C186.195 21.1327 186.242 21.1972 186.292 21.2582C186.335 21.3253 186.382 21.3897 186.432 21.4512C186.475 21.5186 186.522 21.5836 186.572 21.6459C186.615 21.7127 186.661 21.7772 186.711 21.839L186.711 21.8391C186.92 22.1281 186.92 22.1281 187.129 22.4171L187.13 22.418C187.173 22.4853 187.22 22.5503 187.269 22.6127C187.312 22.6795 187.359 22.7439 187.409 22.8057C187.452 22.8728 187.498 22.9372 187.549 22.9987C187.592 23.0654 187.638 23.1298 187.688 23.1917L187.688 23.1924C187.828 23.3856 187.828 23.3857 187.968 23.5789C188.52 24.4327 189.565 24.8069 190.558 24.2092C191.44 23.6793 191.887 22.6567 192.216 21.7289C193.138 19.1165 193.266 15.9064 192.509 13.2399ZM152.687 25.4841C152.556 25.7514 152.406 26.0088 152.238 26.2545C151.996 25.44 151.609 24.6765 151.097 24.001C151.051 23.9367 151.006 23.8706 150.957 23.808C150.908 23.7453 150.866 23.6776 150.817 23.615C150.769 23.5523 150.727 23.4829 150.678 23.422C150.629 23.361 150.587 23.2899 150.538 23.2273C150.489 23.1646 150.447 23.0969 150.399 23.0343C150.35 22.9716 150.308 22.9039 150.259 22.8413C150.21 22.7786 150.168 22.7109 150.12 22.6482L150.086 22.5991C151.391 22.6291 152.697 22.5839 153.997 22.4637C153.59 23.4863 153.16 24.4988 152.687 25.4841ZM138.879 17.9093C139.129 17.2694 139.383 16.6311 139.637 15.9928L139.721 16.1045C139.766 16.1706 139.814 16.2332 139.861 16.2975C139.908 16.3619 139.953 16.4262 140 16.4906C140.047 16.5549 140.093 16.6209 140.14 16.6853L140.279 16.8783L140.419 17.0713C140.464 17.1373 140.511 17.1999 140.558 17.2643C140.606 17.3286 140.651 17.393 140.698 17.4573C140.745 17.5216 140.79 17.5877 140.838 17.6503C140.885 17.7129 140.93 17.7807 140.977 17.845L141.117 18.038L141.256 18.231C141.302 18.2971 141.349 18.3597 141.396 18.424C141.443 18.4884 141.488 18.5527 141.535 18.617C141.582 18.6814 141.628 18.7474 141.675 18.8117C141.722 18.8761 141.769 18.9404 141.816 19.0048C141.885 19.1047 141.957 19.2028 142.031 19.301C138.561 20.5099 136.292 24.3396 135.736 28.0779C135.485 28.0871 135.236 28.1154 134.989 28.1626C136.24 24.7239 137.545 21.309 138.879 17.906V17.9093ZM159.27 7.09572C159.348 7.62903 159.27 7.14312 159.27 7.07879V7.09572Z" fill="black"/>
<path d="M47.2848 3.37593C47.0696 4.02268 39.1311 22.7108 34.6869 37.3439C33.3417 41.7849 32.3159 45.8533 31.9241 48.9296C31.3659 53.7091 31.8468 56.7177 33.4224 57.6015C34.998 58.4853 25.5007 58.7714 24.9425 51.4608C24.7592 49.0312 26.2978 43.5643 28.4367 37.3439C32.6573 25.0777 39.1984 9.88577 39.4574 9.29828C39.1026 9.95011 28.9647 28.5518 27.9389 29.8707C26.9132 31.1896 25.8135 23.9839 25.7984 22.2519C25.7832 20.5199 30.5285 7.86086 30.2493 7.86086C30.0677 7.86086 23.9571 25.4129 16.9384 37.3304C13.1853 43.7031 9.17484 48.464 5.67223 48.0729C1.43816 47.6006 0.96397 42.7347 2.53115 37.3304C4.68181 29.8961 10.6714 21.4325 16.0052 21.9235C19.6373 22.4856 12.6539 34.2947 11.5374 33.7326C10.4209 33.1705 16.8443 25.8599 14.8887 25.0167C13.5014 24.4174 8.03309 32.175 6.97373 37.3321C6.54158 39.4434 6.84593 41.1178 8.46524 41.6071C9.74488 41.9914 11.5626 40.2526 13.5956 37.3321C20.4579 27.4649 29.7768 4.03792 29.1328 2.51923C28.2921 0.551889 35.8354 2.23818 34.9963 5.33142C34.1572 8.42465 30.5285 20.2304 30.2493 21.6407C29.9702 23.0511 40.3032 3.92617 41.7005 2.51923C43.0979 1.11229 47.564 2.53108 47.2848 3.37593Z" fill="#90EC00"/>
<path d="M139.447 3.37593C139.232 4.02268 131.293 22.7108 126.849 37.3439C125.504 41.7849 124.478 45.8533 124.086 48.9296C123.528 53.7091 124.009 56.7177 125.584 57.6015C127.16 58.4853 117.659 58.7714 117.105 51.4608C116.921 49.0312 118.46 43.5643 120.599 37.3439C124.819 25.0777 131.361 9.88577 131.619 9.29828C131.265 9.95011 121.127 28.5518 120.101 29.8707C119.075 31.1896 117.976 23.9839 117.959 22.2519C117.942 20.5199 122.691 7.86086 122.411 7.86086C122.23 7.86086 116.119 25.4129 109.101 37.3304C105.347 43.7031 101.337 48.464 97.8343 48.0729C93.6003 47.6006 93.1261 42.7347 94.6933 37.3304C96.8439 29.8961 102.834 21.4325 108.167 21.9235C111.799 22.4856 104.816 34.2947 103.699 33.7326C102.583 33.1705 109.006 25.8599 107.051 25.0167C105.664 24.4174 100.195 32.175 99.1358 37.3321C98.7037 39.4434 99.008 41.1178 100.627 41.6071C101.907 41.9914 103.725 40.2526 105.758 37.3321C112.62 27.4649 121.939 4.03792 121.295 2.51923C120.454 0.551889 127.997 2.23818 127.158 5.33142C126.319 8.42465 122.691 20.2304 122.411 21.6407C122.132 23.0511 132.465 3.92617 133.863 2.51923C135.26 1.11229 139.726 2.53108 139.447 3.37593Z" fill="#90EC00"/>
<path d="M78.4627 34.6809L78.0255 37.3441L77.6287 39.7347C77.6287 39.7347 76.7325 41.4633 75.5134 43.71C73.3997 47.6142 70.3141 53.0794 69.2497 53.7939C67.5682 54.9198 62.5471 49.8575 63.1054 46.2022C63.4821 43.7269 64.7583 40.2206 65.7958 37.3441C66.3003 35.9693 66.7392 34.7384 67.0099 33.8292C67.8507 31.0171 64.7768 30.1739 64.7768 30.1739C64.7768 30.1739 63.6906 33.4585 62.0982 37.3441C59.744 43.1005 56.2751 50.1928 53.6048 49.8575C46.0649 49.011 49.9156 38.1263 49.9156 38.1263C49.9156 38.1263 42.7136 49.3005 40.4789 48.7333C36.5155 47.9342 34.3817 43.0361 36.6635 37.3441C37.6001 35.011 39.2782 32.5442 41.8762 30.1739C50.8118 22.0184 57.7952 35.5172 52.7674 32.705C49.9374 30.9646 46.2263 34.029 43.8184 37.3441C41.9485 39.9226 40.8639 42.6535 41.5954 43.39C42.6884 44.4888 45.7992 40.4458 47.9852 37.3441C49.1521 35.6916 50.0551 34.3067 50.2502 34.1103C50.8084 33.5482 57.2319 34.6724 56.1237 36.3959C55.9673 36.6414 55.7639 36.9648 55.5352 37.3441C54.1748 39.6195 52.004 43.8708 54.1597 45.078C55.3755 45.7552 57.6321 41.7088 59.6432 37.3441C61.7905 32.6729 63.6553 27.6428 63.6553 27.6428C64.7735 23.9874 65.6109 20.0511 64.6003 19.2062C63.5897 18.3614 68.1315 17.5131 69.2413 19.2062C70.3511 20.8993 67.5598 23.9874 67.5598 26.5186C67.5598 29.0497 73.704 31.8602 72.8229 34.9314C72.6548 35.5172 72.3437 36.357 71.9553 37.3441C70.3275 41.5378 67.3815 48.3304 68.9706 49.0178C70.0989 49.5037 73.0903 44.648 75.4158 40.4542C76.0397 39.3334 76.6147 38.2532 77.0973 37.3474C77.1528 37.2408 77.205 37.1375 77.2554 37.0359C77.9583 35.6933 78.4157 34.774 78.4627 34.6809Z" fill="#90EC00"/>
<path d="M87.1889 50.3435C89.0601 46.1233 90.6449 41.7802 91.9325 37.3441C92.7194 34.6504 93.1583 32.7355 93.2777 32.143C93.836 29.3308 88.5291 27.9238 88.25 29.6118C88.107 30.477 87.0073 34.0765 85.6688 37.3441C84.401 40.4458 82.9162 43.2461 81.8266 43.109C80.71 42.9684 81.3372 40.2308 82.3159 37.3441C83.2945 34.4574 84.6196 31.4386 84.8987 30.7411C85.457 29.3359 80.9892 28.491 80.1518 29.8946C79.6591 30.7174 78.3021 34.2475 77.2696 37.0258C77.2343 37.1291 77.194 37.234 77.1553 37.3373C76.4827 39.1506 75.9681 40.5711 75.9681 40.5711C75.5908 41.5689 75.4408 42.6393 75.5293 43.7032C75.7243 46.3224 77.3033 48.6114 79.3043 49.0178C82.0973 49.5799 85.1694 43.1124 86.5668 40.0191C85.6722 42.8973 83.8881 46.8219 81.6903 50.8277C82.6 50.7244 83.7855 50.7024 85.0332 50.6685C84.1925 50.7295 82.5429 51.1256 81.3574 51.4304L81.349 51.4439C80.9387 51.5455 80.52 51.6522 80.0963 51.7639L80.0038 51.7893C79.4993 51.9214 78.9865 52.0653 78.4618 52.2177C60.5873 57.3866 51.3708 75.45 67.2915 72.0757C75.3224 70.0237 81.3154 62.1069 85.5141 53.8464C90.4797 53.5417 94.512 54.8724 94.9391 58.0164C95.7798 64.2029 89.353 64.2029 91.5878 65.8892C93.8225 67.5755 101.921 64.484 102.2 58.2975C102.435 53.2504 98.3879 48.9501 87.1889 50.3435ZM78.0784 56.9024C78.0599 56.9329 78.0398 56.9633 78.0196 56.9938C77.9994 57.0243 77.9893 57.0429 77.9725 57.0649C73.9907 63.1955 69.5935 68.273 66.7366 68.417C61.1517 68.698 62.5485 65.6048 70.9269 59.1372C73.0406 57.5068 75.5629 56.2319 78.1676 55.338L78.2012 55.3262H78.2264C78.5779 55.2059 78.9327 55.0942 79.2875 54.9875C80.6097 54.5903 81.9583 54.2882 83.3231 54.0834C83.3349 54.0843 83.3467 54.0843 83.3584 54.0834C80.3771 54.8961 78.6703 56.0322 78.0784 56.9024Z" fill="#90EC00"/>
<path d="M157.512 24.5494L156.954 22.582C156.954 22.582 155.738 24.4342 154.004 26.686C152.373 28.804 150.285 31.2759 148.312 32.8928C149.703 26.4896 148.835 20.3404 144.386 20.613C139.721 20.916 137.165 25.6245 137.283 29.9486C136.138 29.5947 134.795 29.5829 134.053 30.4565C133.353 31.2742 132.17 34.1965 131.734 37.3456C131.125 41.7476 131.983 46.6033 137.683 46.7658C141.637 46.8792 144.996 42.5331 146.982 37.3456C147.065 37.1373 147.142 36.9274 147.218 36.7158C147.991 36.464 148.732 36.1231 149.427 35.6999C149.763 35.4934 150.1 35.2716 150.413 35.0362L150.446 35.0125L150.633 34.8703C150.633 34.8703 150.633 34.8618 150.633 34.8568C151.719 33.9242 152.586 32.7608 153.172 31.4503C153.355 31.5739 153.296 31.9582 153.073 32.4882C156.101 28.8802 157.512 24.5494 157.512 24.5494ZM146.061 24.5494C146.816 25.1826 145.928 29.1816 144.366 33.3093C144.564 33.8714 145.059 34.723 146.2 34.5317C144.519 35.3782 143.352 34.0509 143.352 34.0509C140.3 31.3657 144.453 23.2051 146.052 24.5494H146.061ZM142.193 38.182C140.606 41.1939 138.83 43.4186 137.401 43.1088C135.408 42.6804 135.518 39.9901 136.289 37.3439C136.699 35.9349 137.263 34.576 137.971 33.2924C138.726 35.0498 140.095 36.4381 142.141 36.9697L142.17 36.9782L142.222 36.99C142.292 37.007 142.407 37.0324 142.558 37.0578C143.607 37.2258 144.675 37.2321 145.726 37.0764C145.63 37.1777 145.522 37.2674 145.405 37.3439C144.606 37.8874 143.169 38.1701 142.188 38.182H142.193Z" fill="#90EC00"/>
<path d="M167.273 9.20171C167.266 9.73463 167.173 10.2629 166.999 10.7661C166.663 11.7633 166.044 13.2972 165.237 15.1918C163.673 15.5626 162.067 15.9452 160.377 16.3024C160.713 16.255 164.986 15.6388 164.687 16.4717C162.213 22.2197 158.507 30.4988 156.125 37.3168C154.527 41.8881 153.522 45.8008 153.88 47.8612C154.996 54.3287 145.222 48.144 147.456 42.5196C147.87 41.4784 148.633 39.66 149.578 37.371C149.595 37.354 149.615 37.3371 149.632 37.3168C150.893 36.0859 152.516 33.7986 153.083 32.4492C153.306 31.921 153.365 31.535 153.182 31.4114C152.596 32.7219 151.729 33.8853 150.643 34.8178C151.674 32.3375 152.837 29.5253 154.006 26.6589C155.375 23.2914 156.745 19.846 157.902 16.7748C158.751 14.523 159.483 12.4727 160.016 10.8C160.745 8.51432 161.099 6.93977 160.865 6.52666C159.96 4.93179 165.839 4.81328 167.06 7.96915C167.216 8.94436 163.924 9.9365 163.718 10.0008L167.273 9.20171Z" fill="#90EC00"/>
<path d="M187.665 19.4888C185.983 21.1819 189.062 13.5834 179.008 13.3024C174.419 13.172 170.468 13.9796 166.309 14.9531L165.233 15.2054C163.669 15.5762 162.064 15.9588 160.374 16.316H160.355C159.553 16.4853 158.734 16.6546 157.892 16.7986C154.995 17.3319 152.066 17.6656 149.124 17.7975C136.277 18.3629 140.192 7.11589 141.033 5.70895C141.873 4.30201 141.033 11.6144 148.573 12.1765C151.431 12.3915 155.516 11.7583 160.007 10.822C161.219 10.5714 162.457 10.3022 163.706 10.0178C164.883 9.75369 166.081 9.47772 167.271 9.20175C172.538 7.97936 177.772 6.74511 181.8 6.26597C191.297 5.14685 189.341 17.8008 187.665 19.4888Z" fill="#90EC00"/>
<path d="M170.628 20.0511C168.161 19.3062 163.646 26.5186 167.835 27.9239C172.023 29.3291 173.422 20.8943 170.628 20.0511Z" fill="#90EC00"/>
<path d="M168.116 57.7319C160.576 56.606 168.956 43.3899 170.909 43.671C172.861 43.952 165.883 50.7006 168.674 52.1075C171.465 53.5145 174.818 49.5679 174.539 44.5141C174.381 41.6495 173.33 39.0574 172.442 37.344C172.073 36.6126 171.654 35.9078 171.188 35.2344C171.188 35.2344 170.831 36.081 170.238 37.344C168.504 41.0687 164.754 48.3811 162.25 48.1712C157.374 47.0622 157.638 41.9356 159.034 37.344C160.117 33.7885 161.879 30.5497 162.457 29.7523C163.779 27.9238 168.679 30.4549 167.418 31.5791C166.725 32.2005 165.136 34.8806 164.223 37.344C163.488 39.3435 163.201 41.1991 164.201 41.7036C164.988 42.0998 166.404 40.1138 167.991 37.344C170.899 32.2648 174.381 24.5495 175.635 24.0382C177.573 23.2475 180.12 25.3926 179.283 26.5185C178.445 27.6444 175.931 28.2116 175.652 31.5791C175.492 33.5177 176.713 35.0837 178.151 37.344C179.219 39.0201 180.404 41.0789 181.237 43.947C183.197 50.7006 175.657 58.8561 168.116 57.7319Z" fill="#90EC00"/>
<path d="M190.458 12.1765C190.414 15.1953 190.702 18.9488 188.776 21.4562C191.331 19.5583 191.226 14.9701 190.458 12.1765Z" fill="white"/>
<path d="M183.476 16.3957C179.558 13.702 170.812 15.7066 166.58 17.2422C171.014 16.4397 179.457 14.4487 183.476 16.3957Z" fill="white"/>
<path d="M165.314 18.7524C162.925 23.217 160.819 27.8291 159.008 32.5611C157.538 36.5669 156.077 40.6658 155.719 44.951C155.66 45.7426 155.696 46.5384 155.826 47.3213C155.658 44.7817 156.391 42.3199 157.061 39.9056C159.285 32.6661 162.344 25.7143 165.314 18.7524Z" fill="white"/>
<path d="M167.096 44.8138C166.449 45.9279 165.776 47.0284 165.042 48.0764C164.48 48.8366 163.918 49.6475 163.105 50.1436C162.973 50.2298 162.824 50.2826 162.668 50.2973C162.512 50.3121 162.355 50.2884 162.21 50.2283C162.346 50.3262 162.509 50.38 162.676 50.3823C165.677 50.0793 169.953 40.8097 170.915 38.0466C169.619 40.2967 168.406 42.5841 167.096 44.8138Z" fill="white"/>
<path d="M164.764 40.0155C164.942 38.6357 165.705 37.4319 166.277 36.1892C166.896 34.9482 167.548 33.7224 168.108 32.4238C166.694 34.0526 164.323 37.8162 164.764 40.0155Z" fill="white"/>
<path d="M169.526 28.9988C169.154 29.0747 168.772 29.0918 168.395 29.0496C168.763 29.2074 169.161 29.2831 169.562 29.2714C172.42 29.0005 173.348 24.8424 173.289 22.4602C172.664 24.5867 171.956 28.3724 169.526 28.9988Z" fill="white"/>
<path d="M180.125 28.2048C177.549 29.351 176.044 32.6542 178.169 34.9534C176.913 32.2428 178.127 30.0926 180.125 28.2048Z" fill="white"/>
<path d="M181.932 53.2029C180.547 56.3198 177.678 58.5276 174.453 59.4859C172.329 60.0615 169.887 60.4492 167.836 59.4182C168.788 60.0954 169.993 60.2647 171.132 60.3155C174.611 60.39 178.135 58.9864 180.511 56.3791C183.558 52.9473 184.695 47.3635 182.08 43.3899C183.694 46.412 183.432 50.1926 181.932 53.2029Z" fill="white"/>
<path d="M138.394 48.4675C137.73 48.438 137.072 48.3242 136.437 48.1289C137.045 48.4373 137.699 48.6448 138.374 48.7435C143.383 49.2413 146.497 43.263 147.533 39.093C145.88 42.8432 143.089 48.5234 138.394 48.4675Z" fill="white"/>
<path d="M147.527 20.481C147.16 20.2627 146.763 20.0996 146.35 19.9968C146.707 20.2015 147.044 20.4383 147.359 20.7045C149.513 22.6702 150.049 25.7194 150.515 28.4926C150.785 25.6263 150.056 22.1538 147.527 20.481Z" fill="white"/>
<path d="M144.935 25.9565C143.311 27.7427 141.841 31.1881 143.645 33.2926C142.643 30.8021 144 28.2523 144.935 25.9565Z" fill="white"/>
<path d="M137.954 35.2344C137.031 36.88 136.365 38.8101 136.666 40.7233C136.769 41.3548 137.256 42.0862 137.954 42.0557C136.738 41.5241 137.096 39.9326 137.223 38.8745C137.413 37.6538 137.727 36.4602 137.954 35.2344Z" fill="white"/>
<path d="M128.124 38.0128C126.868 42.6044 125.576 47.3246 125.681 52.1194C125.735 53.0743 125.864 54.0495 126.284 54.913C125.921 54.0258 125.846 53.0607 125.829 52.116C125.861 49.2581 126.459 46.4425 127.12 43.671C128.026 39.9716 129.126 36.3197 130.332 32.7033C132.699 25.4502 135.402 18.3122 138.142 11.1912C134.231 19.8969 130.786 28.8397 128.124 38.0128Z" fill="white"/>
<path d="M128.179 4.30371C128.347 5.31109 127.966 6.30323 127.725 7.26997C127.441 8.24179 127.133 9.20683 126.809 10.1702C126.247 11.8751 125.408 14.286 124.917 15.9893C126.224 13.6325 129.134 6.78067 128.179 4.30371Z" fill="white"/>
<path d="M121.651 29.3069L121.031 30.6004C120.814 31.022 120.653 31.4893 120.358 31.8601C120.742 31.5655 120.987 31.127 121.268 30.7393C122.052 29.5307 122.77 28.2806 123.42 26.9942C124.307 25.2907 125.084 23.532 125.748 21.7288C124.201 24.1549 122.908 26.7233 121.651 29.3069Z" fill="white"/>
<path d="M102.157 48.5352C101.113 49.2666 99.911 49.8118 98.6162 49.9151C106.762 49.761 114.312 32.7034 116.666 25.8972C113.518 32.7795 108.243 44.1874 102.157 48.5352Z" fill="white"/>
<path d="M107.14 31.3877C108.738 29.5508 110.101 27.3498 110.352 24.8677C110.411 23.9044 110.374 22.8022 109.747 22.0183C110.863 24.9693 108.499 28.7906 106.923 31.2167C106.651 31.6129 106.375 32.0091 106.116 32.4239C106.468 32.087 106.802 31.7382 107.14 31.3877Z" fill="white"/>
<path d="M100.809 40.5778C100.563 40.3908 100.367 40.1461 100.237 39.865C99.045 37.0427 103.921 29.8861 105.401 27.2212C103.266 29.6592 98.3606 36.7379 100.101 39.9412C100.277 40.213 100.521 40.4327 100.809 40.5778Z" fill="white"/>
<path d="M91.1987 42.9329C90.5715 44.8884 90.1259 46.9522 89.0732 48.7333C91.4829 45.9127 93.5192 36.8361 94.101 32.9878C93.124 36.059 92.1168 39.8329 91.1987 42.9329Z" fill="white"/>
<path d="M68.5051 74.3003C67.2865 74.6191 66.0394 74.8147 64.7822 74.8844C66.0523 74.9235 67.3227 74.8172 68.569 74.5678C77.2743 72.5852 83.4404 63.9861 86.5613 56.0439C82.7997 63.6238 76.9833 71.8945 68.5051 74.3003Z" fill="white"/>
<path d="M77.6289 56.325C72.3355 58.0316 67.6003 62.4556 64.5029 67.0099C68.3368 62.8348 72.5171 58.8578 77.6289 56.325Z" fill="white"/>
<path d="M99.2993 65.5386C97.6178 66.5833 95.7597 67.2537 93.873 67.8785C95.1967 67.6905 96.4944 67.3496 97.7405 66.8626C101.59 65.4455 104.951 61.802 103.597 57.4424C104.154 60.8319 102.136 63.8913 99.2993 65.5386Z" fill="white"/>
<path d="M83.861 36.5093C84.4209 34.9703 84.9977 33.4448 85.4433 31.8601C84.2007 33.9257 81.9878 38.7915 82.3712 41.1398C82.5881 39.5365 83.3565 38.0449 83.861 36.5093Z" fill="white"/>
<path d="M69.4094 54.7977C71.7988 53.5753 74.0958 49.5001 75.1148 47.0452C74.0857 48.4267 73.1541 49.8607 72.1654 51.2626C71.6811 51.9635 71.1817 52.6526 70.652 53.3146C70.1106 53.9343 69.596 54.6944 68.7637 54.9162C68.9853 54.9303 69.2069 54.8896 69.4094 54.7977Z" fill="white"/>
<path d="M69.8079 46.7643C69.9004 45.801 70.3696 44.9138 70.6823 44.0063C71.7064 41.3719 72.8935 38.4903 73.7191 35.7983C72.2812 38.3526 71.1242 41.0572 70.2687 43.8641C70.0316 44.8021 69.6667 45.7891 69.8079 46.7643Z" fill="white"/>
<path d="M55.5226 51.1881C55.103 51.4061 54.6408 51.528 54.1689 51.5453C54.6512 51.5886 55.1367 51.5125 55.5831 51.3235C60.51 49.0955 63.9907 37.5166 65.0618 32.4238C63.382 37.1932 59.8054 48.8314 55.5226 51.1881Z" fill="white"/>
<path d="M40.8711 50.6853C43.0285 51.9027 46.7346 46.517 47.466 44.7952C46.4336 45.9481 45.4801 47.1519 44.4477 48.293C43.6254 49.1294 42.149 51.0494 40.8711 50.6853Z" fill="white"/>
<path d="M42.1592 42.2657C44.1266 39.2893 47.7536 32.981 51.6547 32.986C47.4408 32.2563 43.464 38.8881 42.1592 42.2657Z" fill="white"/>
<path d="M54.4475 43.9519C54.3149 43.6839 54.2896 43.3748 54.3768 43.0885C54.5753 42.2098 54.9822 41.3954 55.3538 40.5692C55.8583 39.4619 56.4132 38.3682 56.8672 37.2034C55.6245 38.6222 53.7681 41.6206 54.1767 43.5541C54.2248 43.7113 54.3192 43.85 54.4475 43.9519Z" fill="white"/>
<path d="M70.3667 28.2049C70.1042 28.0499 69.8754 27.8431 69.6941 27.5971C68.6599 26.0361 70.1447 23.0918 70.6559 21.4563C69.3056 22.9818 67.4156 27.4379 70.3667 28.2049Z" fill="white"/>
<path d="M33.1172 51.8215C33.2332 52.905 33.4804 54.0225 34.1261 54.9164C33.5359 53.992 33.3509 52.8847 33.2702 51.8096C33.134 48.5437 33.8486 45.3116 34.6154 42.1591C35.6899 37.94 37.0469 33.7937 38.5317 29.6964C41.4659 21.4851 44.834 13.4295 48.303 5.4314C43.023 16.1519 32.2461 40.4474 33.1172 51.8215Z" fill="white"/>
<path d="M9.36985 49.6018C8.21632 50.2248 6.85765 50.4822 5.57129 50.1385C6.82907 50.6091 8.27013 50.411 9.48923 49.8506C16.3128 46.5136 22.0149 33.7039 24.5002 26.6912C21.5088 33.2721 15.6436 46.2055 9.36985 49.6018Z" fill="white"/>
<path d="M32.1055 17.5267C33.719 13.6199 34.973 9.57234 35.8519 5.43481C34.2391 9.34186 32.9851 13.3894 32.1055 17.5267Z" fill="white"/>
<path d="M27.917 31.2982C29.1479 29.8252 30.1265 28.1761 31.1203 26.5406C32.1038 24.9005 32.9926 23.2046 33.7821 21.4614C31.5104 24.536 29.6271 27.8765 27.917 31.2982Z" fill="white"/>
<path d="M17.5835 21.7373C18.5521 23.0918 17.7248 25.5366 17.1682 26.9503C16.4956 28.6433 15.601 30.2738 14.7132 31.8703C14.4542 32.3308 14.1936 32.7913 13.9531 33.2671C15.971 30.8155 17.7887 28.0017 18.3015 24.8018C18.4058 23.7639 18.4209 22.4856 17.5835 21.7373Z" fill="white"/>
<path d="M8.64657 40.2967C8.40225 40.1662 8.20466 39.9619 8.08158 39.7126C7.03735 37.4946 11.4345 30.5158 12.5561 28.1997C10.7653 30.3516 6.3782 37.0985 7.95042 39.7888C8.11785 40.0333 8.3636 40.2126 8.64657 40.2967Z" fill="white"/>
</g>
<defs>
<clipPath id="clip0_1311_568">
<rect width="193" height="77.3563" fill="white"/>
</clipPath>
</defs>
</svg>
