<?xml version="1.0" encoding="UTF-8"?>
<svg width="285px" height="30px" viewBox="0 0 285 30" version="1.1" xmlns="http://www.w3.org/2000/svg" xmlns:xlink="http://www.w3.org/1999/xlink">
    <title>lospatrones-logotipo-dark</title>
    <defs>
        <polygon id="path-1" points="0.0620745546 0.0594267516 21.1826688 0.0594267516 21.1826688 29.9999809 0.0620745546 29.9999809"></polygon>
        <polygon id="path-3" points="0.00500907435 0.0594458599 20.0149903 0.0594458599 20.0149903 30 0.00500907435 30"></polygon>
        <polygon id="path-5" points="0.0277970256 0.0594267516 24.8905667 0.0594267516 24.8905667 29.9999236 0.0277970256 29.9999236"></polygon>
        <polygon id="path-7" points="0.0400069565 0.0594267516 22.4158997 0.0594267516 22.4158997 29.9999236 0.0400069565 29.9999236"></polygon>
        <polygon id="path-9" points="0.0130812054 0.0594267516 21.1338637 0.0594267516 21.1338637 29.9999809 0.0130812054 29.9999809"></polygon>
        <polygon id="path-11" points="0.12159472 0.0594458599 26.1222107 0.0594458599 26.1222107 30 0.12159472 30"></polygon>
        <polygon id="path-13" points="0.0734548444 0.0594840764 22.4907834 0.0594840764 22.4907834 30 0.0734548444 30"></polygon>
        <polygon id="path-15" points="0.162869249 0.0595031847 26.2656269 0.0595031847 26.2656269 30 0.162869249 30"></polygon>
        <polygon id="path-17" points="0.043760867 0.0594267516 21.109207 0.0594267516 21.109207 29.9999427 0.043760867 29.9999427"></polygon>
        <polygon id="path-19" points="0.13143276 0.0594458599 26.1317611 0.0594458599 26.1317611 30 0.13143276 30"></polygon>
    </defs>
    <g id="Page-1" stroke="none" stroke-width="1" fill="none" fill-rule="evenodd">
        <g id="lospatrones-logotipo-dark">
            <g id="Group-3" transform="translate(262.105727, 0.000000)">
                <g id="Fill-1-Clipped">
                    <g>
                        <mask id="mask-2" fill="white">
                            <use xlink:href="#path-1"></use>
                        </mask>
                        <g id="path-1"></g>
                        <path d="M0.705782792,11.5532293 L0.705782792,5.43227389 C0.705782792,5.14469427 0.791986995,4.94998089 1.00392134,4.76042675 L5.99266018,0.284312102 C6.16845653,0.126477707 6.34312356,0.0594076433 6.57745594,0.0594076433 L15.3106193,0.0594076433 C15.5449516,0.0594076433 15.719054,0.126477707 15.8952268,0.284312102 C17.5581397,1.77628662 19.2210527,3.26845223 20.8835892,4.76042675 C21.0960882,4.94998089 21.1826688,5.14469427 21.1826688,5.43227389 L21.1826688,9.09953503 C21.1826688,9.59463057 20.787033,9.99590446 20.2987934,9.99590446 L17.8154348,9.99590446 C17.3281364,9.99590446 16.9325005,9.59463057 16.9325005,9.09953503 L16.9325005,7.26800637 C16.9325005,6.9766051 16.8436612,6.78093631 16.6262685,6.59023567 C15.8664293,5.9243121 15.1077194,5.25819745 14.3478802,4.59227389 C14.1732131,4.43978981 14.0011812,4.37443949 13.7706132,4.37443949 L8.11727381,4.37443949 C7.8867058,4.37443949 7.71429739,4.43978981 7.53963036,4.59227389 C6.78035579,5.25819745 6.02108122,5.9243121 5.26161843,6.59023567 C5.0438493,6.78093631 4.95557469,6.9766051 4.95557469,7.26800637 L4.95557469,9.59902548 C4.95557469,9.88068153 5.03914383,10.0736752 5.24467874,10.2628471 C6.00828234,10.9683248 6.77226238,11.6732293 7.53643064,12.3781338 C7.71316808,12.5415096 7.88990552,12.6112548 8.13007268,12.6112548 L15.3106193,12.6112548 C15.5449516,12.6112548 15.719054,12.6781338 15.8952268,12.8359682 C17.5581397,14.3275605 19.2210527,15.819535 20.8835892,17.3115096 C21.0960882,17.501828 21.1826688,17.6963503 21.1826688,17.9833567 L21.1826688,24.6273057 C21.1826688,24.9148854 21.0960882,25.1094076 20.8835892,25.299535 C19.2210527,26.7917006 17.5581397,28.283293 15.8952268,29.7750764 C15.719054,29.9331019 15.5449516,29.9999809 15.3106193,29.9999809 L5.93374771,29.9999809 C5.69885066,29.9999809 5.52474829,29.9331019 5.34857551,29.7750764 C3.68660366,28.283293 2.0225614,26.7917006 0.35964845,25.299535 C0.148278757,25.1094076 0.0620745546,24.9148854 0.0620745546,24.6273057 L0.0620745546,20.5681338 C0.0620745546,20.0728471 0.457710436,19.671 0.944444209,19.671 L3.42723817,19.671 C3.9145366,19.671 4.30960783,20.0728471 4.30960783,20.5681338 C4.31017248,21.2229745 4.31017248,21.8778153 4.3113018,22.5336115 C4.31167823,22.8217643 4.39919997,23.017242 4.61207541,23.2069873 C5.45924815,23.9596624 6.30585624,24.7108089 7.15246432,25.4634841 C7.32769601,25.6190255 7.50179839,25.6851401 7.73387215,25.6851401 L13.5091773,25.6851401 C13.7423804,25.6851401 13.9161063,25.6190255 14.0917144,25.4634841 C14.9377578,24.7108089 15.7845541,23.9602357 16.6305976,23.2081338 C16.845167,23.017242 16.9325005,22.8217643 16.9325005,22.5330382 L16.9325005,20.0776242 C16.9325005,19.7885159 16.845167,19.5938025 16.6305976,19.4034841 C15.7845541,18.6515732 14.9377578,17.8990892 14.0917144,17.1471783 C13.9161063,16.9920191 13.7423804,16.9260955 13.5091773,16.9260955 L6.57745594,16.9260955 C6.34312356,16.9260955 6.16845653,16.8592166 5.99266018,16.7006178 C4.32974724,15.2092166 2.66683429,13.7166688 1.00392134,12.2246943 C0.791986995,12.0343758 0.705782792,11.8402357 0.705782792,11.5532293" id="Fill-1" fill="#000000" fill-rule="nonzero" mask="url(#mask-2)"></path>
                    </g>
                </g>
            </g>
            <g id="Group-6" transform="translate(239.585903, 0.000000)">
                <g id="Fill-4-Clipped">
                    <g>
                        <mask id="mask-4" fill="white">
                            <use xlink:href="#path-3"></use>
                        </mask>
                        <g id="path-3"></g>
                        <path d="M2.90774058,0.0594458599 L19.1202979,0.0594458599 C19.6142565,0.0594458599 20.0149903,0.460528662 20.0149903,0.956197452 L20.0149903,3.47753503 C20.0149903,3.97167516 19.6142565,4.37447771 19.1202979,4.37447771 L7.21210106,4.37447771 C6.71909565,4.37447771 6.31855258,4.77556051 6.31855258,5.27065605 L6.31855258,11.9765159 C6.31855258,12.4712293 6.71909565,12.8723121 7.21210106,12.8723121 L15.9893513,12.8723121 C16.4838819,12.8723121 16.8842343,13.2739682 16.8842343,13.7696369 L16.8842343,16.2904013 C16.8842343,16.7854968 16.4838819,17.1865796 15.9893513,17.1865796 L7.21210106,17.1865796 C6.71909565,17.1865796 6.31855258,17.5882357 6.31855258,18.0835223 L6.31855258,24.7888089 C6.31855258,25.2839045 6.71909565,25.6851783 7.21210106,25.6851783 L19.1202979,25.6851783 C19.6142565,25.6851783 20.0149903,26.0866433 20.0149903,26.5819299 L20.0149903,29.1032675 C20.0149903,29.5987452 19.6142565,30.0000191 19.1202979,30.0000191 L2.90774058,30.0000191 C2.41473517,30.0000191 2.01400146,29.5987452 2.01400146,29.1032675 L2.01400146,17.5878535 C2.01400146,17.3035223 1.92763972,17.1088089 1.71526229,16.9196369 C1.24494352,16.4973439 0.773480881,16.0758153 0.302590174,15.652949 C-0.102337705,15.2898917 -0.0926148605,14.6501465 0.323179727,14.2993185 C0.886723424,13.8237134 1.45026712,13.3479172 2.01400146,12.8723121 L2.01400146,0.956197452 C2.01400146,0.460528662 2.41473517,0.0594458599 2.90774058,0.0594458599" id="Fill-4" fill="#000000" fill-rule="nonzero" mask="url(#mask-4)"></path>
                    </g>
                </g>
            </g>
            <g id="Group-9" transform="translate(210.810573, 0.000000)">
                <g id="Fill-7-Clipped">
                    <g>
                        <mask id="mask-6" fill="white">
                            <use xlink:href="#path-5"></use>
                        </mask>
                        <g id="path-5"></g>
                        <path d="M2.03195787,12.471707 L2.03195787,0.956292994 C2.03195787,0.460624204 2.42741877,0.0593503185 2.91506608,0.0593503185 L6.0243821,0.0593503185 C6.34157862,0.0593503185 6.63488192,0.232471338 6.79122255,0.512598726 C10.1902673,6.57183439 13.5891239,12.6310701 16.9879805,18.6910701 C17.4366838,19.4905605 18.6379292,19.1672484 18.6379292,18.2473758 L18.6379292,0.956292994 C18.6379292,0.460624204 19.0333901,0.0593503185 19.5208493,0.0593503185 L22.0038621,0.0593503185 C22.490945,0.0593503185 22.8864059,0.460624204 22.8864059,0.956292994 L22.8864059,12.471707 C22.8864059,12.7566115 22.9708787,12.9499873 23.1800855,13.1399236 C23.6526819,13.5690955 24.1249021,13.9982675 24.5963698,14.4274395 C24.9886324,14.7838089 24.9886324,15.4063567 24.5963698,15.7634904 C24.1249021,16.1926624 23.6526819,16.6212611 23.1800855,17.0504331 C22.9708787,17.2401783 22.8864059,17.4343185 22.8864059,17.7180764 L22.8864059,29.103172 C22.8864059,29.5988408 22.490945,29.9999236 22.0038621,29.9999236 L19.1536087,29.9999236 C18.8349071,29.9999236 18.5410394,29.8252739 18.3841343,29.5443822 C14.9006167,23.2774395 11.4159703,17.0104968 7.9313239,10.7439363 C7.48525455,9.9406242 6.28043457,10.2627898 6.28043457,11.1851465 L6.28043457,29.103172 C6.28043457,29.5988408 5.88478553,29.9999236 5.39789076,29.9999236 L2.91506608,29.9999236 C2.42741877,29.9999236 2.03195787,29.5988408 2.03195787,29.103172 L2.03195787,17.7180764 C2.03195787,17.4343185 1.94692061,17.2401783 1.73809016,17.0504331 C1.2660581,16.6212611 0.794026034,16.1926624 0.321993972,15.7634904 C-0.0702686231,15.4063567 -0.0702686231,14.7838089 0.321993972,14.4274395 C0.794026034,13.9982675 1.2660581,13.5690955 1.73809016,13.1399236 C1.94692061,12.9499873 2.03195787,12.7566115 2.03195787,12.471707" id="Fill-7" fill="#000000" fill-rule="nonzero" mask="url(#mask-6)"></path>
                    </g>
                </g>
            </g>
            <g id="Group-12" transform="translate(133.242291, 0.000000)">
                <g id="Fill-10-Clipped">
                    <g>
                        <mask id="mask-8" fill="white">
                            <use xlink:href="#path-7"></use>
                        </mask>
                        <g id="path-7"></g>
                        <path d="M8.09838321,4.37438217 L0.958619943,4.37438217 C0.451042697,4.37438217 0.0400069565,3.97157962 0.0400069565,3.47763057 L0.0400069565,0.956292994 C0.0400069565,0.460624204 0.451042697,0.0593503185 0.958619943,0.0593503185 L21.4972867,0.0593503185 C22.003689,0.0593503185 22.4158997,0.460624204 22.4158997,0.956292994 L22.4158997,3.47763057 C22.4158997,3.97157962 22.003689,4.37438217 21.4972867,4.37438217 L14.3573276,4.37438217 C13.850142,4.37438217 13.4389105,4.77546497 13.4389105,5.27056051 L13.4389105,12.471707 C13.4389105,12.7566115 13.527619,12.9499873 13.7445926,13.1399236 C14.2361122,13.5690955 14.7276319,13.9982675 15.2195431,14.4274395 C15.6272499,14.7838089 15.6272499,15.4063567 15.2195431,15.7634904 C14.7276319,16.1926624 14.2361122,16.6212611 13.7445926,17.0504331 C13.527619,17.2401783 13.4389105,17.4343185 13.4389105,17.7180764 L13.4389105,29.103172 C13.4389105,29.5988408 13.0272872,29.9999236 12.5199058,29.9999236 L9.93600083,29.9999236 C9.42803193,29.9999236 9.01699619,29.5988408 9.01699619,29.103172 L9.01699619,17.7180764 C9.01699619,17.4343185 8.92828767,17.2401783 8.71053076,17.0504331 C8.21920696,16.6212611 7.7282748,16.1926624 7.23636352,15.7634904 C6.82865679,15.4063567 6.82865679,14.7838089 7.23636352,14.4274395 C7.7282748,13.9982675 8.21920696,13.5690955 8.71053076,13.1399236 C8.92828767,12.9499873 9.01699619,12.7566115 9.01699619,12.471707 L9.01699619,5.27056051 C9.01699619,4.77546497 8.60537298,4.37438217 8.09838321,4.37438217" id="Fill-10" fill="#000000" fill-rule="nonzero" mask="url(#mask-8)"></path>
                    </g>
                </g>
            </g>
            <g id="Group-15" transform="translate(51.920705, 0.000000)">
                <g id="Fill-13-Clipped">
                    <g>
                        <mask id="mask-10" fill="white">
                            <use xlink:href="#path-9"></use>
                        </mask>
                        <g id="path-9"></g>
                        <path d="M0.657354099,11.5532293 L0.657354099,5.43170064 C0.657354099,5.14469427 0.743558302,4.94998089 0.955492651,4.76042675 C2.6184056,3.26787898 4.28131855,1.77628662 5.94423149,0.284312102 C6.12059249,0.126477707 6.29469487,0.0594076433 6.52902725,0.0594076433 L15.2621906,0.0594076433 C15.4963347,0.0594076433 15.67119,0.126477707 15.8467981,0.284312102 C17.5091464,1.77628662 19.172624,3.26787898 20.8357252,4.76042675 C21.0474713,4.94998089 21.1338637,5.14469427 21.1338637,5.43170064 L21.1338637,9.09953503 C21.1338637,9.59463057 20.7380396,9.99590446 20.2503647,9.99590446 L17.7668179,9.99590446 C17.279143,9.99590446 16.8840718,9.59463057 16.8840718,9.09953503 L16.8840718,7.26800637 C16.8840718,6.9766051 16.795609,6.78036306 16.5784045,6.59023567 C15.8185653,5.92373885 15.0587261,5.25819745 14.2992633,4.59227389 C14.1247845,4.43921656 13.9521878,4.37386624 13.7221845,4.37386624 L8.06884511,4.37386624 C7.8382771,4.37386624 7.6658687,4.43921656 7.49176632,4.59227389 C6.73230354,5.25819745 5.97246431,5.92373885 5.21262508,6.59023567 C4.99598526,6.78036306 4.907146,6.9766051 4.907146,7.26800637 L4.907146,9.59902548 C4.907146,9.88068153 4.99109158,10.0731019 5.19625005,10.2622739 C5.96023009,10.9683248 6.72383369,11.6732293 7.48800195,12.3781338 C7.6658687,12.5413185 7.84147682,12.6112548 8.08164399,12.6112548 L15.2621906,12.6112548 C15.4963347,12.6112548 15.67119,12.6775605 15.8467981,12.8359682 C17.5091464,14.3275605 19.172624,15.819535 20.8357252,17.3115096 C21.0474713,17.501828 21.1338637,17.6957771 21.1338637,17.9827834 L21.1338637,24.6271146 C21.1338637,24.9148854 21.0474713,25.1092166 20.8357252,25.299535 C19.172624,26.7917006 17.5091464,28.2831019 15.8467981,29.7750764 C15.67119,29.9331019 15.4963347,29.9999809 15.2621906,29.9999809 L5.88513079,29.9999809 C5.65042197,29.9999809 5.4763196,29.9331019 5.30052325,29.7750764 C3.63723387,28.2831019 1.97469736,26.7917006 0.311784414,25.299535 C0.099285408,25.1092166 0.0130812054,24.9148854 0.0130812054,24.6271146 L0.0130812054,20.5679427 C0.0130812054,20.0728471 0.408717087,19.671 0.896391954,19.671 L3.37937414,19.671 C3.86761366,19.671 4.26324954,20.0728471 4.26324954,20.5679427 L4.26324954,22.5330382 C4.26324954,22.8217643 4.35058306,23.017242 4.56458781,23.2075605 C5.41138412,23.9602357 6.2579922,24.7108089 7.10460029,25.4634841 C7.27926732,25.6184522 7.45280504,25.6851401 7.68600811,25.6851401 L13.4618779,25.6851401 C13.6945163,25.6851401 13.8676776,25.6184522 14.0427211,25.4634841 C14.8893291,24.7108089 15.7359372,23.9602357 16.5821689,23.2075605 C16.7967383,23.017242 16.8840718,22.8217643 16.8840718,22.5330382 L16.8840718,20.0776242 C16.8840718,19.7885159 16.7967383,19.5932293 16.5821689,19.4029108 C15.7359372,18.6511911 14.8893291,17.8990892 14.0427211,17.1469873 C13.8676776,16.9920191 13.6945163,16.9255223 13.4618779,16.9255223 L6.52902725,16.9255223 C6.29469487,16.9255223 6.12059249,16.8586433 5.94423149,16.7006178 C4.28131855,15.2086433 2.6184056,13.7166688 0.955492651,12.2246943 C0.743558302,12.0343758 0.657354099,11.8402357 0.657354099,11.5532293" id="Fill-13" fill="#000000" fill-rule="nonzero" mask="url(#mask-10)"></path>
                    </g>
                </g>
            </g>
            <path d="M7.85060126,25.676595 L19.7491606,25.676595 C20.2433147,25.676595 20.6431718,26.0784739 20.6431718,26.5751265 L20.6431718,29.1014685 C20.6431718,29.5975467 20.2433147,30 19.7491606,30 L3.5495178,30 C3.05593523,30 2.65588761,29.5975467 2.65588761,29.1014685 L2.65588761,17.6937756 C2.65588761,17.4092629 2.56921062,17.2149289 2.35794737,17.0248071 C1.87979521,16.5945918 1.40183355,16.164951 0.92387189,15.7349271 C0.526110251,15.3774675 0.526110251,14.7529182 0.92387189,14.3960329 C1.40183355,13.9665835 1.87979521,13.5365597 2.35794737,13.10577 C2.56921062,12.9162226 2.65588761,12.7222715 2.65588761,12.4364186 L2.65588761,0.898531486 C2.65588761,0.401878881 3.05593523,0 3.5495178,0 L6.06315038,0 C6.55673294,0 6.95716157,0.401878881 6.95716157,0.898531486 L6.95716157,24.7780636 C6.95716157,25.2745247 7.35759019,25.676595 7.85060126,25.676595" id="Fill-16" fill="#000000" fill-rule="nonzero"></path>
            <g id="Group-20" transform="translate(182.035242, 0.000000)">
                <g id="Fill-18-Clipped">
                    <g>
                        <mask id="mask-12" fill="white">
                            <use xlink:href="#path-11"></use>
                        </mask>
                        <g id="path-11"></g>
                        <path d="M19.748628,22.6507834 C19.748628,22.9492548 19.655809,23.1475987 19.4247206,23.3400191 C18.5663372,24.0519936 17.7081456,24.7645414 16.8497623,25.4774713 C16.674672,25.6236497 16.5014995,25.6851783 16.2736712,25.6851783 L9.96984653,25.6851783 C9.74259356,25.6851783 9.56942105,25.6236497 9.39433079,25.4774713 C8.53594743,24.7645414 7.67775585,24.0519936 6.81937249,23.3400191 C6.58885936,23.1475987 6.4954651,22.9492548 6.4954651,22.6507834 L6.4954651,7.52657962 C6.4954651,7.2378535 6.58406499,7.04218471 6.80249632,6.85129299 C7.66471517,6.09995541 8.5278929,5.34842675 9.38991997,4.59594268 C9.56846218,4.44040127 9.74527841,4.37447771 9.98288721,4.37447771 L16.2606305,4.37447771 C16.4982393,4.37447771 16.6750556,4.44040127 16.8535978,4.59594268 C17.7162002,5.34842675 18.5782272,6.09995541 19.4410214,6.85129299 C19.6590692,7.04218471 19.748628,7.2378535 19.748628,7.52657962 L19.748628,22.6507834 Z M25.8223231,14.427535 C25.3405851,13.9983631 24.8598061,13.5691911 24.3780681,13.139828 C24.1653901,12.9500828 24.0785161,12.7565159 24.0785161,12.4716115 L24.0785161,5.4323121 C24.0785161,5.14473248 23.9912587,4.95001911 23.7753204,4.76046497 C22.080416,3.26829936 20.3860869,1.77632484 18.6917578,0.284350318 C18.5126403,0.126515924 18.3346734,0.0594458599 18.095914,0.0594458599 L8.14798731,0.0594458599 C7.90884431,0.0594458599 7.7318363,0.126515924 7.55233523,0.284350318 C5.85800615,1.77632484 4.16310175,3.26829936 2.46934799,4.76046497 C2.25340973,4.95001911 2.16557694,5.14473248 2.16557694,5.4323121 L2.16557694,12.8723121 C1.58392441,13.3907197 1.0028472,13.9085541 0.422345323,14.427535 C0.0213445191,14.7837134 0.0213445191,15.4064522 0.422345323,15.7633949 C0.903124383,16.1925669 1.38428699,16.6211656 1.8654496,17.0503376 C2.07870302,17.2402739 2.16557694,17.4342229 2.16557694,17.718172 L2.16557694,24.6273439 C2.16557694,24.9149236 2.25340973,25.1094459 2.46934799,25.2995732 C4.16310175,26.7917389 5.85800615,28.2833312 7.55233523,29.7751146 C7.7318363,29.932949 7.90884431,30.0000191 8.14798731,30.0000191 L18.095914,30.0000191 C18.3346734,30.0000191 18.5126403,29.932949 18.6917578,29.7751146 C20.4869604,28.1939045 22.2838889,26.6126943 24.0785161,25.0314841 L24.0785161,17.718172 C24.0785161,17.4342229 24.1653901,17.2402739 24.3780681,17.0503376 C24.8598061,16.6211656 25.3405851,16.1925669 25.8223231,15.7633949 C26.2221732,15.4064522 26.2221732,14.7837134 25.8223231,14.427535 L25.8223231,14.427535 Z" id="Fill-18" fill="#000000" fill-rule="nonzero" mask="url(#mask-12)"></path>
                    </g>
                </g>
            </g>
            <g id="Group-23" transform="translate(158.264317, 0.000000)">
                <g id="Fill-21-Clipped">
                    <g>
                        <mask id="mask-14" fill="white">
                            <use xlink:href="#path-13"></use>
                        </mask>
                        <g id="path-13"></g>
                        <path d="M14.1897987,13.003051 L7.35050898,13.003051 C6.85180075,13.003051 6.44663639,12.6019682 6.44663639,12.1068726 L6.44663639,5.27069427 C6.44663639,4.77540764 6.85180075,4.37432484 7.35050898,4.37432484 L14.1897987,4.37432484 C14.490448,4.37432484 14.6902392,4.46623567 14.8834863,4.69706369 C15.6012335,5.55177707 16.3193656,6.40687261 17.0367279,7.2625414 C17.1835879,7.43680892 17.246143,7.60973885 17.246143,7.83617197 L17.246143,9.54063057 C17.246143,9.76763694 17.1835879,9.94075796 17.0367279,10.1148344 C16.3193656,10.9699299 15.6012335,11.8252166 14.8834863,12.6808854 C14.6902392,12.9101847 14.490448,13.003051 14.1897987,13.003051 M22.3958685,28.7052803 C20.5923578,25.0873185 18.7888472,21.4680191 16.9853365,17.8500573 C16.8242331,17.5271274 16.8731223,17.1401847 17.1094842,16.8671274 C18.5307353,15.2276369 19.9529488,13.5885287 21.3743924,11.9478917 C21.5268343,11.7705669 21.5926615,11.5959172 21.5926615,11.3635605 L21.5926615,6.01400637 C21.5926615,5.78107643 21.5268343,5.60642675 21.3743924,5.42948408 L16.9897635,0.37133121 C16.7969014,0.149101911 16.6009597,0.0594840764 16.3053148,0.0594840764 L3.00476042,0.0594840764 C2.50528228,0.0594840764 2.10127279,0.460566879 2.10127279,0.956235669 L2.10127279,12.5857261 C2.10127279,12.8836242 2.00888377,13.0804395 1.77945103,13.2717134 C1.31827584,13.6577006 0.856138258,14.0436879 0.394385632,14.4296752 C-0.0254069807,14.7810764 -0.0348383599,15.4206306 0.374752965,15.783879 C0.849401559,16.2059809 1.32539749,16.6277006 1.80023856,17.0503758 C2.0136957,17.240121 2.10127279,17.4342611 2.10127279,17.7180191 L2.10127279,29.1031146 C2.10127279,29.5987834 2.50528228,30.0000573 3.00476042,30.0000573 L5.54391867,30.0000573 C6.04262691,30.0000573 6.44663639,29.5987834 6.44663639,29.1031146 L6.44663639,18.2148344 C6.44663639,17.7185924 6.85180075,17.3175096 7.35050898,17.3175096 L11.2858963,17.3175096 C11.629468,17.3175096 11.9426283,17.5108854 12.0956476,17.817 C14.0367794,21.7112675 15.9784886,25.6062994 17.9198129,29.5003758 C18.0722548,29.8064904 18.3854151,30.0000573 18.7289868,30.0000573 L21.5866947,30.0000573 C22.2563226,30.0000573 22.6930532,29.3014586 22.3958685,28.7052803" id="Fill-21" fill="#000000" fill-rule="nonzero" mask="url(#mask-14)"></path>
                    </g>
                </g>
            </g>
            <g id="Group-26" transform="translate(109.471366, 0.000000)">
                <g id="Fill-24-Clipped">
                    <g>
                        <mask id="mask-16" fill="white">
                            <use xlink:href="#path-15"></use>
                        </mask>
                        <g id="path-15"></g>
                        <path d="M16.346195,18.1023057 L10.0801486,18.1023057 C9.46528175,18.1023057 9.03640602,17.4854904 9.246024,16.9007771 C10.2903336,13.9819873 11.3346431,11.0624331 12.3795198,8.14326115 C12.6619086,7.35447134 13.765002,7.35447134 14.0473908,8.14326115 C15.0917004,11.0624331 16.13601,13.9819873 17.1803196,16.9007771 C17.3899375,17.4854904 16.9610618,18.1023057 16.346195,18.1023057 M26.2071236,28.7847898 C22.6812321,19.4031975 19.1551515,10.0196943 15.629638,0.637910828 C15.4980833,0.289757962 15.1682516,0.0595031847 14.7996718,0.0595031847 L11.5047569,0.0595031847 C11.1325858,0.0595031847 10.7999188,0.294535032 10.6721445,0.647656051 C9.18818531,4.74198726 7.7049822,8.83574522 6.22159006,12.9306497 C6.13596613,13.1658726 6.00649064,13.3118599 5.78477569,13.4236433 C5.03816522,13.8016051 4.29174377,14.1788025 3.54456626,14.5556178 C3.01362226,14.8248535 2.8881161,15.5351083 3.29601113,15.9730701 C3.58633864,16.2849172 3.87685517,16.5961911 4.16718268,16.9088025 C4.40023856,17.1587389 4.47093028,17.5217962 4.34996049,17.8424331 C2.97355102,21.4902038 1.59827564,25.136828 0.221866168,28.7842166 C0.000529242861,29.3708408 0.429404976,30.0000764 1.05069829,30.0000764 L3.67725501,30.0000764 C4.04564584,30.0000764 4.37566657,29.7698217 4.50665418,29.4214777 C5.31034726,27.2792484 6.11404035,25.1374013 6.91773344,22.995172 C7.04834302,22.6475924 7.37817473,22.4167643 7.74656556,22.4167643 L18.6695712,22.4167643 C19.0434435,22.4167643 19.3759214,22.6535159 19.5033177,23.0075924 C20.2678846,25.1412229 21.0315065,27.2754268 21.7960734,29.4086752 C21.9229026,29.7631338 22.2559476,30.0000764 22.6298199,30.0000764 L25.3777244,30.0000764 C25.9986397,30.0000764 26.4273264,29.371414 26.2071236,28.7847898" id="Fill-24" fill="#000000" fill-rule="nonzero" mask="url(#mask-16)"></path>
                    </g>
                </g>
            </g>
            <g id="Group-29" transform="translate(89.453744, 0.000000)">
                <g id="Fill-27-Clipped">
                    <g>
                        <mask id="mask-18" fill="white">
                            <use xlink:href="#path-17"></use>
                        </mask>
                        <g id="path-17"></g>
                        <path d="M16.860168,9.54070701 C16.860168,9.76771338 16.7984323,9.94064331 16.6546331,10.1147197 C15.9527653,10.9700064 15.2510856,11.825293 14.5492178,12.6809618 C14.3600579,12.9100701 14.1652515,13.0031274 13.8708773,13.0031274 L7.18233465,13.0031274 C6.69522444,13.0031274 6.29958855,12.6020446 6.29958855,12.106758 L6.29958855,5.27057962 C6.29958855,4.77548408 6.69522444,4.37440127 7.18233465,4.37440127 L13.8708773,4.37440127 C14.1652515,4.37440127 14.3600579,4.4663121 14.5492178,4.69714013 C15.2510856,5.5518535 15.9527653,6.40694904 16.6546331,7.26261783 C16.7984323,7.43669427 16.860168,7.60981529 16.860168,7.83624841 L16.860168,9.54070701 Z M20.8957669,5.42956051 C19.4671864,3.74344586 18.0378529,2.05733121 16.6088959,0.371407643 C16.42143,0.149178344 16.2275647,0.0593694268 15.9394017,0.0593694268 L2.93254275,0.0593694268 C2.44486788,0.0593694268 2.04979666,0.460452229 2.04979666,0.956312102 L2.04979666,12.4717261 C2.04979666,12.7566306 1.96396889,12.9500064 1.75542248,13.1397516 C1.28299333,13.5691146 0.810752407,13.9982866 0.338511481,14.4274586 C-0.0544893376,14.7836369 -0.0544893376,15.4063758 0.338511481,15.7633185 C0.810752407,16.1926815 1.28299333,16.6212803 1.75542248,17.0504522 C1.96396889,17.2401975 2.04979666,17.4343376 2.04979666,17.7180955 L2.04979666,29.1031911 C2.04979666,29.5988599 2.44486788,29.9999427 2.93254275,29.9999427 L5.41608959,29.9999427 C5.90395267,29.9999427 6.29958855,29.5988599 6.29958855,29.1031911 L6.29958855,18.2149108 C6.29958855,17.7186688 6.69522444,17.3173949 7.18233465,17.3173949 L15.9394017,17.3173949 C16.2275647,17.3173949 16.42143,17.2277771 16.6088959,17.006121 C18.0378529,15.3200064 19.4671864,13.6338917 20.8957669,11.9479682 C21.0459655,11.7706433 21.109207,11.5959936 21.109207,11.3636369 L21.109207,6.01389172 C21.109207,5.78096178 21.0459655,5.6063121 20.8957669,5.42956051 L20.8957669,5.42956051 Z" id="Fill-27" fill="#000000" fill-rule="nonzero" mask="url(#mask-18)"></path>
                    </g>
                </g>
            </g>
            <g id="Group-32" transform="translate(23.145374, 0.000000)">
                <g id="Fill-30-Clipped">
                    <g>
                        <mask id="mask-20" fill="white">
                            <use xlink:href="#path-19"></use>
                        </mask>
                        <g id="path-19"></g>
                        <path d="M19.7581783,22.6507834 C19.7581783,22.9492548 19.6653594,23.1475987 19.434271,23.3394459 C18.5758876,24.0519936 17.717696,24.7645414 16.8593127,25.4774713 C16.6842224,25.6230764 16.5110499,25.6851783 16.2832216,25.6851783 L9.97997223,25.6851783 C9.75214394,25.6851783 9.57897143,25.6230764 9.40388117,25.4774713 C8.54549781,24.7645414 7.68730623,24.0519936 6.82892287,23.3394459 C6.59840974,23.1475987 6.50501548,22.9492548 6.50501548,22.6507834 L6.50501548,7.52657962 C6.50501548,7.23728025 6.59399892,7.04218471 6.81262203,6.85129299 C7.67522443,6.09995541 8.53744327,5.34842675 9.39947035,4.59594268 C9.5783961,4.43982803 9.75540411,4.37390446 9.99243758,4.37390446 L16.2707562,4.37390446 C16.5077897,4.37390446 16.6846059,4.43982803 16.8637235,4.59594268 C17.7257506,5.34842675 18.588353,6.09995541 19.4505718,6.85129299 C19.6697702,7.04218471 19.7581783,7.23728025 19.7581783,7.52657962 L19.7581783,22.6507834 Z M25.8318734,14.4269618 C25.3510944,13.9983631 24.8693565,13.5691911 24.3881938,13.1392548 C24.1755158,12.9500828 24.0880665,12.7565159 24.0880665,12.4712293 L24.0880665,5.43173885 C24.0880665,5.14473248 24.0002337,4.95001911 23.7842955,4.76046497 C22.0899664,3.26772611 20.3956373,1.77632484 18.7007329,0.284350318 C18.5221907,0.126515924 18.3447991,0.0594458599 18.1056561,0.0594458599 L8.15811301,0.0594458599 C7.91897001,0.0594458599 7.74100313,0.126515924 7.5618856,0.284350318 C5.86755653,1.77632484 4.17322745,3.26772611 2.47889837,4.76046497 C2.26296011,4.95001911 2.17512732,5.14473248 2.17512732,5.43173885 L2.17512732,12.4712293 C2.17512732,12.7565159 2.0882534,12.9500828 1.87499998,13.1392548 C1.39383737,13.5691911 0.912482987,13.9983631 0.431320377,14.4269618 C0.0314702209,14.7831401 0.0314702209,15.4064522 0.431320377,15.7632038 C0.912482987,16.1923758 1.39383737,16.6211656 1.87499998,17.0503376 C2.0882534,17.2402739 2.17512732,17.4342229 2.17512732,17.718172 L2.17512732,24.6271529 C2.17512732,24.9149236 2.26296011,25.1092548 2.47889837,25.2995732 C4.17322745,26.7917389 5.86755653,28.2831401 7.5618856,29.7751146 C7.74100313,29.932949 7.91897001,30.0000191 8.15811301,30.0000191 L18.1056561,30.0000191 C18.3447991,30.0000191 18.5221907,29.932949 18.7007329,29.7751146 C20.3956373,28.2831401 22.0899664,26.7917389 23.7842955,25.2995732 C24.0002337,25.1092548 24.0880665,24.9149236 24.0880665,24.6271529 L24.0880665,17.718172 C24.0880665,17.4342229 24.1755158,17.2402739 24.3881938,17.0503376 C24.8693565,16.6211656 25.3510944,16.1923758 25.8318734,15.7632038 C26.2317236,15.4064522 26.2317236,14.7831401 25.8318734,14.4269618 L25.8318734,14.4269618 Z" id="Fill-30" fill="#000000" fill-rule="nonzero" mask="url(#mask-20)"></path>
                    </g>
                </g>
            </g>
        </g>
    </g>
</svg>