<?xml version="1.0" encoding="utf-8"?>
<!-- Generator: Adobe Illustrator 23.0.0, SVG Export Plug-In . SVG Version: 6.00 Build 0)  -->
<svg version="1.1" id="Capa_1" xmlns="http://www.w3.org/2000/svg" xmlns:xlink="http://www.w3.org/1999/xlink" x="0px" y="0px"
	 viewBox="0 0 480.3 160" style="enable-background:new 0 0 480.3 160;" xml:space="preserve">
<style type="text/css">
	.st0{fill:#4C616F;}
	.st1{fill:#143344;}
	.st2{fill:#4D6373;}
	.st3{fill:#727477;}
	.st4{enable-background:new    ;}
</style>
<circle class="st0" cx="400.5" cy="133.7" r="3"/>
<g>
	<g>
		<path class="st1" d="M6,91c2.1,0.6,4.1-0.5,5.9-1c1.9-0.5,3.7-0.4,5.9-0.7c0,7.4,0,14.6,0,21.9c11.9,0,23.6,0,35.3,0
			c0-19.3,0-38.5,0-57.9c2-0.5,3.9-0.2,5.8-0.2c1.9-0.1,3.9,0,6.1,0c0,1.5,0,2.9,0,4.2c0,17.2-0.1,34.3,0,51.5c0,3.2-1,6.2-2.7,8.6
			c-1.4,2-4.1,2.8-6.8,3.4c-5.4,1.1-10.7,0.6-16.1,0.7c-6.2,0.1-12.4,0-18.6,0c-2.5,0-4.9-0.5-7.1-1.2c-4.8-1.5-6-3.3-7-8.3
			c-0.1-0.6,0.3-1.5-0.8-1.5C6,103.9,6,97.4,6,91z"/>
		<path class="st1" d="M458.6,77.4c0-5.1,0-10,0-15c-15.4,0-30.7,0-46.2,0c0,16.2,0,32.4,0,48.7c15.3,0,30.6,0,46.2,0
			c0-5,0-10,0-15.1c0-1.6,0.6-2.2,1.9-1.7c2.5,0.9,5.1,1.4,7.8,1.7c1.5,0.1,2.1,0.8,2.2,2.4c0,3.4,0.1,6.8,0,10.1
			c-0.1,2-0.3,4.1-1.1,5.9c-1.4,3.4-4.1,5.8-7.9,6.1c-2.3,0.2-4.4,1.3-6.8,1s-4.8-0.1-7.2-0.1c-10.4,0-20.8,0-31.2,0
			c-3.1,0-6-0.8-9-1.6c-3.1-0.8-4.4-3.3-5.9-5.7c0.5-2-0.9-3.6-0.9-5.6c0.1-14.2,0.1-28.4,0-42.6c0-2.1,0.7-4,1.2-5.9
			c0.9-3.5,3.8-5.3,7.3-6.2c3-0.8,6-0.8,9-0.8c13.1,0,26.2,0,39.3,0c2.7,0,5.2,0.9,7.7,1.7c3.2,0.9,4.1,3.7,4.7,6.3
			c0.3,1.3,1.3,2.4,1,3.8c-0.2,1.4,0,2.8,0,4.2c0,1.3,0.1,2.5,0,3.8c-0.1,0.9,0.5,2.1-0.3,2.8c-0.7,0.5-1.9-0.1-2.5,1
			C464.6,76.1,461.9,77.8,458.6,77.4z"/>
		<path class="st2" d="M394.3,112.2c0,1.7,0,3.2,0,4.8c-106.3,0-212.4,0-318.8,0c0-1.5,0-3.1,0-4.8
			C181.6,112.2,287.8,112.2,394.3,112.2z"/>
		<path class="st1" d="M105.3,53c6.9,0,13.8,0,20.7,0c1.5,0,2.9,0.3,4.3,0.8c1.4,0.5,3.1,0.7,3.8,2c0.8,1.7,2.1,3.3,2.1,5.5
			c-0.1,12.5,0,25-0.1,37.6c0,3.4-2.1,6.5-6.2,7.5c-2.6,0.6-5.1,0.7-7.7,0.7c-12.4,0-24.8,0-37.1,0c-2.2,0-5.6-1.5-7.5-2.3
			c-2.1-0.9-1.7-3.1-3.1-4.2c0.4-2.6-1-5-0.9-7.7c0.2-7.9,0.2-15.8,0-23.6c-0.1-3.5,0.8-6.8,1.1-10.2c0.1-1.8,1.3-3.6,3.6-4.4
			c2.9-1.1,3.6-1.6,6.1-1.6C91.2,53,98.3,53,105.3,53z M82.9,60.6c0,12,0,23.7,0,35.4c0,3,0.3,3.4,3.2,3.4c5.6,0,11.2,0,16.9,0
			c7.8,0,15.7,0,23.6,0c0-13,0-25.9,0-38.8C112,60.6,97.6,60.6,82.9,60.6z"/>
		<path class="st1" d="M329.3,53c0,18.1,0,35.9,0,53.9c-2.7,0-5.3,0-8.3,0c0-13.6,0-27.3,0-42c-2,2.8-3.5,4.6-4.7,6.7
			c-5.1,8.5-11.6,16.1-16.5,24.8c-0.3,0.6-0.9,1.1-1.4,1.5c-1.3,1.2-2.5,0.9-3.7-0.7c-2.8-3.7-5.6-7.2-8.3-10.9
			c-2.6-3.5-4.9-7.3-7.6-10.7c-2.2-2.8-4.2-5.8-6.2-8.8c-0.4-0.6-0.3-1.3-0.8-1.8c-0.2,0.6,0.1-0.3-0.3,0.1
			c-0.1,0.1-0.2,0.2-0.2,0.3c0,13.8,0,27.6,0,41.5c-2.5,0-4.9,0-7.5,0c0-17.8,0-35.7,0-53.5c0.2-0.4,0.7-0.3,1.1-0.3
			c2,0,4-0.4,5.9,0.1s2.5,2.8,3.6,4.3c3.8,5.2,7.7,10.3,11.5,15.4c2.9,3.9,5.6,7.9,8.8,11.6c0.4,0.5,0.8,1,1.2,1.6
			c1,1.9,1.2,1.8,2.5,0c2.6-4,5.3-7.9,8-11.9c3.6-5.2,7.6-10.3,10.8-15.8c0.8-1.4,2.2-2.3,3-3.8c0.6-1.1,1.6-1.7,3.1-1.6
			C325,53.1,327,53,329.3,53z"/>
		<path class="st1" d="M340.5,53c17.4,0,34.7,0,52.1,0c0,2.4,0,4.8,0,7.4c-13.9,0-27.9,0-42,0c0,4.9,0,9.5,0,14.3
			c8.3,0,16.5,0,25.1,0c0.2,2.6,0.1,5,0.1,7.6c-8.4,0-16.7,0-25.1,0c0,5.7,0,11.2,0,16.9c14.2,0,28.3,0,42.7,0c0,2.6,0,5,0,7.6
			c-17.6,0-35.2,0-52.9,0C340.5,89,340.5,71.2,340.5,53z"/>
		<path class="st1" d="M156.3,85.9c0,7.1,0,14,0,21c-3,0-6,0-9.1,0c0-17.8,0-35.7,0-53.9c1.3,0,2.7,0,4.1,0c13.5,0,27,0,40.5,0
			c6.7,0,9.7,3.9,10.1,9.9c0.3,4.3,0.2,8.7,0,13.1c-0.1,2.8-1,5.5-3.1,7.6c-1.7,1.7-3.9,2.3-6.2,2.3c-10.5,0-21.1,0-31.6,0
			C159.6,85.9,158.2,85.9,156.3,85.9z M156.4,78.3c10.8,0,21.2-0.1,31.5,0.1c2.1,0,3.1-1,3.8-2.5c1.3-2.7,1.3-10,0-12.8
			c-0.7-1.5-1.7-2.6-3.8-2.5c-7.9,0.1-15.7,0-23.6,0c-2.6,0-5.3,0-8,0C156.4,66.6,156.4,72.3,156.4,78.3z"/>
		<path class="st1" d="M193.3,107c2.2-3.8,4.1-7.2,6-10.6c2.5-4.4,4.4-9.2,7.4-13.4c1-1.3,1.3-3.1,2.1-4.6c3.9-7.1,8-14.1,11.5-21.4
			c0.5-1.1,1.7-1.6,2-3c0.1-0.6,1-1.2,2-1.1c2.4,0.1,4.8,0.1,7.2,0c1.3,0,1.9,0.6,2.4,1.7c2,4,4,8,6.3,11.7c3.3,5.4,6,11.1,9.4,16.4
			c1.7,2.7,2.9,5.8,4.6,8.6c2.9,4.7,5,9.9,8.3,14.3c0.3,0.4,0.2,1.3-0.5,1.3c-2.8,0.1-5.6,0-8.4,0.1c-1,0-1.7-0.7-1.9-1.4
			c-1-3-2.8-5.6-4.3-8.3c-0.7-1.3-1-3.1-2.1-3.7s-2.7-0.2-4.1-0.2c-9.8,0-19.7,0-29.5,0c-1.4,0-2,0.3-2.7,1.7
			c-1.6,3.5-3.6,6.9-5.4,10.4c-0.6,1.1-1.4,1.5-2.7,1.5C198.6,106.9,196.2,107,193.3,107z M213.6,86.7c4.7,0,9.2,0,13.6,0
			c4.3,0,8.7,0,13,0c1.4,0,1.5-0.3,0.9-1.7c-0.8-2-2.2-3.5-3.1-5.4c-3.2-6.7-6.9-13.2-10.4-19.7C223,68.8,218.4,77.6,213.6,86.7z"/>
		<path class="st3" d="M391.9,114.6c-104.7,0-209.4,0-314.1,0"/>
		<path class="st2" d="M377,43.5c-4.2-3.4-8.4-6.5-13.3-8.8c-1.3-0.6-2.6-1.2-4.2-1.1c-2.6,0.1-5.2,0.6-7.7-0.8
			c-4.8,0.1-8.8-2.4-13-4.3c-4.4-1.9-8.8-3.9-13.4-5.3c-2.8-0.9-4.8-0.5-6.6,1.2c-2.7,2.5-5.8,4.2-9.1,5.5
			c-4.3,1.7-8.8,2.2-13.2-0.5c-1.4-0.8-2.2-2-3.4-3c-1.5-1.2-2.5-2.9-4.3-3.9c-3.5-1.8-6.8-4-10.3-5.6c-2.4-1.1-3.5-2.5-3.1-5
			c0.2-1.3-0.3-2.5-1.3-2.8c-1.1-0.3-2.3-0.3-3.4,0.7c-3.2,2.9-5.1,6.5-7.1,10.2c-1.4,2.5-2.6,5.1-4.2,7.6c-0.9,1.5-2.1,2.5-3.6,3
			c-0.8,0.2-2.3-0.2-2.7-0.6c-0.9-0.9-2.1-0.7-3-1c-5.4-1.7-8.6-5.1-9.3-10.8c-1.6-2.3-0.6-4.8-0.8-7.2c-0.3-2.8-0.7-5.5-2.5-7.8
			c-1.4,0-2.8,0-4.2,0C232,4,231,5,229.8,5.6c-5.7,2.9-11.4,5.8-17.3,8.3c-2,0.9-4,2.1-6.1,2.6c-2.9,0.7-5.2,2.4-8,3.3
			c-2.8,0.8-5.5,2.4-8.2,3.6c-4.3,2-8.4,4.2-12.5,6.6c-3.8,2.2-7.8,4.3-11.6,6.6c-2.2,1.4-4.7,1.9-7.2,0.3c-1.1-0.7-2.3-1.1-3.5-1.7
			c-4.1-2-8.4-3.6-12.3-6c-4.6-2.9-9.3-5.3-14.5-6.9c-1.7-0.5-3.5-0.9-4.8-0.4c-2.2,0.9-4.6,1-6.8,2.1c-3.4,1.6-7.1,2.5-10.6,4
			c-2.9,1.2-5.7,2.6-8.4,4.2c-1.4,0.8-1.5,2.9-3,3.8c-0.5,0.3-0.9,0.9-0.6,1.4c0.4,0.8,1.4,0.6,1.9,0.4c1.2-0.6,2.3-1.3,3.5-1.6
			c6.4-1.8,12.6-4.6,19.4-5.1c3.5-2.1,6.8-0.6,9.9,0.9c8.7,4.2,17.3,8.5,25.9,13c2.8,1.5,5.1,1.6,7.8,0.1c5.6-3.2,11.2-6.2,16.8-9.3
			c4.1-2.2,8.2-4.5,12.6-6.3c5.2-2.1,10.3-4.4,15.4-6.5c3.2-1.4,6.4-3.1,9.6-4.3c4.3-1.6,8.1-3.7,11.8-6.1c2.2-1.5,5.5-1,6.2,1.4
			c0.3,1.3,1.3,2.4,1,3.8c-0.5,3.2,0.2,6.3,0.9,9.3c0.8,3.7,2.2,7.1,6,8.8c2,0.9,4.1,1.6,6.1,2.6c3.1,1.5,5.9-0.1,7.7-3.2
			c2.6-4.6,4.8-9.5,7.9-13.8l2.8-3.3c0.3-0.1,0.6-0.2,0.8-0.4c1.4-0.9,3.2,0.2,3,1.9c-0.2,2.9,1.5,4.1,3.5,5.5
			c2,1.3,4.2,2.2,6.2,3.4c3.8,2.2,7.7,4.5,10.7,7.9c1.8,2.1,3.9,3,6.8,3c4.6,0.1,8.6-1.4,12.5-3.5c1.9-1,3.5-2.5,5.2-3.8
			c1.6-1.2,3.6-1.9,5.4-1.2c3.7,1.5,7.7,2.6,11.3,4.4c4.2,2.1,8.4,4.3,13,5.3c2.5,0.5,5.1,1.9,7.5,1.1c2.6-0.9,4.9,0.8,7.3,0.2
			c5.6,2.2,11.2,4.4,16.2,7.8c0.5,0.3,0.9,0.6,1.5,0.6c1.8,0,3.6,0,5.9,0C381.9,47.8,379.6,45.5,377,43.5z"/>
		<path class="st1" d="M316.3,65.2c0,0.5,0.1,1-0.4,1.3c-1,0.6-1.2,1.7-1.7,2.5"/>
	</g>
	<g class="st4">
		<path class="st1" d="M78,146.9v-24.1h3.9c1.4,0,2.6,0.1,3.4,0.3c0.8,0.2,1.5,0.6,2.1,1.1c0.7,0.6,1.3,1.3,1.6,2.3
			c0.4,1,0.6,2,0.6,3.2c0,2.2-0.7,3.8-1.9,5c-1.3,1.2-3.2,1.7-5.6,1.7c-0.3,0-0.5,0-0.6,0s-0.3,0-0.4,0V147L78,146.9L78,146.9z
			 M81.3,133.5h1.2c1.4,0,2.5-0.3,3.1-0.9c0.6-0.6,1-1.6,1-3c0-1.3-0.3-2.3-1-2.9c-0.7-0.6-1.7-0.9-3.3-0.9h-1
			C81.3,125.9,81.3,133.5,81.3,133.5z"/>
		<path class="st1" d="M92.7,146.9v-24.1H96v21h6.9v3L92.7,146.9L92.7,146.9z"/>
		<path class="st1" d="M103.6,146.9l5.6-24.1h3.1l5.6,24.1h-3.3l-1.2-4.7h-5.5l-1.2,4.7H103.6z M110.7,129.1l-2.2,10.4h4.3
			L110.7,129.1z"/>
		<path class="st1" d="M130.2,146.4c-0.6,0.3-1.1,0.5-1.6,0.7c-0.6,0.1-1.2,0.2-1.7,0.2c-2.5,0-4.3-1-5.5-3c-1.3-2-1.8-5-1.8-9
			c0-4.1,0.7-7.2,1.9-9.3c1.3-2.1,3.2-3.2,5.8-3.2c0.6,0,1.1,0.1,1.5,0.2c0.5,0.1,1,0.3,1.4,0.5v3.1c-0.5-0.2-0.9-0.4-1.3-0.5
			c-0.4-0.1-0.9-0.2-1.2-0.2c-1.7,0-3,0.8-3.8,2.3c-0.8,1.5-1.2,3.9-1.2,7.2c0,3.1,0.4,5.4,1.2,6.8c0.8,1.4,1.9,2.2,3.5,2.2
			c0.5,0,0.9-0.1,1.3-0.2c0.5-0.2,1-0.4,1.5-0.7L130.2,146.4L130.2,146.4z"/>
		<path class="st1" d="M131.2,146.9l5.6-24.1h3.1l5.6,24.1h-3.3l-1.2-4.7h-5.5l-1.2,4.7H131.2z M138.4,129.1l-2.2,10.4h4.3
			L138.4,129.1z"/>
		<path class="st1" d="M147.4,142.7c0.8,0.5,1.4,0.9,2.1,1.1c0.7,0.2,1.3,0.4,1.8,0.4c1,0,1.7-0.3,2.3-0.9c0.6-0.6,0.9-1.3,0.9-2.3
			c0-1.4-1.2-3.1-3.4-4.8c-0.3-0.2-0.5-0.4-0.6-0.5c-1.4-1.2-2.4-2.3-3-3.3c-0.6-1-0.9-2.1-0.9-3.4c0-1.8,0.6-3.3,1.7-4.5
			s2.6-1.8,4.2-1.8c0.8,0,1.4,0.1,2.1,0.3c0.7,0.2,1.3,0.5,2,0.9v3.3c-0.6-0.5-1.3-0.8-1.8-1s-1.2-0.3-1.7-0.3
			c-1.1,0-1.8,0.3-2.4,0.9c-0.6,0.6-1,1.4-1,2.4c0,1.3,1.2,3,3.6,4.9c0.2,0.2,0.4,0.3,0.5,0.4c1.3,1.2,2.3,2.2,2.9,3.2
			c0.6,1.1,0.9,2.2,0.9,3.5c0,1.8-0.6,3.4-1.7,4.5s-2.7,1.8-4.5,1.8c-0.7,0-1.3-0.1-2-0.3s-1.4-0.5-2.1-0.9L147.4,142.7L147.4,142.7
			z"/>
		<path class="st1" d="M173.4,136.7v10.2H170v-10.2l-4.5-13.8h3.4l2,6.7c0.1,0.5,0.3,1,0.4,1.6c0.2,0.7,0.3,1.4,0.4,2.2
			c0.1-0.7,0.2-1.3,0.4-2c0.1-0.6,0.3-1.3,0.5-1.8l2-6.7h3.4L173.4,136.7z"/>
		<path class="st1" d="M190.1,135.2v11.7h-3.3v-24.1h3.9c2.6,0,4.4,0.5,5.6,1.4c1.2,1,1.6,2.6,1.6,4.8c0,1.7-0.4,3.2-1.2,4.1
			c-0.8,1-1.9,1.5-3.4,1.7l5.7,11.8h-3.5L190.1,135.2L190.1,135.2L190.1,135.2z M190.1,133.4h1c1.3,0,2.2-0.3,2.8-1
			c0.6-0.6,0.8-1.7,0.8-3.3c0-1.3-0.3-2.2-0.8-2.7c-0.5-0.5-1.5-0.8-2.9-0.8h-0.9V133.4z"/>
		<path class="st1" d="M201.5,146.9v-24.1h9.6v2.9h-6.4v7.1h5.9v2.9h-5.9v8.1h6.4v3L201.5,146.9L201.5,146.9z"/>
		<path class="st1" d="M224.4,146.4c-0.6,0.3-1.1,0.5-1.6,0.7c-0.6,0.1-1.2,0.2-1.7,0.2c-2.5,0-4.3-1-5.5-3c-1.3-2-1.8-5-1.8-9
			c0-4.1,0.7-7.2,1.9-9.3c1.3-2.1,3.2-3.2,5.8-3.2c0.6,0,1.1,0.1,1.5,0.2c0.5,0.1,1,0.3,1.4,0.5v3.1c-0.5-0.2-0.9-0.4-1.3-0.5
			c-0.4-0.1-0.9-0.2-1.2-0.2c-1.7,0-3,0.8-3.8,2.3c-0.8,1.5-1.2,3.9-1.2,7.2c0,3.1,0.4,5.4,1.2,6.8c0.8,1.4,1.9,2.2,3.5,2.2
			c0.5,0,0.9-0.1,1.3-0.2c0.5-0.2,1-0.4,1.5-0.7L224.4,146.4L224.4,146.4z"/>
		<path class="st1" d="M226.6,134.9c0-4.4,0.6-7.5,1.6-9.4s2.8-2.9,5.2-2.9c2.4,0,4.1,1,5.2,2.9c1.1,1.9,1.6,5.1,1.6,9.5
			s-0.6,7.5-1.6,9.4c-1.1,1.9-2.8,2.9-5.2,2.9c-2.4,0-4.1-1-5.2-2.9C227.2,142.5,226.6,139.3,226.6,134.9z M229.8,134.9
			c0,3.4,0.3,5.8,0.9,7.2c0.6,1.4,1.4,2.1,2.8,2.1c1.3,0,2.2-0.7,2.7-2c0.5-1.3,0.8-3.8,0.8-7.3c0-3.5-0.3-5.9-0.8-7.2
			c-0.6-1.3-1.4-2-2.7-2s-2.2,0.7-2.8,2C230.1,129,229.8,131.4,229.8,134.9z"/>
		<path class="st1" d="M243.8,146.9v-24.1h3l6.4,16.6v-16.6h3.1v24.1h-3.1l-6.4-16.8v16.8H243.8z"/>
		<path class="st1" d="M259.8,134.9c0-4.4,0.6-7.5,1.6-9.4s2.8-2.9,5.2-2.9c2.4,0,4.1,1,5.2,2.9s1.6,5.1,1.6,9.5s-0.6,7.5-1.6,9.4
			c-1.1,1.9-2.8,2.9-5.2,2.9c-2.4,0-4.1-1-5.2-2.9C260.4,142.5,259.8,139.3,259.8,134.9z M263,134.9c0,3.4,0.3,5.8,0.9,7.2
			s1.4,2.1,2.8,2.1c1.3,0,2.2-0.7,2.7-2s0.8-3.8,0.8-7.3c0-3.5-0.3-5.9-0.8-7.2c-0.6-1.3-1.4-2-2.7-2s-2.2,0.7-2.8,2
			C263.3,129,263,131.4,263,134.9z"/>
		<path class="st1" d="M287,146.4c-0.6,0.3-1.1,0.5-1.6,0.7s-1.2,0.2-1.7,0.2c-2.5,0-4.3-1-5.5-3c-1.3-2-1.8-5-1.8-9
			c0-4.1,0.7-7.2,1.9-9.3c1.3-2.1,3.2-3.2,5.8-3.2c0.6,0,1.1,0.1,1.5,0.2c0.5,0.1,1,0.3,1.4,0.5v3.1c-0.5-0.2-0.9-0.4-1.3-0.5
			c-0.4-0.1-0.9-0.2-1.2-0.2c-1.7,0-3,0.8-3.8,2.3c-0.8,1.5-1.2,3.9-1.2,7.2c0,3.1,0.4,5.4,1.2,6.8s1.9,2.2,3.5,2.2
			c0.5,0,0.9-0.1,1.3-0.2c0.5-0.2,1-0.4,1.5-0.7L287,146.4L287,146.4z"/>
		<path class="st1" d="M289.9,146.9v-24.1h3.3v24.1H289.9z"/>
		<path class="st1" d="M296.5,146.9l2-24.1h2.9l3.3,16.6l3.4-16.6h2.8l2.1,24.1h-3l-1-16.8l-3.2,16.8h-2.2l-3.2-16.8l-1,16.8H296.5z
			"/>
		<path class="st1" d="M316.4,146.9v-24.1h3.3v24.1H316.4z"/>
		<path class="st1" d="M323.8,146.9v-24.1h9.6v2.9H327v7.1h5.9v2.9H327v8.1h6.4v3L323.8,146.9L323.8,146.9z"/>
		<path class="st1" d="M336.8,146.9v-24.1h3l6.4,16.7V123h3.1V147h-3.1l-6.4-16.8V147L336.8,146.9L336.8,146.9z"/>
		<path class="st1" d="M356.2,146.9v-21h-4.4v-3H364v3h-4.4v21H356.2z"/>
		<path class="st1" d="M365.1,134.9c0-4.4,0.6-7.5,1.6-9.4c1.1-1.9,2.8-2.9,5.2-2.9c2.4,0,4.1,1,5.2,2.9s1.6,5.1,1.6,9.5
			s-0.6,7.5-1.6,9.4c-1.1,1.9-2.8,2.9-5.2,2.9c-2.4,0-4.1-1-5.2-2.9C365.6,142.5,365.1,139.3,365.1,134.9z M368.3,134.9
			c0,3.4,0.3,5.8,0.9,7.2c0.6,1.4,1.4,2.1,2.8,2.1c1.3,0,2.2-0.7,2.7-2c0.5-1.3,0.8-3.8,0.8-7.3c0-3.5-0.3-5.9-0.8-7.2
			c-0.6-1.3-1.4-2-2.7-2s-2.2,0.7-2.8,2C368.6,129,368.3,131.4,368.3,134.9z"/>
		<path class="st1" d="M381.7,142.7c0.8,0.5,1.4,0.9,2.1,1.1c0.7,0.2,1.3,0.4,1.8,0.4c1,0,1.7-0.3,2.3-0.9c0.6-0.6,0.9-1.3,0.9-2.3
			c0-1.4-1.2-3.1-3.4-4.8c-0.3-0.2-0.5-0.4-0.6-0.5c-1.4-1.2-2.4-2.3-3-3.3c-0.6-1-0.9-2.1-0.9-3.4c0-1.8,0.6-3.3,1.7-4.5
			c1.2-1.3,2.6-1.8,4.2-1.8c0.8,0,1.4,0.1,2.1,0.3c0.7,0.2,1.3,0.5,2,0.9v3.3c-0.6-0.5-1.3-0.8-1.8-1s-1.2-0.3-1.7-0.3
			c-1.1,0-1.8,0.3-2.4,0.9s-1,1.4-1,2.4c0,1.3,1.2,3,3.6,4.9c0.2,0.2,0.4,0.3,0.5,0.4c1.3,1.2,2.3,2.2,2.9,3.2
			c0.6,1.1,0.9,2.2,0.9,3.5c0,1.8-0.6,3.4-1.7,4.5s-2.7,1.8-4.5,1.8c-0.7,0-1.3-0.1-2-0.3s-1.4-0.5-2.1-0.9L381.7,142.7L381.7,142.7
			z"/>
	</g>
</g>
<circle class="st0" cx="68.7" cy="133.9" r="3"/>
</svg>
