<svg width="117" height="54" viewBox="0 0 117 54" fill="none" xmlns="http://www.w3.org/2000/svg">
<path d="M30.7894 0C31.7238 0 32.4812 0.748502 32.4812 1.67183V5.34201C32.4812 6.04852 32.9306 6.6789 33.6039 6.91653L36.767 8.03261C36.987 8.11026 37.0629 8.37997 36.9154 8.55897L33.8765 12.2448C33.7809 12.3608 33.7021 12.4881 33.6416 12.6229C31.7268 11.8156 29.6193 11.3684 27.406 11.3684C18.6234 11.3684 11.5037 18.4043 11.5037 27.0836C11.5037 35.7628 18.6234 42.7988 27.406 42.7988C29.6169 42.7988 31.7222 42.3523 33.6353 41.5465C33.6927 41.6777 33.7672 41.802 33.8577 41.9158L36.9276 45.777C37.0704 45.9566 36.9929 46.2217 36.7753 46.2985L33.6039 47.4178C32.9306 47.6555 32.4812 48.2858 32.4812 48.9924V52.3282C32.4812 53.2515 31.7238 54 30.7894 54H23.8534C22.919 54 22.1616 53.2515 22.1616 52.3282V48.946C22.1616 48.2625 21.7405 47.6479 21.0984 47.394L17.1919 45.8498C16.6071 45.6187 15.941 45.7276 15.4628 46.1326L12.6645 48.5029C12.0053 49.0612 11.0255 49.0358 10.3969 48.4441L5.56089 43.893C4.90925 43.2796 4.85763 42.2694 5.44327 41.5942L7.81036 38.8651C8.21042 38.4038 8.32574 37.7644 8.1117 37.1949L6.66911 33.3559C6.42289 32.7008 5.79022 32.2663 5.08311 32.2663H1.69173C0.757412 32.2663 0 31.5178 0 30.5944V23.9071C0 22.9838 0.757412 22.2353 1.69173 22.2353H5.06065C5.77879 22.2353 6.41883 21.7872 6.65688 21.1176L8.13516 16.9596C8.33537 16.3964 8.21664 15.7703 7.82358 15.3171L5.36925 12.4878C4.8145 11.8482 4.82797 10.9005 5.40064 10.2765L9.84638 5.43246C10.4793 4.74294 11.5602 4.69713 12.2505 5.33058L15.0114 7.86412C15.4575 8.27341 16.0917 8.41455 16.6721 8.23342L20.9794 6.8891C21.6831 6.66946 22.1616 6.0243 22.1616 5.29499V1.67183C22.1616 0.748502 22.919 0 23.8534 0H30.7894Z" fill="#2584F8"/>
<path d="M98.8589 31.05V19.05H101.859V31.05H98.8589Z" fill="black"/>
<path d="M90.6398 31.06C89.5391 31.06 88.5729 30.8907 87.7415 30.5522C86.9101 30.2137 86.2133 29.7588 85.6512 29.1875C85.1008 28.6057 84.6851 27.9604 84.404 27.2516C84.1347 26.5322 84 25.797 84 25.0459C84 24.2948 84.1405 23.5595 84.4216 22.8402C84.7026 22.1208 85.1184 21.4755 85.6687 20.9042C86.2309 20.3224 86.9335 19.8622 87.7766 19.5237C88.6198 19.1746 89.6035 19 90.7277 19C91.6177 19 92.3788 19.1005 93.0112 19.3015C93.6436 19.5025 94.1705 19.7617 94.5921 20.0791C95.0254 20.3964 95.3709 20.7349 95.6285 21.0946C95.8978 21.4437 96.0969 21.777 96.2257 22.0943C96.3663 22.4011 96.4541 22.655 96.4892 22.856C96.5361 23.057 96.5595 23.1575 96.5595 23.1575H93.5382C93.5382 23.1575 93.503 23.0729 93.4328 22.9036C93.3742 22.7238 93.2454 22.5175 93.0463 22.2848C92.859 22.052 92.5779 21.851 92.2032 21.6818C91.8285 21.5019 91.3366 21.412 90.7277 21.412C89.9314 21.412 89.2639 21.5866 88.7252 21.9357C88.1982 22.2848 87.8001 22.7344 87.5307 23.2845C87.2614 23.8346 87.1267 24.4058 87.1267 24.9983C87.1267 25.6118 87.2614 26.199 87.5307 26.7597C87.8118 27.3098 88.2216 27.7647 88.7603 28.1243C89.299 28.484 89.9665 28.6639 90.7628 28.6639C91.6059 28.6639 92.2734 28.4787 92.7653 28.1085C93.2688 27.7382 93.5792 26.6915 93.6963 26.0779H90.0212V24.1023H96.7V25.4267C96.7 26.6644 96.4365 27.7012 95.9095 28.5369C95.3943 29.3727 94.6799 30.0021 93.7665 30.4253C92.8531 30.8484 91.8109 31.06 90.6398 31.06Z" fill="black"/>
<path d="M74.0703 31.0679V19.0031H82.1104V21.3553H76.7524V23.6673H81.5237V26.0141H76.7524V28.7142H82.1206V31.0679H74.0703Z" fill="black"/>
<path d="M34.8 31.05V19.05H40.008C40.9176 19.05 41.7107 19.2013 42.3874 19.504C43.064 19.8067 43.5854 20.2392 43.9514 20.8013C44.3175 21.3635 44.5005 22.0338 44.5005 22.8122C44.5005 23.6122 44.3993 24.477 44 25.05C43.6118 25.623 42.7099 26.7581 42 27.05L44.8 31.05H41.622L39.3424 27.3343H37.5V31.05H34.8ZM39.9747 21.4662H37.5V25.05H39.9747C40.4739 25.05 40.9647 24.6049 41.3 24.05C41.5425 23.6487 41.622 23.3149 41.622 22.8932C41.622 22.4608 41.4722 22.1149 41.1727 21.8554C40.8732 21.5959 40.4739 21.4662 39.9747 21.4662Z" fill="black"/>
<path d="M61.8 31.05V19.05H67.008C67.9176 19.05 68.7107 19.2013 69.3873 19.504C70.064 19.8067 70.5853 20.2392 70.9514 20.8013C71.3175 21.3635 71.5005 22.0338 71.5005 22.8122C71.5005 23.6122 71.3993 24.477 71 25.05C70.6117 25.623 69.7099 26.7581 69 27.05L71.8 31.05H68.622L66.3424 27.3343H64.5V31.05H61.8ZM66.9747 21.4662H64.5V25.05H66.9747C67.4739 25.05 67.9646 24.6049 68.3 24.05C68.5425 23.6487 68.622 23.3149 68.622 22.8932C68.622 22.4608 68.4722 22.1149 68.1727 21.8554C67.8732 21.5959 67.4739 21.4662 66.9747 21.4662Z" fill="black"/>
<path d="M52.9086 31.05C51.8238 31.05 50.8761 30.8816 50.0653 30.5447C49.2546 30.1974 48.5752 29.7395 48.0271 29.171C47.4905 28.5921 47.0851 27.9447 46.8111 27.2289C46.537 26.5131 46.4 25.7816 46.4 25.0342C46.4 24.2868 46.537 23.5605 46.8111 22.8553C47.0851 22.1395 47.4905 21.4974 48.0271 20.9289C48.5752 20.3605 49.2546 19.9079 50.0653 19.571C50.8761 19.2237 51.8238 19.05 52.9086 19.05C53.9819 19.05 54.9239 19.2237 55.7346 19.571C56.5454 19.9079 57.2191 20.3605 57.7557 20.9289C58.3038 21.4974 58.7149 22.1395 58.9889 22.8553C59.263 23.5605 59.4 24.2868 59.4 25.0342C59.4 25.7816 59.263 26.5131 58.9889 27.2289C58.7149 27.9447 58.3038 28.5921 57.7557 29.171C57.2191 29.7395 56.5454 30.1974 55.7346 30.5447C54.9239 30.8816 53.9819 31.05 52.9086 31.05ZM52.9086 28.6026C53.6508 28.6026 54.2731 28.4289 54.7755 28.0816C55.2893 27.7342 55.6718 27.2921 55.923 26.7553C56.1857 26.2079 56.317 25.6342 56.317 25.0342C56.317 24.4447 56.1857 23.8816 55.923 23.3447C55.6718 22.7974 55.2893 22.35 54.7755 22.0026C54.2731 21.6553 53.6508 21.4816 52.9086 21.4816C52.1549 21.4816 51.5212 21.6553 51.0074 22.0026C50.505 22.35 50.1281 22.7974 49.8769 23.3447C49.6257 23.8816 49.5001 24.4447 49.5001 25.0342C49.5001 25.6342 49.6257 26.2079 49.8769 26.7553C50.1281 27.2921 50.505 27.7342 51.0074 28.0816C51.5212 28.4289 52.1549 28.6026 52.9086 28.6026Z" fill="black"/>
<path d="M110.509 31.05C109.424 31.05 108.476 30.8816 107.665 30.5447C106.855 30.1974 106.175 29.7395 105.627 29.171C105.09 28.5921 104.685 27.9447 104.411 27.2289C104.137 26.5131 104 25.7816 104 25.0342C104 24.2868 104.137 23.5605 104.411 22.8553C104.685 22.1395 105.09 21.4974 105.627 20.9289C106.175 20.3605 106.855 19.9079 107.665 19.571C108.476 19.2237 109.424 19.05 110.509 19.05C111.582 19.05 112.524 19.2237 113.335 19.571C114.145 19.9079 114.819 20.3605 115.356 20.9289C115.904 21.4974 116.315 22.1395 116.589 22.8553C116.863 23.5605 117 24.2868 117 25.0342C117 25.7816 116.863 26.5131 116.589 27.2289C116.315 27.9447 115.904 28.5921 115.356 29.171C114.819 29.7395 114.145 30.1974 113.335 30.5447C112.524 30.8816 111.582 31.05 110.509 31.05ZM110.509 28.6026C111.251 28.6026 111.873 28.4289 112.375 28.0816C112.889 27.7342 113.272 27.2921 113.523 26.7553C113.786 26.2079 113.917 25.6342 113.917 25.0342C113.917 24.4447 113.786 23.8816 113.523 23.3447C113.272 22.7974 112.889 22.35 112.375 22.0026C111.873 21.6553 111.251 21.4816 110.509 21.4816C109.755 21.4816 109.121 21.6553 108.607 22.0026C108.105 22.35 107.728 22.7974 107.477 23.3447C107.226 23.8816 107.1 24.4447 107.1 25.0342C107.1 25.6342 107.226 26.2079 107.477 26.7553C107.728 27.2921 108.105 27.7342 108.607 28.0816C109.121 28.4289 109.755 28.6026 110.509 28.6026Z" fill="black"/>
<path d="M23 31.05V19.05H28.2365C29.2543 19.05 30.1024 19.2553 30.7809 19.6658C31.4594 20.0763 31.9628 20.6066 32.2911 21.2566C32.6304 21.9066 32.8 22.5851 32.8 23.2921C32.8 24.0105 32.6304 24.6947 32.2911 25.3447C31.9628 25.9947 31.4594 26.5307 30.7809 26.9526C30.1024 27.3631 29.2543 27.5684 28.2365 27.5684H25.8399V31.05H23ZM28.2201 21.6329H25.8399V25.0026H28.2201C28.8001 25.0026 29.2324 24.8259 29.5169 24.4724C29.8015 24.1188 29.9437 23.7311 29.9437 23.3092C29.9437 22.8873 29.8015 22.5053 29.5169 22.1631C29.2324 21.8096 28.8001 21.6329 28.2201 21.6329Z" fill="black"/>
<path d="M115.905 36.04C115.723 36.04 115.568 36.0173 115.44 35.972C115.311 35.9267 115.203 35.868 115.116 35.796C115.032 35.724 114.965 35.648 114.916 35.568C114.866 35.4853 114.828 35.408 114.801 35.336C114.778 35.264 114.762 35.2053 114.754 35.16C114.746 35.1147 114.742 35.092 114.742 35.092H115.286C115.286 35.092 115.289 35.108 115.294 35.14C115.302 35.172 115.317 35.2133 115.341 35.264C115.365 35.312 115.399 35.36 115.444 35.408C115.491 35.456 115.553 35.4973 115.629 35.532C115.708 35.564 115.805 35.58 115.92 35.58C116.099 35.58 116.234 35.54 116.326 35.46C116.421 35.3773 116.468 35.276 116.468 35.156C116.468 35.0547 116.433 34.9747 116.362 34.916C116.291 34.8547 116.186 34.8093 116.046 34.78L115.66 34.696C115.511 34.664 115.37 34.616 115.239 34.552C115.11 34.488 115.006 34.4013 114.927 34.292C114.849 34.1827 114.809 34.0427 114.809 33.872C114.809 33.6933 114.852 33.5387 114.939 33.408C115.028 33.2773 115.151 33.1773 115.306 33.108C115.461 33.036 115.642 33 115.849 33C116.046 33 116.209 33.0293 116.338 33.088C116.467 33.1467 116.569 33.2187 116.645 33.304C116.724 33.3893 116.782 33.4747 116.819 33.56C116.856 33.6453 116.879 33.7173 116.89 33.776C116.903 33.8347 116.909 33.864 116.909 33.864H116.385C116.385 33.864 116.38 33.844 116.37 33.804C116.359 33.7613 116.335 33.7133 116.299 33.66C116.262 33.6067 116.207 33.56 116.133 33.52C116.06 33.4773 115.961 33.456 115.838 33.456C115.662 33.456 115.533 33.496 115.451 33.576C115.373 33.656 115.333 33.7427 115.333 33.836C115.333 33.932 115.37 34.0067 115.444 34.06C115.517 34.1133 115.616 34.1547 115.739 34.184L116.153 34.272C116.308 34.3067 116.45 34.3587 116.578 34.428C116.707 34.4973 116.81 34.5893 116.886 34.704C116.962 34.816 117 34.956 117 35.124C117 35.2947 116.958 35.4493 116.874 35.588C116.79 35.7267 116.666 35.8373 116.503 35.92C116.341 36 116.141 36.04 115.905 36.04Z" fill="#66A0EA"/>
<path d="M110.684 36V33.04H112.638V33.512H111.22V34.264H112.461V34.724H111.22V35.528H112.658V36H110.684Z" fill="#66A0EA"/>
<path d="M106.48 36V33.04H107.016V35.528H108.466V36H106.48Z" fill="#66A0EA"/>
<path d="M101.654 36L102.659 33.04H103.356L104.365 36H103.806L103.597 35.376H102.423L102.214 36H101.654ZM102.576 34.904H103.443L103.01 33.596L102.576 34.904Z" fill="#66A0EA"/>
<path d="M99.0012 36V33.04H99.5371V36H99.0012Z" fill="#66A0EA"/>
<path d="M94.5593 36V33.04H95.6941C95.9043 33.04 96.0829 33.08 96.23 33.16C96.3797 33.2373 96.4927 33.344 96.5689 33.48C96.6477 33.6133 96.6871 33.764 96.6871 33.932C96.6871 34.1213 96.6372 34.2906 96.5374 34.44C96.4375 34.5866 96.2931 34.6933 96.1039 34.76L96.7738 36H96.1788L95.5562 34.824H95.0952V36H94.5593ZM95.6862 33.512H95.0952V34.38H95.6862C95.836 34.38 95.9502 34.3373 96.029 34.252C96.1079 34.164 96.1473 34.0613 96.1473 33.944C96.1473 33.8266 96.1079 33.7253 96.029 33.64C95.9502 33.5546 95.836 33.512 95.6862 33.512Z" fill="#66A0EA"/>
<path d="M90.9859 36V33.512H90.0875V33.04H92.4203V33.512H91.5218V36H90.9859Z" fill="#66A0EA"/>
<path d="M87.0585 36.04C86.8772 36.04 86.7222 36.0173 86.5935 35.972C86.4648 35.9267 86.3571 35.868 86.2704 35.796C86.1863 35.724 86.1193 35.648 86.0694 35.568C86.0195 35.4853 85.9814 35.408 85.9551 35.336C85.9315 35.264 85.9157 35.2053 85.9078 35.16C85.9 35.1147 85.896 35.092 85.896 35.092H86.4398C86.4398 35.092 86.4424 35.108 86.4477 35.14C86.4556 35.172 86.4713 35.2133 86.495 35.264C86.5186 35.312 86.5528 35.36 86.5974 35.408C86.6447 35.456 86.7064 35.4973 86.7826 35.532C86.8614 35.564 86.9586 35.58 87.0742 35.58C87.2528 35.58 87.3881 35.54 87.4801 35.46C87.5747 35.3773 87.6219 35.276 87.6219 35.156C87.6219 35.0547 87.5865 34.9747 87.5155 34.916C87.4446 34.8547 87.3395 34.8093 87.2003 34.78L86.8141 34.696C86.6644 34.664 86.5239 34.616 86.3925 34.552C86.2638 34.488 86.16 34.4013 86.0812 34.292C86.0024 34.1827 85.963 34.0427 85.963 33.872C85.963 33.6933 86.0064 33.5387 86.0931 33.408C86.1824 33.2773 86.3045 33.1773 86.4595 33.108C86.6145 33.036 86.7958 33 87.0033 33C87.2003 33 87.3632 33.0293 87.4919 33.088C87.6206 33.1467 87.7231 33.2187 87.7993 33.304C87.8781 33.3893 87.9359 33.4747 87.9726 33.56C88.0094 33.6453 88.0331 33.7173 88.0436 33.776C88.0567 33.8347 88.0633 33.864 88.0633 33.864H87.5392C87.5392 33.864 87.5339 33.844 87.5234 33.804C87.5129 33.7613 87.4893 33.7133 87.4525 33.66C87.4157 33.6067 87.3606 33.56 87.287 33.52C87.2134 33.4773 87.1149 33.456 86.9915 33.456C86.8155 33.456 86.6867 33.496 86.6053 33.576C86.5265 33.656 86.4871 33.7427 86.4871 33.836C86.4871 33.932 86.5239 34.0067 86.5974 34.06C86.671 34.1133 86.7695 34.1547 86.893 34.184L87.3067 34.272C87.4617 34.3067 87.6035 34.3587 87.7323 34.428C87.861 34.4973 87.9634 34.5893 88.0396 34.704C88.1158 34.816 88.1539 34.956 88.1539 35.124C88.1539 35.2947 88.1119 35.4493 88.0278 35.588C87.9437 35.7267 87.8203 35.8373 87.6574 35.92C87.4945 36 87.2949 36.04 87.0585 36.04Z" fill="#66A0EA"/>
<path d="M82.5805 36.04C82.3651 36.04 82.1694 35.9986 81.9934 35.916C81.8174 35.8306 81.6782 35.7026 81.5757 35.532C81.4733 35.3613 81.4221 35.1466 81.4221 34.888V33.04H81.958V34.888C81.958 35.0693 82.0079 35.2213 82.1077 35.344C82.2101 35.4666 82.3678 35.528 82.5805 35.528C82.796 35.528 82.9549 35.4666 83.0573 35.344C83.1598 35.2213 83.211 35.0693 83.211 34.888V33.04H83.743V34.888C83.743 35.1466 83.6917 35.3613 83.5893 35.532C83.4868 35.7026 83.3476 35.8306 83.1716 35.916C82.9982 35.9986 82.8012 36.04 82.5805 36.04Z" fill="#66A0EA"/>
<path d="M76.7993 36V33.04H77.8475C78.0839 33.04 78.2901 33.0826 78.4661 33.168C78.6448 33.2506 78.7932 33.3626 78.9114 33.504C79.0296 33.6453 79.1176 33.804 79.1754 33.98C79.2358 34.156 79.266 34.336 79.266 34.52C79.266 34.704 79.2358 34.884 79.1754 35.06C79.1176 35.236 79.0296 35.3946 78.9114 35.536C78.7932 35.6773 78.6448 35.7906 78.4661 35.876C78.2901 35.9586 78.0839 36 77.8475 36H76.7993ZM77.8238 33.516H77.3352V35.52H77.8238C78.0287 35.52 78.1982 35.472 78.3321 35.376C78.4661 35.2773 78.5659 35.152 78.6316 35C78.6973 34.8453 78.7301 34.684 78.7301 34.516C78.7301 34.3506 78.6973 34.192 78.6316 34.04C78.5659 33.8853 78.4661 33.76 78.3321 33.664C78.1982 33.5653 78.0287 33.516 77.8238 33.516Z" fill="#66A0EA"/>
<path d="M72.1765 36V33.04H72.6651L74.0049 35.048V33.04H74.5368V36H74.0482L72.7085 34.028V36H72.1765Z" fill="#66A0EA"/>
<path d="M69.3777 36V33.04H69.9136V36H69.3777Z" fill="#66A0EA"/>
<path d="M63.547 36.04C63.3657 36.04 63.2108 36.0173 63.082 35.972C62.9533 35.9267 62.8456 35.868 62.7589 35.796C62.6749 35.724 62.6079 35.648 62.558 35.568C62.5081 35.4853 62.47 35.408 62.4437 35.336C62.42 35.264 62.4043 35.2053 62.3964 35.16C62.3885 35.1147 62.3846 35.092 62.3846 35.092H62.9284C62.9284 35.092 62.931 35.108 62.9362 35.14C62.9441 35.172 62.9599 35.2133 62.9835 35.264C63.0072 35.312 63.0413 35.36 63.086 35.408C63.1333 35.456 63.195 35.4973 63.2712 35.532C63.35 35.564 63.4472 35.58 63.5628 35.58C63.7414 35.58 63.8767 35.54 63.9686 35.46C64.0632 35.3773 64.1105 35.276 64.1105 35.156C64.1105 35.0547 64.075 34.9747 64.0041 34.916C63.9332 34.8547 63.8281 34.8093 63.6889 34.78L63.3027 34.696C63.153 34.664 63.0124 34.616 62.8811 34.552C62.7524 34.488 62.6486 34.4013 62.5698 34.292C62.491 34.1827 62.4516 34.0427 62.4516 33.872C62.4516 33.6933 62.4949 33.5387 62.5816 33.408C62.6709 33.2773 62.7931 33.1773 62.9481 33.108C63.1031 33.036 63.2843 33 63.4918 33C63.6889 33 63.8517 33.0293 63.9805 33.088C64.1092 33.1467 64.2116 33.2187 64.2878 33.304C64.3666 33.3893 64.4244 33.4747 64.4612 33.56C64.498 33.6453 64.5216 33.7173 64.5321 33.776C64.5453 33.8347 64.5518 33.864 64.5518 33.864H64.0277C64.0277 33.864 64.0225 33.844 64.012 33.804C64.0015 33.7613 63.9778 33.7133 63.9411 33.66C63.9043 33.6067 63.8491 33.56 63.7756 33.52C63.702 33.4773 63.6035 33.456 63.48 33.456C63.304 33.456 63.1753 33.496 63.0939 33.576C63.0151 33.656 62.9756 33.7427 62.9756 33.836C62.9756 33.932 63.0124 34.0067 63.086 34.06C63.1595 34.1133 63.258 34.1547 63.3815 34.184L63.7953 34.272C63.9502 34.3067 64.0921 34.3587 64.2208 34.428C64.3495 34.4973 64.452 34.5893 64.5282 34.704C64.6044 34.816 64.6424 34.956 64.6424 35.124C64.6424 35.2947 64.6004 35.4493 64.5164 35.588C64.4323 35.7267 64.3088 35.8373 64.146 35.92C63.9831 36 63.7834 36.04 63.547 36.04Z" fill="#66A0EA"/>
<path d="M58.3262 36V33.04H60.2807V33.512H58.8621V34.264H60.1034V34.724H58.8621V35.528H60.3004V36H58.3262Z" fill="#66A0EA"/>
<path d="M53.7035 36V33.04H54.1921L55.5318 35.048V33.04H56.0638V36H55.5752L54.2354 34.028V36H53.7035Z" fill="#66A0EA"/>
<path d="M50.0935 36.04C49.8545 36.04 49.6443 35.9973 49.4631 35.912C49.2818 35.824 49.1295 35.708 49.006 35.564C48.8851 35.4173 48.7932 35.2533 48.7302 35.072C48.6697 34.8907 48.6395 34.7053 48.6395 34.516C48.6395 34.3267 48.6697 34.1427 48.7302 33.964C48.7932 33.7827 48.8851 33.62 49.006 33.476C49.1295 33.332 49.2818 33.2173 49.4631 33.132C49.6443 33.044 49.8545 33 50.0935 33C50.3326 33 50.5428 33.044 50.724 33.132C50.9053 33.2173 51.0563 33.332 51.1772 33.476C51.3006 33.62 51.3926 33.7827 51.453 33.964C51.516 34.1427 51.5476 34.3267 51.5476 34.516C51.5476 34.7053 51.516 34.8907 51.453 35.072C51.3926 35.2533 51.3006 35.4173 51.1772 35.564C51.0563 35.708 50.9053 35.824 50.724 35.912C50.5428 35.9973 50.3326 36.04 50.0935 36.04ZM50.0935 35.548C50.2906 35.548 50.4548 35.4987 50.5861 35.4C50.7201 35.3013 50.8212 35.1733 50.8895 35.016C50.9604 34.8587 50.9959 34.692 50.9959 34.516C50.9959 34.3427 50.9604 34.1787 50.8895 34.024C50.8212 33.8667 50.7201 33.7387 50.5861 33.64C50.4548 33.5413 50.2906 33.492 50.0935 33.492C49.8965 33.492 49.731 33.5413 49.5971 33.64C49.4631 33.7387 49.3619 33.8667 49.2936 34.024C49.2253 34.1787 49.1912 34.3427 49.1912 34.516C49.1912 34.692 49.2253 34.8587 49.2936 35.016C49.3619 35.1733 49.4631 35.3013 49.5971 35.4C49.731 35.4987 49.8965 35.548 50.0935 35.548Z" fill="#66A0EA"/>
<path d="M45.9471 36V33.04H46.483V36H45.9471Z" fill="#66A0EA"/>
<path d="M42.5019 36.04C42.2655 36.04 42.058 35.9973 41.8793 35.912C41.7033 35.824 41.5549 35.708 41.4341 35.564C41.3159 35.4173 41.2265 35.2547 41.1661 35.076C41.1083 34.8947 41.0794 34.7093 41.0794 34.52C41.0794 34.3307 41.1083 34.1453 41.1661 33.964C41.2265 33.7827 41.3159 33.62 41.4341 33.476C41.5549 33.3293 41.7033 33.2133 41.8793 33.128C42.058 33.0427 42.2655 33 42.5019 33C42.699 33 42.8684 33.0253 43.0102 33.076C43.1521 33.1267 43.2703 33.192 43.3649 33.272C43.4595 33.352 43.5343 33.4373 43.5895 33.528C43.6473 33.6187 43.6906 33.704 43.7195 33.784C43.7484 33.864 43.7668 33.9293 43.7747 33.98C43.7852 34.0307 43.7905 34.056 43.7905 34.056H43.2585C43.2585 34.056 43.2532 34.0373 43.2427 34C43.2349 33.9627 43.2165 33.916 43.1876 33.86C43.1613 33.8013 43.1206 33.744 43.0654 33.688C43.0102 33.632 42.9367 33.5853 42.8447 33.548C42.7554 33.5107 42.6438 33.492 42.5098 33.492C42.3627 33.492 42.234 33.5213 42.1237 33.58C42.0133 33.636 41.9214 33.7133 41.8478 33.812C41.7743 33.9107 41.7191 34.0213 41.6823 34.144C41.6482 34.2667 41.6311 34.392 41.6311 34.52C41.6311 34.648 41.6482 34.7733 41.6823 34.896C41.7191 35.016 41.7743 35.1253 41.8478 35.224C41.9214 35.3227 42.0133 35.4013 42.1237 35.46C42.234 35.5187 42.3627 35.548 42.5098 35.548C42.6438 35.548 42.7554 35.5293 42.8447 35.492C42.9367 35.452 43.0102 35.404 43.0654 35.348C43.1206 35.292 43.1613 35.236 43.1876 35.18C43.2165 35.124 43.2349 35.0773 43.2427 35.04C43.2532 35 43.2585 34.98 43.2585 34.98H43.7905C43.7905 34.98 43.7852 35.0053 43.7747 35.056C43.7668 35.1067 43.7484 35.1733 43.7195 35.256C43.6906 35.336 43.6473 35.4213 43.5895 35.512C43.5343 35.6 43.4595 35.6853 43.3649 35.768C43.2703 35.848 43.1521 35.9133 43.0102 35.964C42.8684 36.0147 42.699 36.04 42.5019 36.04Z" fill="#66A0EA"/>
<path d="M37.76 36.04C37.5446 36.04 37.3489 35.9986 37.1729 35.916C36.9969 35.8306 36.8577 35.7026 36.7552 35.532C36.6528 35.3613 36.6015 35.1466 36.6015 34.888V33.04H37.1374V34.888C37.1374 35.0693 37.1873 35.2213 37.2872 35.344C37.3896 35.4666 37.5472 35.528 37.76 35.528C37.9754 35.528 38.1344 35.4666 38.2368 35.344C38.3393 35.2213 38.3905 35.0693 38.3905 34.888V33.04H38.9224V34.888C38.9224 35.1466 38.8712 35.3613 38.7688 35.532C38.6663 35.7026 38.5271 35.8306 38.3511 35.916C38.1777 35.9986 37.9807 36.04 37.76 36.04Z" fill="#66A0EA"/>
<path d="M32.3982 36V33.04H32.9341V35.528H34.3842V36H32.3982Z" fill="#66A0EA"/>
<path d="M28.7883 36.04C28.5492 36.04 28.3391 35.9973 28.1578 35.912C27.9765 35.824 27.8242 35.708 27.7007 35.564C27.5799 35.4173 27.4879 35.2533 27.4249 35.072C27.3645 34.8907 27.3343 34.7053 27.3343 34.516C27.3343 34.3267 27.3645 34.1427 27.4249 33.964C27.4879 33.7827 27.5799 33.62 27.7007 33.476C27.8242 33.332 27.9765 33.2173 28.1578 33.132C28.3391 33.044 28.5492 33 28.7883 33C29.0273 33 29.2375 33.044 29.4187 33.132C29.6 33.2173 29.7511 33.332 29.8719 33.476C29.9954 33.62 30.0873 33.7827 30.1477 33.964C30.2108 34.1427 30.2423 34.3267 30.2423 34.516C30.2423 34.7053 30.2108 34.8907 30.1477 35.072C30.0873 35.2533 29.9954 35.4173 29.8719 35.564C29.7511 35.708 29.6 35.824 29.4187 35.912C29.2375 35.9973 29.0273 36.04 28.7883 36.04ZM28.7883 35.548C28.9853 35.548 29.1495 35.4987 29.2808 35.4C29.4148 35.3013 29.5159 35.1733 29.5842 35.016C29.6552 34.8587 29.6906 34.692 29.6906 34.516C29.6906 34.3427 29.6552 34.1787 29.5842 34.024C29.5159 33.8667 29.4148 33.7387 29.2808 33.64C29.1495 33.5413 28.9853 33.492 28.7883 33.492C28.5913 33.492 28.4258 33.5413 28.2918 33.64C28.1578 33.7387 28.0567 33.8667 27.9884 34.024C27.9201 34.1787 27.8859 34.3427 27.8859 34.516C27.8859 34.692 27.9201 34.8587 27.9884 35.016C28.0567 35.1733 28.1578 35.3013 28.2918 35.4C28.4258 35.4987 28.5913 35.548 28.7883 35.548Z" fill="#66A0EA"/>
<path d="M24.1624 36.04C23.9812 36.04 23.8262 36.0173 23.6975 35.972C23.5687 35.9267 23.461 35.868 23.3743 35.796C23.2903 35.724 23.2233 35.648 23.1734 35.568C23.1235 35.4853 23.0854 35.408 23.0591 35.336C23.0355 35.264 23.0197 35.2053 23.0118 35.16C23.0039 35.1147 23 35.092 23 35.092H23.5438C23.5438 35.092 23.5464 35.108 23.5517 35.14C23.5595 35.172 23.5753 35.2133 23.5989 35.264C23.6226 35.312 23.6567 35.36 23.7014 35.408C23.7487 35.456 23.8104 35.4973 23.8866 35.532C23.9654 35.564 24.0626 35.58 24.1782 35.58C24.3568 35.58 24.4921 35.54 24.5841 35.46C24.6786 35.3773 24.7259 35.276 24.7259 35.156C24.7259 35.0547 24.6904 34.9747 24.6195 34.916C24.5486 34.8547 24.4435 34.8093 24.3043 34.78L23.9181 34.696C23.7684 34.664 23.6278 34.616 23.4965 34.552C23.3678 34.488 23.264 34.4013 23.1852 34.292C23.1064 34.1827 23.067 34.0427 23.067 33.872C23.067 33.6933 23.1103 33.5387 23.197 33.408C23.2863 33.2773 23.4085 33.1773 23.5635 33.108C23.7185 33.036 23.8997 33 24.1073 33C24.3043 33 24.4672 33.0293 24.5959 33.088C24.7246 33.1467 24.827 33.2187 24.9032 33.304C24.982 33.3893 25.0398 33.4747 25.0766 33.56C25.1134 33.6453 25.137 33.7173 25.1475 33.776C25.1607 33.8347 25.1672 33.864 25.1672 33.864H24.6432C24.6432 33.864 24.6379 33.844 24.6274 33.804C24.6169 33.7613 24.5932 33.7133 24.5565 33.66C24.5197 33.6067 24.4645 33.56 24.391 33.52C24.3174 33.4773 24.2189 33.456 24.0954 33.456C23.9194 33.456 23.7907 33.496 23.7093 33.576C23.6305 33.656 23.5911 33.7427 23.5911 33.836C23.5911 33.932 23.6278 34.0067 23.7014 34.06C23.775 34.1133 23.8735 34.1547 23.9969 34.184L24.4107 34.272C24.5657 34.3067 24.7075 34.3587 24.8362 34.428C24.965 34.4973 25.0674 34.5893 25.1436 34.704C25.2198 34.816 25.2579 34.956 25.2579 35.124C25.2579 35.2947 25.2158 35.4493 25.1318 35.588C25.0477 35.7267 24.9242 35.8373 24.7614 35.92C24.5985 36 24.3989 36.04 24.1624 36.04Z" fill="#66A0EA"/>
</svg>
