<?xml version="1.0" encoding="utf-8"?>
<!-- Generator: Adobe Illustrator 23.0.0, SVG Export Plug-In . SVG Version: 6.00 Build 0)  -->
<svg version="1.1" id="Capa_1" xmlns="http://www.w3.org/2000/svg" xmlns:xlink="http://www.w3.org/1999/xlink" x="0px" y="0px"
	 viewBox="0 0 601 160" style="enable-background:new 0 0 601 160;" xml:space="preserve">
<style type="text/css">
	.st0{enable-background:new    ;}
	.st1{fill:#96999B;}
	.st2{fill:#ED3224;}
	.st3{fill:#070707;}
	.st4{fill:#080808;}
</style>
<g id="logo__item--business">
	<g class="st0">
		<path class="st1" d="M235.8,50.9c4,1.7,6.6,5.7,6.5,10.1c0.1,4.4-2.5,8.4-6.5,10.1c-2.1,0.9-4.5,1.4-7.3,1.4h-6.4v8.7h-7.3V49.5
			h13.7C231.3,49.5,233.8,50,235.8,50.9z M233.1,65.1c1.1-1,1.7-2.3,1.7-4.1s-0.6-3.2-1.7-4.1c-1.1-1-2.8-1.4-5-1.4h-6v11h6
			C230.3,66.5,232,66,233.1,65.1z"/>
	</g>
	<g class="st0">
		<path class="st1" d="M251.1,80.8c-2.3-0.7-4.2-1.6-5.6-2.7l2.5-5.5c3,2.1,6.7,3.3,10.4,3.3c1.6,0.1,3.2-0.2,4.6-0.9
			c1-0.6,1.5-1.4,1.5-2.5c0-0.8-0.3-1.4-0.9-1.9s-1.3-0.9-2.3-1.2l-3.7-1c-2-0.4-4-1-5.9-1.7c-1.5-0.6-2.9-1.6-4-2.8
			c-1.2-1.4-1.8-3.3-1.7-5.1c0-1.8,0.5-3.5,1.5-5s2.5-2.7,4.5-3.6c4.3-1.5,8.9-1.7,13.3-0.6c1.9,0.5,3.6,1.2,5.1,2.1l-2.2,5.6
			c-2.7-1.6-5.7-2.5-8.8-2.5c-2.1,0-3.6,0.3-4.6,1s-1.5,1.5-1.5,2.6c0,1.1,0.6,1.9,1.7,2.4s2.9,1,5.2,1.6c2,0.4,4,1,5.9,1.7
			c1.5,0.6,2.9,1.5,4,2.7c1.2,1.4,1.8,3.2,1.7,5c0,1.8-0.5,3.5-1.5,5c-1.1,1.6-2.7,2.9-4.6,3.6C261,82,255.9,82.1,251.1,80.8z"/>
	</g>
	<g class="st0">
		<path class="st1" d="M289.7,49.5h7.3v31.7h-7.3C289.7,81.2,289.7,49.5,289.7,49.5z"/>
	</g>
	<g class="st0">
		<path class="st1" d="M326.2,59.2c1.9,1.8,2.8,4.5,2.8,8.1v14h-7.1V68.4c0-1.9-0.4-3.4-1.3-4.3c-0.9-0.9-2.1-1.4-3.7-1.4
			c-1.8,0-3.2,0.6-4.3,1.7c-1.1,1.1-1.6,2.7-1.6,4.9v12.1h-7.1V56.8h6.8v2.9c0.9-1,2.1-1.8,3.5-2.4s2.9-0.8,4.6-0.8
			C321.9,56.5,324.3,57.4,326.2,59.2L326.2,59.2z"/>
	</g>
	<g class="st0">
		<path class="st1" d="M351.1,80c-0.7,0.5-1.5,0.9-2.6,1.2c-1,0.3-2.1,0.4-3.2,0.4c-2.9,0-5.1-0.7-6.7-2.2s-2.4-3.7-2.4-6.5v-10
			h-3.8v-5.4h3.8v-5.9h7.1v5.9h6.1v5.4h-6.1v9.9c0,1,0.3,1.8,0.8,2.4c0.5,0.6,1.3,0.8,2.2,0.8c1.1,0,2.1-0.3,2.9-0.9L351.1,80z"/>
	</g>
	<g class="st0">
		<path class="st1" d="M378.1,71h-18.4c0.3,1.5,1.2,2.8,2.4,3.6c1.2,0.9,2.8,1.3,4.6,1.3c2.3,0.1,4.5-0.8,6.1-2.4l3.8,4.1
			c-2.3,2.6-5.7,3.9-10.1,3.9c-2.8,0-5.2-0.5-7.3-1.6c-2-1-3.7-2.6-4.9-4.5c-2.3-4-2.3-9,0-13c1.1-2,2.7-3.4,4.7-4.5
			s4.2-1.6,6.6-1.6c2.4,0,4.5,0.5,6.5,1.5s3.5,2.5,4.6,4.4c1.2,2,1.7,4.4,1.7,6.7C378.2,69.2,378.2,69.9,378.1,71L378.1,71z
			 M361.5,63.2c-1.1,0.9-1.9,2.2-2,3.7h12c-0.2-1.5-0.9-2.8-2-3.7c-1.1-0.9-2.4-1.4-4-1.4C364,61.8,362.6,62.3,361.5,63.2z"/>
	</g>
	<g class="st0">
		<path class="st1" d="M393.1,57.4c1.4-0.6,3.1-0.9,5-0.9V63l-1.6-0.1c-2,0-3.6,0.6-4.8,1.7c-1.1,1.1-1.7,2.8-1.7,5.1v11.5h-7.1
			V56.8h6.8V60C390.5,58.9,391.7,58,393.1,57.4L393.1,57.4z"/>
	</g>
	<g class="st0">
		<path class="st1" d="M424.4,59.2c1.9,1.8,2.8,4.5,2.8,8.1v14h-7.1V68.4c0-1.9-0.4-3.4-1.3-4.3c-0.9-0.9-2.1-1.4-3.7-1.4
			c-1.8,0-3.2,0.6-4.3,1.7c-1.1,1.1-1.6,2.7-1.6,4.9v12.1h-7.1V56.8h6.8v2.9c0.9-1,2.1-1.8,3.5-2.4c1.4-0.6,2.9-0.8,4.6-0.8
			C420.1,56.5,422.6,57.4,424.4,59.2L424.4,59.2z"/>
	</g>
	<g class="st0">
		<path class="st1" d="M452.1,59.2c2,1.8,3,4.5,3,8.1v13.9h-6.6v-3c-1.3,2.3-3.8,3.4-7.4,3.4c-1.9,0-3.5-0.3-4.9-1
			c-1.3-0.6-2.4-1.5-3.2-2.6c-0.7-1.1-1.1-2.5-1.1-3.8c0-2.3,0.9-4,2.6-5.3c1.7-1.3,4.3-1.9,7.9-1.9h5.6c0-1.5-0.5-2.7-1.4-3.6
			c-0.9-0.8-2.3-1.2-4.2-1.2c-2.5-0.1-5,0.7-7,2.3l-2.5-4.9c1.3-0.9,2.9-1.7,4.8-2.2c1.9-0.5,3.8-0.8,5.7-0.8
			C447.2,56.5,450.1,57.4,452.1,59.2z M446.1,76c0.9-0.6,1.6-1.5,2-2.5V71h-4.8c-2.9,0-4.4,1-4.4,2.9c0,0.9,0.4,1.6,1.1,2.2
			c0.9,0.6,1.9,0.8,2.9,0.8C444.1,76.8,445.2,76.6,446.1,76L446.1,76z"/>
	</g>
	<g class="st0">
		<path class="st1" d="M477.3,80c-0.7,0.5-1.5,0.9-2.6,1.2c-1,0.3-2.1,0.4-3.2,0.4c-2.9,0-5.1-0.7-6.7-2.2c-1.6-1.5-2.4-3.7-2.4-6.5
			v-10h-3.8v-5.4h3.8v-5.9h7.1v5.9h6.1v5.4h-6.1v9.9c0,1,0.3,1.8,0.8,2.4c0.5,0.6,1.3,0.8,2.2,0.8c1.1,0,2.1-0.3,2.9-0.9L477.3,80
			L477.3,80z"/>
	</g>
	<g class="st0">
		<path class="st1" d="M481.6,52.3c-0.8-0.7-1.2-1.7-1.2-2.8c0-1.1,0.4-2.1,1.2-2.8c0.8-0.8,1.9-1.1,3.2-1.1s2.4,0.4,3.2,1.1
			c0.8,0.7,1.2,1.6,1.2,2.7c0,1.2-0.4,2.2-1.2,2.9c-0.8,0.8-1.9,1.2-3.2,1.2C483.5,53.4,482.4,53.1,481.6,52.3z M481.3,56.8h7.1
			v24.4h-7.1V56.8z"/>
	</g>
	<g class="st0">
		<path class="st1" d="M499.6,80c-2-1.1-3.6-2.6-4.8-4.5c-1.1-2-1.7-4.2-1.7-6.5c0-2.4,0.6-4.6,1.7-6.5c1.1-1.9,2.7-3.4,4.8-4.5
			c2.1-1.1,4.5-1.7,6.9-1.6c4.7-0.2,9.2,2.1,11.7,6.1c1.1,1.9,1.7,4.1,1.7,6.5s-0.6,4.6-1.7,6.5c-1.1,1.9-2.7,3.4-4.8,4.5
			s-4.3,1.6-6.9,1.6C504.1,81.7,501.7,81.1,499.6,80L499.6,80z M511,74c1.2-1.2,1.7-2.9,1.7-4.9s-0.6-3.7-1.7-4.9
			c-1.1-1.2-2.7-1.9-4.5-1.9s-3.3,0.6-4.5,1.8c-1.2,1.2-1.8,2.9-1.8,4.9s0.6,3.7,1.8,4.9c1.2,1.2,2.7,1.8,4.5,1.8S509.8,75.2,511,74
			z"/>
	</g>
	<g class="st0">
		<path class="st1" d="M546.7,59.2c1.9,1.8,2.8,4.5,2.8,8.1v14h-7.1V68.4c0-1.9-0.4-3.4-1.3-4.3c-0.9-0.9-2.1-1.4-3.7-1.4
			c-1.8,0-3.2,0.6-4.3,1.7c-1.1,1.1-1.6,2.7-1.6,4.9v12.1h-7.1V56.8h6.8v2.9c0.9-1,2.1-1.8,3.5-2.4c1.4-0.6,2.9-0.8,4.6-0.8
			C542.4,56.5,544.9,57.4,546.7,59.2L546.7,59.2z"/>
	</g>
	<g class="st0">
		<path class="st1" d="M574.4,59.2c2,1.8,3,4.5,3,8.1v13.9h-6.6v-3c-1.3,2.3-3.8,3.4-7.4,3.4c-1.9,0-3.5-0.3-4.9-1
			c-1.3-0.6-2.4-1.5-3.2-2.6c-0.7-1.1-1.1-2.5-1.1-3.8c0-2.3,0.9-4,2.6-5.3c1.7-1.3,4.3-1.9,7.9-1.9h5.6c0-1.5-0.5-2.7-1.4-3.6
			c-0.9-0.8-2.3-1.2-4.2-1.2c-2.5-0.1-5,0.7-7,2.3l-2.5-4.9c1.3-0.9,2.9-1.7,4.8-2.2c1.9-0.5,3.8-0.8,5.7-0.8
			C569.5,56.5,572.4,57.4,574.4,59.2z M568.4,76c0.9-0.6,1.6-1.5,2-2.5V71h-4.8c-2.9,0-4.4,1-4.4,2.9c0,0.9,0.4,1.6,1.1,2.2
			c0.9,0.6,1.9,0.8,2.9,0.8C566.4,76.8,567.5,76.6,568.4,76L568.4,76z"/>
	</g>
	<g class="st0">
		<path class="st1" d="M583.9,47.6h7.1v33.6h-7.1C583.9,81.2,583.9,47.6,583.9,47.6z"/>
	</g>
</g>
<g id="logo__item--tagline_1">
	<g class="st0">
		<path class="st2" d="M256.9,112.4h-2.1l-3.7-12.2c-0.4-1.1-0.7-2.3-0.9-3.5l-0.9,3.6l-3.6,12.1h-2.1l-4.8-18.2h2.2l2.9,11.2
			l0.9,4.3c0.2-1.5,0.6-3,1-4.5l3.3-11.1h2.2l3.4,11.2c0.4,1.3,0.7,2.7,1,4.4l0.9-4.3l2.9-11.2h2.2
			C261.7,94.2,256.9,112.4,256.9,112.4z"/>
	</g>
	<g class="st0">
		<path class="st2" d="M277.5,105.6c0,2.2-0.6,4-1.7,5.2c-1.2,1.3-2.9,2-4.6,1.9c-1.2,0-2.3-0.3-3.2-0.9c-1-0.6-1.7-1.5-2.2-2.5
			c-0.5-1.2-0.8-2.5-0.8-3.8c0-2.2,0.6-4,1.7-5.2c1.2-1.3,2.9-2,4.6-1.9c1.9,0,3.4,0.6,4.5,1.9C276.9,101.6,277.5,103.4,277.5,105.6
			z M267.1,105.6c0,1.7,0.3,3.1,1,4c0.7,0.9,1.7,1.4,3.1,1.4c1.4,0,2.4-0.5,3.1-1.4c0.7-0.9,1.1-2.2,1.1-4c0-1.7-0.4-3.1-1.1-4
			c-0.7-0.9-1.7-1.4-3.1-1.4c-1.4,0-2.4,0.4-3.1,1.3C267.4,102.7,267,104.2,267.1,105.6z"/>
	</g>
	<g class="st0">
		<path class="st2" d="M288.7,98.5c0.5,0,1.1,0,1.6,0.1l-0.3,1.9l-1.5-0.2c-1.1,0-2,0.4-2.8,1.3c-0.8,0.9-1.2,2-1.2,3.3v7.3h-2.1
			V98.7h1.7l0.2,2.5h0.1c0.5-0.9,1.1-1.6,1.8-2.1C286.9,98.6,287.9,98.5,288.7,98.5z"/>
	</g>
	<g class="st0">
		<path class="st2" d="M296.4,112.4h-2.1V93h2.1C296.4,93,296.4,112.4,296.4,112.4z"/>
	</g>
	<g class="st0">
		<path class="st2" d="M311.5,110.6h-0.1c-1,1.4-2.6,2.2-4.3,2.1c-1.8,0-3.2-0.6-4.2-1.8c-1-1.2-1.5-3-1.5-5.2s0.5-4,1.5-5.2
			c1-1.2,2.4-1.9,4.2-1.9c1.9,0,3.3,0.7,4.3,2h0.2l-0.1-1V93h2.1v19.4h-1.7C311.9,112.4,311.5,110.6,311.5,110.6z M307.3,110.9
			c1.4,0,2.4-0.4,3.1-1.2c0.7-0.8,1-2,1-3.7v-0.4c0-1.9-0.3-3.3-1-4.1c-0.6-0.8-1.7-1.2-3.1-1.2c-1.2,0-2.1,0.5-2.8,1.4
			c-0.6,0.9-1,2.3-1,4c0,1.7,0.3,3.1,1,3.9C305.2,110.5,306.1,110.9,307.3,110.9z"/>
	</g>
	<g class="st0">
		<path class="st2" d="M330.4,112.4l-2.5-8l-0.9-3.3h-0.1l-0.9,3.4l-2.6,8H321l-3.7-13.6h2.2l2,7.8l0.8,3.6h0.1l0.4-1.8l0.5-1.8
			l2.5-7.8h2.2l2.4,7.8c0.5,1.4,0.8,2.6,0.9,3.6h0.1l0.3-1.4l2.6-10h2.1l-3.8,13.6h-2.2L330.4,112.4z"/>
	</g>
	<g class="st0">
		<path class="st2" d="M340.3,95c0-0.5,0.1-0.8,0.3-1c0.2-0.2,0.5-0.3,0.9-0.3l0.9,0.3c0.2,0.2,0.4,0.6,0.4,1c0,0.4-0.1,0.8-0.4,1
			c-0.2,0.2-0.5,0.3-0.9,0.3l-0.9-0.3C340.4,95.9,340.3,95.5,340.3,95z M342.5,112.4h-2.1V98.7h2.1V112.4z"/>
	</g>
	<g class="st0">
		<path class="st2" d="M357.6,110.6L357.6,110.6c-1.1,1.4-2.7,2.2-4.4,2.1c-1.8,0-3.2-0.6-4.2-1.8c-1-1.2-1.5-3-1.5-5.2
			s0.5-4,1.5-5.2c1-1.2,2.4-1.9,4.2-1.9s3.3,0.7,4.3,2h0.2l-0.1-1l-0.1-1V93h2.1v19.4h-1.7L357.6,110.6L357.6,110.6z M353.5,110.9
			c1.4,0,2.4-0.4,3.1-1.2c0.7-0.8,1-2,1-3.7v-0.4c0-1.9-0.3-3.3-1-4.1c-0.6-0.8-1.7-1.2-3.1-1.2c-1.2,0-2.1,0.5-2.8,1.4
			c-0.6,0.9-1,2.3-1,4c0,1.7,0.3,3.1,1,3.9C351.3,110.5,352.2,110.9,353.5,110.9z"/>
	</g>
	<g class="st0">
		<path class="st2" d="M371.1,112.6c-2,0-3.6-0.6-4.8-1.8s-1.7-2.9-1.7-5.1c0-2.2,0.5-3.9,1.6-5.2c1.1-1.3,2.7-2,4.4-1.9
			c1.7,0,3.1,0.6,4.1,1.7c1,1.1,1.5,2.6,1.5,4.5v1.3h-9.4c0,1.6,0.4,2.8,1.2,3.6s1.8,1.2,3.2,1.2c1.5,0,2.9-0.3,4.4-0.9v1.8
			l-2.1,0.7C373.5,112.5,371.1,112.6,371.1,112.6z M370.6,100.2c-1.1,0-2,0.4-2.6,1.1c-0.7,0.7-1,1.7-1.2,3h7.1c0-1.3-0.3-2.3-0.9-3
			C372.4,100.6,371.5,100.2,370.6,100.2L370.6,100.2z"/>
	</g>
	<g class="st0">
		<path class="st2" d="M397.2,95.8c-2,0-3.6,0.7-4.7,2c-1.2,1.3-1.7,3.2-1.7,5.5c0,2.4,0.6,4.2,1.7,5.5c1.1,1.3,2.7,1.9,4.8,1.9
			c1.3,0,2.7-0.2,4.3-0.7v1.9c-1.5,0.5-3.1,0.8-4.7,0.7c-2.3,0.1-4.6-0.7-6.2-2.4c-1.5-1.6-2.2-3.9-2.2-6.9c0-1.9,0.3-3.5,1.1-4.9
			c0.7-1.4,1.7-2.5,3-3.3c1.4-0.8,3.1-1.2,4.7-1.1c1.9,0,3.6,0.3,5,1l-0.9,1.8C400,96.1,398.6,95.8,397.2,95.8L397.2,95.8z"/>
	</g>
	<g class="st0">
		<path class="st2" d="M418.4,105.6c0,2.2-0.6,4-1.7,5.2c-1.1,1.2-2.7,1.9-4.6,1.9c-1.2,0-2.3-0.3-3.2-0.9c-1-0.6-1.7-1.5-2.2-2.5
			c-0.5-1.2-0.8-2.5-0.8-3.8c0-2.2,0.6-4,1.7-5.2c1.2-1.3,2.9-2,4.6-1.9c1.9,0,3.4,0.6,4.5,1.9C417.9,101.8,418.5,103.7,418.4,105.6
			z M408,105.6c0,1.7,0.3,3.1,1,4c0.7,0.9,1.7,1.4,3.1,1.4s2.4-0.5,3.1-1.4c0.7-0.9,1.1-2.2,1.1-4c0-1.7-0.4-3.1-1.1-4
			c-0.7-0.9-1.7-1.4-3.1-1.4s-2.4,0.4-3.1,1.3C408.3,102.7,407.9,104.2,408,105.6z"/>
	</g>
	<g class="st0">
		<path class="st2" d="M432.8,112.4v-8.8c0-1.1-0.3-1.9-0.8-2.5c-0.5-0.5-1.3-0.8-2.4-0.8c-1.4,0-2.5,0.4-3.1,1.2
			c-0.7,0.8-1,2-1,3.8v7.2h-2.1V98.7h1.7l0.3,1.9h0.1c0.4-0.7,1-1.2,1.8-1.6c0.8-0.4,1.6-0.6,2.6-0.6c1.6,0,2.9,0.4,3.7,1.2
			c0.8,0.8,1.2,2.1,1.2,3.8v8.9L432.8,112.4L432.8,112.4z"/>
	</g>
	<g class="st0">
		<path class="st2" d="M449.8,112.4v-8.8c0-1.1-0.3-1.9-0.8-2.5c-0.5-0.5-1.3-0.8-2.4-0.8c-1.4,0-2.5,0.4-3.1,1.2
			c-0.7,0.8-1,2-1,3.8v7.2h-2.1V98.7h1.7l0.3,1.9h0.1c0.4-0.7,1-1.2,1.8-1.6c0.8-0.4,1.6-0.6,2.6-0.6c1.6,0,2.9,0.4,3.7,1.2
			c0.8,0.8,1.2,2.1,1.2,3.8v8.9L449.8,112.4L449.8,112.4z"/>
	</g>
	<g class="st0">
		<path class="st2" d="M463.3,112.6c-2,0-3.6-0.6-4.8-1.8s-1.7-2.9-1.7-5.1c0-2.2,0.5-3.9,1.6-5.2c1.1-1.3,2.7-2,4.4-1.9
			c1.7,0,3.1,0.6,4.1,1.7c1,1.1,1.5,2.6,1.5,4.5v1.3H459c0,1.6,0.4,2.8,1.2,3.6c0.8,0.8,1.8,1.2,3.2,1.2c1.5,0,2.9-0.3,4.4-0.9v1.8
			l-2.1,0.7L463.3,112.6L463.3,112.6z M462.8,100.2c-1.1,0-2,0.4-2.6,1.1c-0.7,0.7-1,1.7-1.2,3h7.1c0-1.3-0.3-2.3-0.9-3
			C464.6,100.6,463.7,100.2,462.8,100.2z"/>
	</g>
	<g class="st0">
		<path class="st2" d="M478.7,112.6c-2,0-3.5-0.6-4.6-1.8c-1.1-1.2-1.6-2.9-1.6-5.2c0-2.3,0.5-4,1.6-5.3c1.1-1.3,2.7-1.9,4.7-1.9
			l2,0.2c0.7,0.1,1.2,0.3,1.5,0.5l-0.6,1.8l-1.5-0.5l-1.4-0.2c-2.8,0-4.2,1.8-4.2,5.3c0,1.7,0.3,3,1,3.9s1.7,1.3,3,1.3
			c1.1,0,2.3-0.2,3.5-0.7v1.8C481.3,112.4,480.1,112.6,478.7,112.6z"/>
	</g>
	<g class="st0">
		<path class="st2" d="M491.2,110.9l1.1-0.1l0.8-0.2v1.7l-1,0.3l-1.2,0.1c-2.6,0-4-1.4-4-4.2v-8.2h-2v-1l2-0.9l0.9-2.9h1.2v3.2h4
			v1.6h-4v8c0,0.8,0.2,1.5,0.6,1.9C490,110.7,490.6,110.9,491.2,110.9z"/>
	</g>
	<g class="st0">
		<path class="st2" d="M497.1,95c0-0.5,0.1-0.8,0.3-1c0.2-0.2,0.5-0.3,0.9-0.3l0.9,0.3c0.2,0.2,0.4,0.6,0.4,1c0,0.4-0.1,0.8-0.4,1
			c-0.2,0.2-0.5,0.3-0.9,0.3l-0.9-0.3C497.2,95.9,497.1,95.5,497.1,95z M499.3,112.4h-2.1V98.7h2.1V112.4z"/>
	</g>
	<g class="st0">
		<path class="st2" d="M516.9,105.6c0,2.2-0.6,4-1.7,5.2c-1.2,1.3-2.9,2-4.6,1.9c-1.2,0-2.3-0.3-3.3-0.9c-1-0.6-1.7-1.5-2.2-2.5
			c-0.5-1.2-0.8-2.5-0.8-3.8c0-2.2,0.6-4,1.7-5.2c1.2-1.3,2.9-2,4.6-1.9c1.9,0,3.4,0.6,4.6,1.9C516.4,101.8,517,103.7,516.9,105.6
			L516.9,105.6z M506.5,105.6c0,1.7,0.3,3.1,1,4c0.7,0.9,1.7,1.4,3.1,1.4c1.4,0,2.4-0.5,3.1-1.4c0.7-0.9,1.1-2.2,1.1-4
			c0-1.7-0.4-3.1-1.1-4c-0.7-0.9-1.7-1.4-3.1-1.4c-1.4,0-2.4,0.4-3.1,1.3C506.8,102.4,506.5,103.8,506.5,105.6z"/>
	</g>
	<g class="st0">
		<path class="st2" d="M531.3,112.4v-8.8c0-1.1-0.3-1.9-0.8-2.5c-0.5-0.5-1.3-0.8-2.4-0.8c-1.4,0-2.5,0.4-3.1,1.2
			c-0.7,0.8-1,2-1,3.8v7.2h-2.1V98.7h1.7l0.3,1.9h0.1c0.4-0.7,1-1.2,1.8-1.6c0.8-0.4,1.6-0.6,2.6-0.6c1.6,0,2.9,0.4,3.7,1.2
			c0.8,0.8,1.2,2.1,1.2,3.8v8.9L531.3,112.4L531.3,112.4z"/>
	</g>
</g>
<g id="logo__item--shape_1">
	<path class="st2" d="M108.7,36.9v23.2l13.6,13.1L97.1,98.6v25.8l49-51.2L108.7,36.9z"/>
	<path class="st3" d="M143.9,25.1v23.4l25,24.7l-60.2,60.6v25.6l84.2-86.2L143.9,25.1z"/>
</g>
<g id="logo__item--shape_2">
	<path class="st4" d="M89.9,123l0.6-23.2L77.3,86.4l25.9-24.8l0.7-25.8L53.5,85.8L89.9,123z"/>
	<path class="st2" d="M54.5,133.8l0.7-23.4L30.7,85.1l61.9-58.9l0.7-25.7L6.8,84.5L54.5,133.8z"/>
</g>
</svg>
