<?xml version="1.0" encoding="utf-8"?>
<!-- Generator: Adobe Illustrator 23.0.0, SVG Export Plug-In . SVG Version: 6.00 Build 0)  -->
<svg version="1.1" id="Capa_1" xmlns="http://www.w3.org/2000/svg" xmlns:xlink="http://www.w3.org/1999/xlink" x="0px" y="0px"
	 viewBox="0 0 780 300" style="enable-background:new 0 0 780 300;" xml:space="preserve">
<style type="text/css">
	.st0{fill:#2D2D2D;}
	.st1{fill:#474747;}
	.st2{fill:#EF1B29;}
	.st3{fill:#0455A7;}
</style>
<g>
	<g>
		<path id="TimesNewRoman" class="st0" d="M420,104.2v32h17.9c4.7,0,7.8-0.7,9.3-2.1c2.1-1.8,3.2-5,3.5-9.7h2.2v28.2h-2.2
			c-0.6-3.9-1.1-6.5-1.7-7.6c-0.7-1.4-1.9-2.5-3.6-3.3c-1.6-0.8-4.2-1.2-7.6-1.2h-17.9v26.7c0,3.6,0.2,5.8,0.5,6.5
			c0.3,0.8,0.9,1.4,1.7,1.8c0.8,0.5,2.3,0.7,4.6,0.7h13.9c4.6,0,8-0.3,10-1c2.1-0.6,4.1-1.9,6-3.8c2.5-2.5,5-6.2,7.6-11.2h2.4
			l-7,20.3h-62.9v-2.2h2.9c1.9,0,3.8-0.5,5.5-1.4c1.3-0.6,2.2-1.6,2.6-2.9c0.5-1.3,0.7-3.9,0.7-7.8v-52.6c0-5.1-0.5-8.3-1.6-9.5
			c-1.4-1.6-3.9-2.4-7.2-2.4h-2.9v-2.2h62.9l0.9,17.7h-2.3c-0.8-4.3-1.8-7.2-2.8-8.8c-1-1.6-2.5-2.8-4.5-3.6
			c-1.6-0.6-4.4-0.9-8.5-0.9H420V104.2z M544.2,180.7h-21.8l-27.6-37.8c-2,0.1-3.7,0.1-5,0.1c-0.5,0-1.1,0-1.7,0s-1.2,0-1.9-0.1
			v23.5c0,5.1,0.6,8.3,1.7,9.5c1.5,1.8,3.8,2.6,6.9,2.6h3.2v2.2h-35v-2.2h3.1c3.5,0,5.9-1.1,7.4-3.3c0.8-1.2,1.3-4.2,1.3-8.8v-52.3
			c0-5.1-0.6-8.3-1.7-9.5c-1.6-1.7-3.9-2.6-7-2.6H463v-2.2h29.7c8.7,0,15.1,0.6,19.2,1.9c4.1,1.3,7.6,3.6,10.5,6.9
			c2.9,3.4,4.3,7.4,4.3,12c0,5-1.6,9.3-4.9,12.9c-3.3,3.7-8.3,6.2-15.2,7.8l16.9,23.2c3.9,5.3,7.2,8.9,9.9,10.6
			c2.8,1.8,6.4,2.9,10.8,3.3L544.2,180.7L544.2,180.7z M486.2,139.1c0.8,0,1.4,0,2,0s1,0,1.4,0c7.8,0,13.7-1.7,17.6-5
			c4-3.3,5.9-7.6,5.9-12.8c0-5-1.6-9.2-4.8-12.3c-3.2-3.2-7.4-4.7-12.7-4.7c-2.3,0-5.5,0.4-9.4,1.1V139.1z M560.2,104.2v32h17.9
			c4.7,0,7.8-0.7,9.3-2.1c2.1-1.8,3.2-5,3.5-9.7h2.2v28.2h-2.2c-0.6-3.9-1.1-6.5-1.7-7.6c-0.7-1.4-1.9-2.5-3.5-3.3
			c-1.6-0.8-4.2-1.2-7.6-1.2h-17.9v26.7c0,3.6,0.2,5.8,0.5,6.5c0.3,0.8,0.9,1.4,1.7,1.8c0.8,0.5,2.3,0.7,4.6,0.7h13.8
			c4.6,0,8-0.3,10.1-1c2.1-0.6,4.1-1.9,6-3.8c2.5-2.5,5-6.2,7.6-11.2h2.4l-7,20.3H537v-2.2h2.9c1.9,0,3.8-0.5,5.5-1.4
			c1.3-0.6,2.2-1.6,2.6-2.9c0.5-1.3,0.7-3.9,0.7-7.8v-52.6c0-5.1-0.5-8.3-1.6-9.5c-1.4-1.6-3.9-2.4-7.2-2.4H537v-2.2h62.9l0.9,17.7
			h-2.3c-0.8-4.3-1.8-7.2-2.8-8.8c-1-1.6-2.5-2.8-4.5-3.6c-1.6-0.6-4.4-0.9-8.5-0.9h-22.5V104.2z M671.8,158.3l2,0.4l-7,22h-63.2
			v-2.2h3.1c3.5,0,5.9-1.1,7.4-3.3c0.8-1.3,1.3-4.2,1.3-8.8v-52.2c0-5-0.6-8.2-1.7-9.5c-1.6-1.7-3.9-2.6-7-2.6h-3.1v-2.2h37v2.2
			c-4.3,0-7.4,0.4-9.1,1.2c-1.7,0.8-2.9,1.9-3.6,3.2c-0.6,1.3-1,4.3-1,9.1v50.7c0,3.3,0.3,5.6,1,6.8c0.5,0.8,1.2,1.5,2.2,1.8
			s4.1,0.6,9.4,0.6h6c6.3,0,10.7-0.5,13.2-1.4s4.8-2.5,6.9-4.9C667.6,167,669.7,163.3,671.8,158.3z M712.8,98c10.6,0,19.8,4,27.5,12
			c7.8,8,11.6,17.9,11.6,29.9c0,12.3-3.9,22.5-11.7,30.6c-7.8,8.1-17.3,12.2-28.4,12.2c-11.2,0-20.7-4-28.3-11.9
			S672,152.6,672,140.1c0-12.8,4.4-23.3,13.2-31.4C693,101.5,702.2,98,712.8,98z M711.7,102.3c-7.3,0-13.2,2.7-17.6,8.1
			c-5.5,6.7-8.2,16.5-8.2,29.4c0,13.2,2.8,23.4,8.5,30.5c4.4,5.4,10.2,8.1,17.3,8.1c7.7,0,14-3,19-8.9s7.5-15.3,7.5-28
			c0-13.8-2.7-24.2-8.2-31C725.6,105,719.5,102.3,711.7,102.3z M387.1,89.3v31.6h-2.5c-0.8-6.1-2.3-10.9-4.3-14.5
			c-2.1-3.6-5.1-6.4-8.9-8.6c-3.9-2.1-7.9-3.2-12-3.2c-4.7,0-8.5,1.4-11.6,4.3s-4.6,6.1-4.6,9.7c0,2.8,1,5.3,2.9,7.6
			c2.8,3.4,9.4,7.9,19.9,13.5c8.5,4.6,14.4,8.1,17.5,10.5c3.1,2.4,5.5,5.3,7.2,8.7c1.7,3.3,2.5,6.8,2.5,10.4
			c0,6.9-2.7,12.9-8.1,17.9c-5.4,5-12.3,7.5-20.7,7.5c-2.7,0-5.1-0.2-7.5-0.6c-1.4-0.2-4.3-1-8.7-2.5c-4.4-1.4-7.2-2.1-8.3-2.1
			s-2,0.3-2.7,1c-0.7,0.7-1.1,2.1-1.4,4.2h-2.5v-31.3h2.5c1.2,6.6,2.7,11.5,4.7,14.7c2,3.3,5,6,9.1,8.1c4.1,2.2,8.5,3.2,13.4,3.2
			c5.6,0,10.1-1.5,13.3-4.4c3.3-3,4.9-6.5,4.9-10.5c0-2.2-0.6-4.5-1.9-6.8c-1.2-2.3-3.2-4.4-5.8-6.4c-1.8-1.3-6.5-4.2-14.4-8.6
			c-7.8-4.4-13.4-7.9-16.7-10.5c-3.3-2.6-5.8-5.5-7.5-8.6c-1.7-3.1-2.6-6.6-2.6-10.4c0-6.6,2.5-12.2,7.5-16.9
			c5-4.7,11.4-7.1,19.2-7.1c4.9,0,10,1.2,15.4,3.6c2.5,1.1,4.3,1.7,5.3,1.7c1.2,0,2.1-0.3,2.9-1c0.8-0.7,1.3-2.1,1.8-4.2L387.1,89.3
			L387.1,89.3z"/>
		<path id="Arial" class="st1" d="M329.2,203.9l2.3-0.2c0.1,1,0.4,1.8,0.8,2.5c0.4,0.6,1,1.2,1.9,1.6c0.8,0.4,1.8,0.6,2.8,0.6
			c0.9,0,1.8-0.2,2.5-0.5c0.7-0.3,1.2-0.7,1.6-1.2s0.5-1.1,0.5-1.7s-0.2-1.2-0.5-1.6c-0.3-0.5-0.9-0.9-1.7-1.2
			c-0.5-0.2-1.6-0.5-3.3-1c-1.7-0.4-2.9-0.9-3.6-1.3c-0.9-0.5-1.5-1.1-2-1.9s-0.7-1.6-0.7-2.5c0-1,0.3-2,0.8-2.8
			c0.5-0.9,1.3-1.5,2.3-2s2.2-0.7,3.4-0.7c1.4,0,2.6,0.2,3.6,0.7s1.9,1.2,2.4,2.1c0.6,0.9,0.9,2,0.9,3.2l-2.3,0.2
			c-0.1-1.3-0.6-2.2-1.3-2.9c-0.7-0.6-1.8-1-3.2-1c-1.5,0-2.6,0.3-3.2,0.9c-0.7,0.6-1,1.3-1,2.1c0,0.7,0.2,1.3,0.7,1.8
			s1.7,0.9,3.7,1.4s3.4,0.9,4.1,1.3c1.1,0.5,1.9,1.2,2.4,2s0.8,1.8,0.8,2.8c0,1.1-0.3,2.1-0.8,3c-0.6,0.9-1.4,1.7-2.4,2.2
			c-1.1,0.5-2.2,0.8-3.6,0.8c-1.7,0-3.1-0.3-4.2-0.8s-2-1.3-2.7-2.4C329.5,206.4,329.2,205.2,329.2,203.9z M345.3,210.3v-20h13.4
			v2.4h-10.9v6.1H358v2.3h-10.2v6.8h11.4v2.4L345.3,210.3L345.3,210.3z M360.6,210.3v-20h8.2c1.6,0,2.9,0.2,3.8,0.5
			c0.9,0.4,1.5,1,2.1,1.9c0.5,0.9,0.8,1.9,0.8,3c0,1.4-0.4,2.6-1.3,3.6s-2.2,1.6-3.9,1.9c0.6,0.3,1.1,0.7,1.5,1
			c0.7,0.7,1.4,1.6,2,2.7l3.2,5.5h-3.1l-2.5-4.2c-0.7-1.2-1.3-2.1-1.8-2.8c-0.5-0.6-0.9-1.1-1.2-1.3c-0.4-0.3-0.7-0.4-1.1-0.5
			c-0.3-0.1-0.7-0.1-1.4-0.1h-2.8v8.9h-2.5V210.3z M363.1,199.1h5.3c1.1,0,2-0.1,2.6-0.4c0.6-0.3,1.1-0.7,1.4-1.2
			c0.3-0.6,0.5-1.1,0.5-1.8c0-0.9-0.3-1.7-1-2.3c-0.6-0.6-1.6-0.9-3-0.9H363L363.1,199.1L363.1,199.1z M382.1,210.3l-7.2-20h2.7
			l4.8,14.5c0.4,1.2,0.7,2.3,1,3.3c0.3-1.1,0.6-2.2,1-3.3l5-14.5h2.5l-7.3,20H382.1z M392.5,210.3v-20h2.5v20H392.5z M410.5,203.3
			l2.5,0.7c-0.5,2.2-1.4,3.8-2.8,5c-1.3,1.1-3,1.7-4.9,1.7c-2,0-3.6-0.4-4.9-1.3c-1.3-0.9-2.2-2.2-2.9-3.8c-0.7-1.7-1-3.5-1-5.4
			c0-2.1,0.4-3.9,1.1-5.5c0.7-1.6,1.8-2.7,3.1-3.5c1.3-0.8,2.9-1.2,4.5-1.2c1.9,0,3.4,0.5,4.7,1.5c1.3,1,2.1,2.5,2.6,4.3l-2.4,0.6
			c-0.4-1.5-1.1-2.5-1.9-3.2c-0.8-0.7-1.8-1-3.1-1c-1.4,0-2.6,0.4-3.6,1.1s-1.6,1.7-2,3s-0.6,2.5-0.6,3.8c0,1.7,0.2,3.2,0.7,4.5
			s1.2,2.2,2.1,2.8c1,0.6,2,0.9,3.1,0.9c1.4,0,2.5-0.4,3.5-1.3C409.6,206.2,410.2,204.9,410.5,203.3z M414.5,210.3v-20h2.5v20H414.5
			z M418.5,200.5c0-3.3,0.8-5.9,2.5-7.8c1.6-1.9,3.8-2.8,6.4-2.8c1.7,0,3.3,0.4,4.6,1.3c1.3,0.9,2.4,2.1,3.1,3.7s1.1,3.4,1.1,5.4
			s-0.4,3.8-1.1,5.5c-0.8,1.6-1.8,2.8-3.2,3.6c-1.4,0.8-2.9,1.2-4.5,1.2c-1.7,0-3.3-0.5-4.7-1.4s-2.4-2.2-3.1-3.7
			C418.9,204,418.5,202.3,418.5,200.5z M421,200.6c0,2.4,0.6,4.3,1.8,5.7c1.2,1.4,2.7,2.1,4.5,2.1c1.8,0,3.4-0.7,4.6-2.1
			s1.8-3.4,1.8-6c0-1.6-0.3-3.1-0.8-4.3s-1.3-2.2-2.2-2.8c-1-0.7-2.1-1-3.3-1c-1.7,0-3.2,0.6-4.5,1.9
			C421.7,195.4,421,197.6,421,200.6z M436.6,203.9l2.3-0.2c0.1,1,0.4,1.8,0.8,2.5c0.4,0.6,1,1.2,1.9,1.6c0.8,0.4,1.8,0.6,2.8,0.6
			c0.9,0,1.8-0.2,2.5-0.5c0.7-0.3,1.2-0.7,1.6-1.2c0.4-0.5,0.5-1.1,0.5-1.7s-0.2-1.2-0.5-1.6c-0.3-0.5-0.9-0.9-1.7-1.2
			c-0.5-0.2-1.6-0.5-3.3-1c-1.7-0.4-2.9-0.9-3.6-1.3c-0.9-0.5-1.5-1.1-2-1.9s-0.7-1.6-0.7-2.5c0-1,0.3-2,0.8-2.8
			c0.5-0.9,1.3-1.5,2.3-2s2.2-0.7,3.4-0.7c1.4,0,2.6,0.2,3.6,0.7s1.9,1.2,2.4,2.1c0.6,0.9,0.9,2,0.9,3.2l-2.3,0.2
			c-0.1-1.3-0.6-2.2-1.3-2.9c-0.7-0.6-1.8-1-3.2-1c-1.5,0-2.6,0.3-3.2,0.9c-0.7,0.6-1,1.3-1,2.1c0,0.7,0.2,1.3,0.7,1.8
			s1.7,0.9,3.7,1.4s3.4,0.9,4.1,1.3c1.1,0.5,1.9,1.2,2.4,2s0.8,1.8,0.8,2.8c0,1.1-0.3,2.1-0.8,3c-0.6,0.9-1.4,1.7-2.4,2.2
			c-1.1,0.5-2.2,0.8-3.6,0.8c-1.7,0-3.1-0.3-4.2-0.8c-1.1-0.5-2-1.3-2.7-2.4C437,206.4,436.6,205.2,436.6,203.9z M462.7,210.3v-8.5
			l-7.1-11.5h3l3.6,6c0.7,1.1,1.3,2.3,1.9,3.4c0.6-1,1.2-2.2,2-3.5l3.6-5.9h2.9l-7.4,11.5v8.5H462.7z M477.5,210.3v-20h8.2
			c1.6,0,2.9,0.2,3.8,0.5c0.9,0.4,1.5,1,2.1,1.9c0.5,0.9,0.8,1.9,0.8,3c0,1.4-0.4,2.6-1.3,3.6c-0.9,1-2.2,1.6-3.9,1.9
			c0.6,0.3,1.1,0.7,1.5,1c0.7,0.7,1.4,1.6,2,2.7l3.2,5.5h-3.1l-2.5-4.2c-0.7-1.2-1.3-2.1-1.8-2.8c-0.5-0.6-0.9-1.1-1.2-1.3
			c-0.4-0.3-0.7-0.4-1.1-0.5c-0.3-0.1-0.7-0.1-1.4-0.1H480v8.9h-2.5V210.3z M480,199.1h5.3c1.1,0,2-0.1,2.6-0.4s1.1-0.7,1.4-1.2
			c0.3-0.6,0.5-1.1,0.5-1.8c0-0.9-0.3-1.7-1-2.3c-0.6-0.6-1.6-0.9-3-0.9h-5.9L480,199.1L480,199.1z M494.3,210.3v-20h13.4v2.4h-10.9
			v6.1H507v2.3h-10.2v6.8h11.4v2.4L494.3,210.3L494.3,210.3z M522.7,203.3l2.5,0.7c-0.5,2.2-1.4,3.8-2.8,5c-1.3,1.1-3,1.7-4.9,1.7
			c-2,0-3.6-0.4-4.9-1.3c-1.3-0.9-2.2-2.2-2.9-3.8c-0.7-1.7-1-3.5-1-5.4c0-2.1,0.4-3.9,1.1-5.5c0.7-1.6,1.8-2.7,3.1-3.5
			c1.3-0.8,2.9-1.2,4.5-1.2c1.9,0,3.4,0.5,4.7,1.5c1.3,1,2.1,2.5,2.6,4.3l-2.4,0.6c-0.4-1.5-1.1-2.5-1.9-3.2s-1.8-1-3.1-1
			c-1.4,0-2.6,0.4-3.6,1.1s-1.6,1.7-2,3c-0.4,1.3-0.6,2.5-0.6,3.8c0,1.7,0.2,3.2,0.7,4.5c0.5,1.3,1.2,2.2,2.1,2.8
			c1,0.6,2,0.9,3.1,0.9c1.4,0,2.5-0.4,3.5-1.3C521.7,206.2,522.4,204.9,522.7,203.3z M538.4,190.3h2.5v11.6c0,2-0.2,3.6-0.6,4.8
			c-0.4,1.2-1.2,2.1-2.3,2.9c-1.1,0.7-2.5,1.1-4.3,1.1c-1.7,0-3.2-0.3-4.3-1c-1.1-0.6-1.9-1.6-2.4-2.8c-0.5-1.2-0.7-2.9-0.7-5v-11.6
			h2.5v11.6c0,1.7,0.1,3,0.4,3.8s0.8,1.5,1.5,1.9s1.6,0.7,2.7,0.7c1.8,0,3.1-0.4,3.9-1.3c0.8-0.9,1.1-2.6,1.1-5.1V190.3L538.4,190.3
			z M543,210.3v-20h8.2c1.7,0,2.9,0.2,3.8,0.5c0.9,0.4,1.5,1,2.1,1.9c0.5,0.9,0.8,1.9,0.8,3c0,1.4-0.4,2.6-1.3,3.6
			c-0.9,1-2.2,1.6-3.9,1.9c0.6,0.3,1.1,0.7,1.5,1c0.7,0.7,1.4,1.6,2,2.7l3.2,5.5h-3.1l-2.5-4.2c-0.7-1.2-1.3-2.1-1.8-2.8
			c-0.5-0.6-0.9-1.1-1.2-1.3c-0.4-0.3-0.7-0.4-1.1-0.5c-0.3-0.1-0.7-0.1-1.4-0.1h-2.8v8.9H543V210.3z M545.4,199.1h5.3
			c1.1,0,2-0.1,2.6-0.4c0.6-0.3,1.1-0.7,1.4-1.2s0.5-1.1,0.5-1.8c0-0.9-0.3-1.7-1-2.3s-1.6-0.9-3-0.9h-5.9L545.4,199.1L545.4,199.1z
			 M558.8,203.9l2.3-0.2c0.1,1,0.4,1.8,0.8,2.5c0.4,0.6,1,1.2,1.9,1.6c0.8,0.4,1.8,0.6,2.8,0.6c0.9,0,1.8-0.2,2.5-0.5
			s1.2-0.7,1.6-1.2c0.3-0.5,0.5-1.1,0.5-1.7s-0.2-1.2-0.5-1.6c-0.3-0.5-0.9-0.9-1.7-1.2c-0.5-0.2-1.6-0.5-3.3-1
			c-1.7-0.4-2.9-0.9-3.6-1.3c-0.9-0.5-1.5-1.1-2-1.9s-0.7-1.6-0.7-2.5c0-1,0.3-2,0.8-2.8s1.3-1.5,2.3-2s2.2-0.7,3.4-0.7
			c1.4,0,2.6,0.2,3.6,0.7s1.9,1.2,2.4,2.1c0.6,0.9,0.9,2,0.9,3.2l-2.3,0.2c-0.1-1.3-0.6-2.2-1.3-2.9c-0.7-0.6-1.8-1-3.2-1
			c-1.5,0-2.6,0.3-3.2,0.9c-0.7,0.6-1,1.3-1,2.1c0,0.7,0.2,1.3,0.7,1.8s1.7,0.9,3.7,1.4s3.4,0.9,4.1,1.3c1.1,0.5,1.9,1.2,2.4,2
			s0.8,1.8,0.8,2.8c0,1.1-0.3,2.1-0.8,3c-0.6,0.9-1.4,1.7-2.4,2.2c-1.1,0.5-2.2,0.8-3.6,0.8c-1.7,0-3.1-0.3-4.2-0.8
			c-1.1-0.5-2-1.3-2.7-2.4C559.2,206.4,558.8,205.2,558.8,203.9z M574.2,200.5c0-3.3,0.8-5.9,2.5-7.8s3.8-2.8,6.4-2.8
			c1.7,0,3.3,0.4,4.6,1.3c1.3,0.9,2.4,2.1,3.1,3.7s1.1,3.4,1.1,5.4s-0.4,3.8-1.1,5.5c-0.8,1.6-1.8,2.8-3.2,3.6
			c-1.4,0.8-2.9,1.2-4.5,1.2c-1.7,0-3.3-0.5-4.7-1.4c-1.4-0.9-2.4-2.2-3.1-3.7C574.5,204,574.2,202.3,574.2,200.5z M576.7,200.6
			c0,2.4,0.6,4.3,1.8,5.7c1.2,1.4,2.7,2.1,4.5,2.1s3.4-0.7,4.6-2.1s1.8-3.4,1.8-6c0-1.6-0.3-3.1-0.8-4.3c-0.5-1.2-1.3-2.2-2.2-2.8
			c-1-0.7-2.1-1-3.3-1c-1.7,0-3.2,0.6-4.5,1.9S576.7,197.6,576.7,200.6z M592.3,203.9l2.3-0.2c0.1,1,0.4,1.8,0.8,2.5
			c0.4,0.6,1,1.2,1.9,1.6c0.8,0.4,1.8,0.6,2.8,0.6c0.9,0,1.8-0.2,2.5-0.5s1.2-0.7,1.6-1.2c0.3-0.5,0.5-1.1,0.5-1.7s-0.2-1.2-0.5-1.6
			c-0.3-0.5-0.9-0.9-1.7-1.2c-0.5-0.2-1.6-0.5-3.3-1c-1.7-0.4-2.9-0.9-3.6-1.3c-0.9-0.5-1.5-1.1-2-1.9s-0.7-1.6-0.7-2.5
			c0-1,0.3-2,0.8-2.8s1.3-1.5,2.3-2s2.2-0.7,3.4-0.7c1.4,0,2.6,0.2,3.6,0.7s1.9,1.2,2.4,2.1c0.6,0.9,0.9,2,0.9,3.2l-2.3,0.2
			c-0.1-1.3-0.6-2.2-1.3-2.9c-0.7-0.6-1.8-1-3.2-1c-1.5,0-2.6,0.3-3.2,0.9c-0.7,0.6-1,1.3-1,2.1c0,0.7,0.2,1.3,0.7,1.8
			s1.7,0.9,3.7,1.4s3.4,0.9,4.1,1.3c1.1,0.5,1.9,1.2,2.4,2s0.8,1.8,0.8,2.8c0,1.1-0.3,2.1-0.8,3c-0.6,0.9-1.4,1.7-2.4,2.2
			c-1.1,0.5-2.2,0.8-3.6,0.8c-1.7,0-3.1-0.3-4.2-0.8c-1.1-0.5-2-1.3-2.7-2.4C592.6,206.4,592.3,205.2,592.3,203.9z M613.5,210.3v-20
			h2.5V208h9.1v2.4h-11.6V210.3z M625.3,200.5c0-3.3,0.8-5.9,2.5-7.8s3.8-2.8,6.4-2.8c1.7,0,3.3,0.4,4.6,1.3
			c1.3,0.9,2.4,2.1,3.1,3.7s1.1,3.4,1.1,5.4s-0.4,3.8-1.1,5.5c-0.8,1.6-1.8,2.8-3.2,3.6c-1.4,0.8-2.9,1.2-4.5,1.2
			c-1.7,0-3.3-0.5-4.7-1.4s-2.4-2.2-3.1-3.7C625.6,204,625.3,202.3,625.3,200.5z M627.8,200.6c0,2.4,0.6,4.3,1.8,5.7
			c1.2,1.4,2.7,2.1,4.5,2.1s3.4-0.7,4.6-2.1s1.8-3.4,1.8-6c0-1.6-0.3-3.1-0.8-4.3c-0.5-1.2-1.3-2.2-2.2-2.8c-1-0.7-2.1-1-3.3-1
			c-1.7,0-3.2,0.6-4.5,1.9C628.4,195.4,627.8,197.6,627.8,200.6z M652.8,202.4v-2.3h7.8v7.4c-1.2,1-2.4,1.8-3.7,2.3
			c-1.3,0.5-2.6,0.8-3.9,0.8c-1.8,0-3.5-0.4-5-1.3c-1.5-0.8-2.6-2.1-3.4-3.7s-1.1-3.4-1.1-5.3s0.4-3.8,1.1-5.5s1.8-2.9,3.3-3.8
			c1.4-0.8,3-1.2,4.9-1.2c1.3,0,2.5,0.2,3.6,0.7c1.1,0.5,1.9,1.1,2.5,2c0.6,0.8,1.1,1.9,1.4,3.3l-2.2,0.7c-0.3-1-0.6-1.8-1-2.4
			c-0.4-0.6-1-1-1.8-1.4s-1.6-0.5-2.6-0.5c-1.1,0-2.1,0.2-2.9,0.6s-1.5,0.9-2,1.5s-0.9,1.3-1.2,2c-0.5,1.2-0.7,2.6-0.7,4
			c0,1.8,0.3,3.3,0.9,4.5c0.6,1.2,1.4,2.1,2.5,2.7c1.1,0.6,2.2,0.9,3.5,0.9c1.1,0,2.1-0.2,3.1-0.7c1-0.4,1.8-0.9,2.3-1.4v-3.7h-5.4
			V202.4z M662.1,189l1.7-3.8h3L664,189H662.1z M662.7,210.3v-20h2.5v20H662.7z M666.7,203.9l2.3-0.2c0.1,1,0.4,1.8,0.8,2.5
			c0.4,0.6,1,1.2,1.9,1.6c0.8,0.4,1.8,0.6,2.8,0.6c0.9,0,1.8-0.2,2.5-0.5s1.2-0.7,1.6-1.2c0.3-0.5,0.5-1.1,0.5-1.7s-0.2-1.2-0.5-1.6
			c-0.3-0.5-0.9-0.9-1.7-1.2c-0.5-0.2-1.6-0.5-3.3-1c-1.7-0.4-2.9-0.9-3.6-1.3c-0.9-0.5-1.5-1.1-2-1.9s-0.7-1.6-0.7-2.5
			c0-1,0.3-2,0.8-2.8s1.3-1.5,2.3-2s2.2-0.7,3.4-0.7c1.4,0,2.6,0.2,3.6,0.7s1.9,1.2,2.4,2.1c0.6,0.9,0.9,2,0.9,3.2l-2.3,0.2
			c-0.1-1.3-0.6-2.2-1.3-2.9c-0.7-0.6-1.8-1-3.2-1c-1.5,0-2.6,0.3-3.2,0.9c-0.7,0.6-1,1.3-1,2.1c0,0.7,0.2,1.3,0.7,1.8
			s1.7,0.9,3.7,1.4s3.4,0.9,4.1,1.3c1.1,0.5,1.9,1.2,2.4,2s0.8,1.8,0.8,2.8c0,1.1-0.3,2.1-0.8,3c-0.6,0.9-1.4,1.7-2.4,2.2
			c-1.1,0.5-2.2,0.8-3.6,0.8c-1.7,0-3.1-0.3-4.2-0.8c-1.1-0.5-2-1.3-2.7-2.4C667.1,206.4,666.7,205.2,666.7,203.9z M687.5,210.3
			v-17.7h-6.1v-2.3h14.7v2.4H690v17.6H687.5z M697.1,210.3v-20h2.5v20H697.1z M715.1,203.3l2.5,0.7c-0.5,2.2-1.4,3.8-2.8,5
			c-1.3,1.1-3,1.7-4.9,1.7c-2,0-3.6-0.4-4.9-1.3s-2.2-2.2-2.9-3.8c-0.7-1.7-1-3.5-1-5.4c0-2.1,0.4-3.9,1.1-5.5s1.8-2.7,3.1-3.5
			c1.4-0.8,2.9-1.2,4.5-1.2c1.9,0,3.4,0.5,4.7,1.5c1.3,1,2.1,2.5,2.6,4.3l-2.4,0.6c-0.4-1.5-1.1-2.5-1.9-3.2s-1.8-1-3.1-1
			c-1.4,0-2.6,0.4-3.6,1.1s-1.6,1.7-2,3c-0.4,1.2-0.6,2.5-0.6,3.8c0,1.7,0.2,3.2,0.7,4.5s1.2,2.2,2.1,2.8c1,0.6,2,0.9,3.1,0.9
			c1.4,0,2.5-0.4,3.5-1.3C714.1,206.2,714.8,204.9,715.1,203.3z M717.9,200.5c0-3.3,0.8-5.9,2.5-7.8s3.8-2.8,6.4-2.8
			c1.7,0,3.3,0.4,4.6,1.3c1.3,0.9,2.4,2.1,3.1,3.7s1.1,3.4,1.1,5.4s-0.4,3.8-1.1,5.5c-0.8,1.6-1.8,2.8-3.2,3.6
			c-1.4,0.8-2.9,1.2-4.5,1.2c-1.7,0-3.3-0.5-4.7-1.4s-2.4-2.2-3.1-3.7C718.2,204,717.9,202.3,717.9,200.5z M720.4,200.6
			c0,2.4,0.6,4.3,1.8,5.7c1.2,1.4,2.7,2.1,4.5,2.1s3.4-0.7,4.6-2.1s1.8-3.4,1.8-6c0-1.6-0.3-3.1-0.8-4.3c-0.5-1.2-1.3-2.2-2.2-2.8
			c-1-0.7-2.1-1-3.3-1c-1.7,0-3.2,0.6-4.5,1.9S720.4,197.6,720.4,200.6z M735.9,203.9l2.3-0.2c0.1,1,0.4,1.8,0.8,2.5
			c0.4,0.6,1,1.2,1.9,1.6c0.8,0.4,1.8,0.6,2.8,0.6c0.9,0,1.8-0.2,2.5-0.5s1.2-0.7,1.6-1.2c0.3-0.5,0.5-1.1,0.5-1.7s-0.2-1.2-0.5-1.6
			c-0.3-0.5-0.9-0.9-1.7-1.2c-0.5-0.2-1.6-0.5-3.3-1c-1.7-0.4-2.9-0.9-3.6-1.3c-0.9-0.5-1.5-1.1-2-1.9s-0.7-1.6-0.7-2.5
			c0-1,0.3-2,0.8-2.8s1.3-1.5,2.3-2s2.2-0.7,3.4-0.7c1.4,0,2.6,0.2,3.6,0.7s1.9,1.2,2.4,2.1c0.6,0.9,0.9,2,0.9,3.2l-2.3,0.2
			c-0.1-1.3-0.6-2.2-1.3-2.9c-0.7-0.6-1.8-1-3.2-1c-1.5,0-2.6,0.3-3.2,0.9c-0.7,0.6-1,1.3-1,2.1c0,0.7,0.2,1.3,0.7,1.8
			s1.7,0.9,3.7,1.4s3.4,0.9,4.1,1.3c1.1,0.5,1.9,1.2,2.4,2s0.8,1.8,0.8,2.8c0,1.1-0.3,2.1-0.8,3c-0.6,0.9-1.4,1.7-2.4,2.2
			c-1.1,0.5-2.2,0.8-3.6,0.8c-1.7,0-3.1-0.3-4.2-0.8c-1.1-0.5-2-1.3-2.7-2.4C736.3,206.4,736,205.2,735.9,203.9z"/>
	</g>
	<g>
		<circle class="st2" cx="181.6" cy="144.3" r="24.6"/>
		<path class="st3" d="M263.2,165.1c3-21-2-35,13-37c18.9-2.5,18.2,27.5,18,37c-1.5,58.5-39.8,95.6-70,110
			c-29.5,14.1-84.2,15.8-131.5-11.5c-45-26-63-80-64.5-123.5c-1.2-33.5,15.8-66.9,31-83c17.6-18.8,50.6-39.4,94-42
			c41.5-2.5,92,20.1,113,45c11,13,5.5,26.5-1.5,36.5c-6,8.6-17.1,15.9-27.5,16.5c-18.4,1.1-33.3-23.9-73-29c-39-5-72,17.8-75,54
			c-4,48,31.1,96.6,78,99c39,2,56.9-10.7,70.5-23.5C254.2,198.1,261.2,179.2,263.2,165.1z"/>
	</g>
</g>
</svg>
