<?xml version="1.0" encoding="UTF-8"?>
<svg version="1.1" viewBox="0 0 287.57 130.81" xmlns="http://www.w3.org/2000/svg">
 <defs>
  <style>.cls-1{fill:#93d500;}.cls-2{fill:#000;}.cls-3{fill:#d50057;}</style>
 </defs>
 <g data-name="Capa 2">
  <g id="Modo_de_aislamiento" data-name="Modo de aislamiento">
   <path class="cls-1" d="M83.92,0c-2.24,0-6.64,2.14-8.81,3.23a.53.53,0,0,0-.28.49c0,.31.18.59.35.59S79,2.82,79.57,2.82s1.24.31,1.24,1.43c0,2.3-6.5,12.4-14.38,21.21C58.84,34,51.6,39.88,50.74,39.88c-.31,0-.43-.24-.43-.68,0-3.38,8.31-18.89,13.39-25.37C65.91,11,68.08,9,68.08,8s-.9-1.58-4.16-1.58c-2.11,0-2.85.56-3.6,1.51s-29.61,32-32.49,32c-.13,0-.19-.09-.19-.31,0-1.08,1.68-4.92,5.52-10.55C39.64,19.57,49,8.43,51.12,4.9a1.53,1.53,0,0,0,.27-.81c0-1-2.36-2.57-4.58-2.57C45.72,1.52,28.09,12.6,27,12.6c-.13,0-.19-.07-.19-.13,0-.25,4.35-4.34,4.35-4.41s-.31-.43-.5-.43S24,13.27,24,14.33a4.73,4.73,0,0,0,.64,2.26A2.19,2.19,0,0,0,26.82,18C28.74,18,39.11,12,42,9.46,37.35,14.36,21,32.07,21,42.93c0,2,3.2,4.18,4.32,4.18,3.28,0,11.87-5.39,24.18-20-3.28,5.46-6.35,12.06-6.35,16.22,0,3.93,3.19,4,4.4,4,8.63,0,40.09-33.16,40.09-44.41C87.67,1,85.44,0,83.92,0"/>
   <path class="cls-1" d="m115.33 18.21a1.53 1.53 0 0 0 1.72 1.72c2.22 0 4.73-2.86 4.73-5a1.55 1.55 0 0 0-1.72-1.67c-2.4 0-4.73 2.63-4.73 5"/>
   <path class="cls-1" d="M158.23,38.75c-.5.43-4.55,4.54-8.84,4.27-.77-.05-1-.93-1-1.7a3.55,3.55,0,0,1,.09-.88c1-5.58,6.2-14,6.66-14.55a2.24,2.24,0,0,0,.44-1.3c0-1.11-1.05-1.61-2.35-1.61s-1.77.12-2.8,1.71c-.34-1-1.67-2-4.06-2-6.54,0-17.39,8.83-18.45,17.61-1.68,1.39-3.51,2.65-4.86,2.65-1,0-1.52-.32-1.52-1.53a10.34,10.34,0,0,1,.13-1.2c.44-3.11,11.81-22.18,11.81-22.18l13.07-1.24c.92-.1,2.23-4.41,1.48-4.72-.24-.08-11,1.27-11.44,1.3,0,0,3.3-5.22,3.5-5.66.74-1.59-4.15-.85-4.53-.35a81.45,81.45,0,0,0-5,6.91s-5.4,1.62-7,2c-.79.23-1.58,2.55-1.07,2.55.31,0,5.35-.52,5.39-.49-2.34,3.59-8.72,14-10.81,20.13-1.76,1.85-4.37,4.56-6.83,4.56-.77,0-1.58-.19-1.58-1.06,0-1.48,9.8-18.66,10.38-19.88.18-.41.06-.86-.36-.88-.89-.05-2-.08-2.6-.08-2.68,0-7.48,5.28-7.48,5.77a1,1,0,0,0,.35.45,7.51,7.51,0,0,1,1.14-.83c.44-.23.81-.34,1-.16s0,.48,0,.51c-.47.85-1.18,2-1.23,2.08-.34.66-5.34,8.18-6.56,12.11a7.64,7.64,0,0,1-4.44,2.09,3,3,0,0,1-3.35-3.1,26.1,26.1,0,0,1,.5-3c5.28-5.86,23-26.74,23-33.86,0-2-1.86-3.23-3.76-3.23-4.25,0-10.17,7.56-14,13a66.76,66.76,0,0,0-9.93,22.6C87.75,38.28,78.06,45.18,74.14,43c-2.21-1.22,0-4.63.82-6.07,2.93.82,7.37,1.38,11.16-.93,8.65-5.29,4.61-11.33,4.61-11.33a4.36,4.36,0,0,0-4.06-2c-6.89,0-18.49,9.91-18.55,19,0,4,5.64,12.09,22.65-1.31,0,.23,0,.46,0,.68,0,4,1.93,6.67,6,6.67a15,15,0,0,0,7.38-2.27,6,6,0,0,0,4.51,2.33,13.6,13.6,0,0,0,8.13-3.34c.67,1.88,2.15,2.74,4.38,3.16a4.14,4.14,0,0,0,.87.09c2.18,0,4.49-1.36,6.43-2.82a4.82,4.82,0,0,0,4.29,2.6c3.1,0,8.12-3.57,11.54-8a7.16,7.16,0,0,0-.62,3c0,2.6,1.4,5.18,4.62,5.18,4.15,0,9.25-6.11,10.08-7.76a1.14,1.14,0,0,0,.24-.81c0-.84-.22-.51-.43-.32M101.89,19.57c1.24-2.23,10-14.89,11.7-14.89.25,0,.3.22.3.47,0,3.34-13.58,21.33-16.59,24.9a65.14,65.14,0,0,1,4.59-10.48M78.43,32.32c4.79-5,9.07-6.23,8.53-4.27,0,0-1.7,5.51-10,5.93a18.26,18.26,0,0,1,1.44-1.66M144,33.4c-2.35,2.92-9.42,9.09-10.6,9.09-.44,0-.63-.28-.63-.77,0-1.86,2.68-6.58,5.4-9.4,4.81-5,8.87-5.89,11-5.89-1.64,2.19-3.75,5.2-5.15,7"/>
   <path class="cls-2" d="M108.3,116.46l2-9.59Q112.88,95,107.65,95,101.4,95,97,105.84l-2.26,10.62q-.9,4.26,3.28,4.26l-2.13,10H62.65l2.13-10q7.83,0,8.74-4.27l9.59-44.94c.57-2.7-1.42-4.11-6-4.27h-.84l2.09-9.8h29L100,92a26.69,26.69,0,0,1,22-10.66q15.12,0,12.09,14.15l-4.48,21q-.92,4.27,7,4.27l-2.13,10H101l2.12-10a4.84,4.84,0,0,0,5.21-4.26"/>
   <path class="cls-2" d="M170.19,116.45q-.91,4.27,6.92,4.27l-2.13,10H138.06l2.12-10q7.84,0,8.75-4.26l4.26-20q.94-4.36-6.89-4.36l2.1-9.81h29.09Z"/>
   <path class="cls-2" d="M210.73,116.45q-.91,4.27,6.92,4.27l-2.13,10H178.6l2.13-10q7.83,0,8.74-4.27l9.59-44.94q.91-4.29-6.92-4.28l2.09-9.8h29.09Z"/>
   <path class="cls-2" d="M256.77,80a48.36,48.36,0,0,1,8.73.78,23.28,23.28,0,0,1,7.62,2.7A12.21,12.21,0,0,1,278,88.69q1.61,3.3.51,8.33l-4.42,20.27a4.53,4.53,0,0,0,0,2.9,1.86,1.86,0,0,0,1.78.83A2.74,2.74,0,0,0,278.1,120a6.29,6.29,0,0,0,1.23-2.66l1.81-8.39h6.43l-1.32,6.15a20.14,20.14,0,0,1-3.15,7.65,16.39,16.39,0,0,1-4.8,4.47,17.61,17.61,0,0,1-5.56,2.15,28.44,28.44,0,0,1-5.38.56q-6.44,0-9.17-2.48a10,10,0,0,1-3.05-6.94,24.72,24.72,0,0,1-3.07,3.82,20.46,20.46,0,0,1-4.21,3.31,23,23,0,0,1-5.55,2.33,25.89,25.89,0,0,1-7.05.89c-5.71,0-9.62-1.21-11.7-3.64s-2.7-5.56-1.86-9.42a17.1,17.1,0,0,1,2.92-6.38,14.9,14.9,0,0,1,5.74-4.71,25,25,0,0,1,5.29-1.81c2-.47,4.17-.91,6.54-1.31s4.86-.89,7.53-1.45A78.58,78.58,0,0,0,258,99.85l.64-2.89a11.72,11.72,0,0,0,.22-3.4,6.77,6.77,0,0,0-1-3.08,6,6,0,0,0-2.4-2.19,8.68,8.68,0,0,0-4-.84,28.15,28.15,0,0,0-5.08.42,16.19,16.19,0,0,0-4.62,1.73,7.53,7.53,0,0,1,3.88,1.26c1,.71,1.29,2,.9,3.77a8.49,8.49,0,0,1-3.05,5c-1.58,1.25-3.86,1.86-6.84,1.86s-5-.64-6.06-1.91-1.29-3.31-.68-6.1a11.75,11.75,0,0,1,2.8-5.35,18.76,18.76,0,0,1,5.63-4.26,34.39,34.39,0,0,1,8.13-2.86,46.6,46.6,0,0,1,10.25-1m.47,24a46.93,46.93,0,0,1-6.06,3.22q-2.72,1.16-4.76,2.18a12.65,12.65,0,0,0-3.36,2.38,7.45,7.45,0,0,0-1.84,3.68,3.89,3.89,0,0,0,.37,2.85c.47.84,1.57,1.26,3.31,1.26a10.37,10.37,0,0,0,5.61-1.78,15.46,15.46,0,0,0,4.83-5Z"/>
   <path class="cls-2" d="M52.33,104.83C47.88,112.66,41.22,118,34.85,118c-9.09,0-14.08-10.92-11.14-24.38S36.38,69.25,45.47,69.25c6.47,0,10.84,5.54,11.78,13.57h12L70,79.45l.27-1.27,4.52-20.75H61.43l-1,4.54A27.18,27.18,0,0,0,43.6,56.5C24.5,56.5,5.4,73.12.94,93.6s7.4,37.12,26.5,37.12c15.45,0,30.9-10.88,38.6-25.89Z"/>
   <path class="cls-3" d="M176.77,52.34a2.63,2.63,0,0,0-1.61-.49,5.67,5.67,0,0,1-4-2.09,4.9,4.9,0,0,1-2.74-2.1s0,0,0-.06A16.78,16.78,0,0,0,163.2,52c-5.94,7-1.4,12.88-12.22,14.18,0,0-6.35,0-6.34,3.07,0,0-.39,3.35,5.55,5.06,8.44,2.43,30.52,0,31.92-18.55-2.4,0-4.34-1.75-5.34-3.37"/>
   <path class="cls-1" d="M188,41.6a2,2,0,0,0-2.21-1.77c-4,.57-6.06,2.89-8.1,5.61a2.16,2.16,0,0,1-1.77.8,9.91,9.91,0,0,0-5.61.64,2.76,2.76,0,0,0,1.63,1l.29.06.4.42a3.84,3.84,0,0,0,2.67,1.5,3.91,3.91,0,0,1,3.17,1.41,5.1,5.1,0,0,0,3.2,2.44.51.51,0,0,0,0-.17,10.11,10.11,0,0,0-1.42-4.37h0a3.14,3.14,0,0,1,.51-3.94c3-3,5.43-1.47,5.43-1.47h.07A2,2,0,0,0,188,41.6"/>
   <path class="cls-2" d="M178.67,62l-.83,1.46c-.37.53-.83,1.11-1.35,1.73A11.27,11.27,0,0,1,174.68,67c-.34.31-.68.65-1.06,1l-1.23.84a17,17,0,0,1-2.69,1.58,29,29,0,0,1-3,1.25c-1,.34-2.07.59-3.09.85s-2.06.41-3.06.49a32,32,0,0,1-5.45.14,34.61,34.61,0,0,1-3.83-.47,11.92,11.92,0,0,1-1.41-.34h1.45c.92,0,2.23,0,3.78-.14.78-.07,1.62-.11,2.5-.23s1.8-.24,2.75-.4,1.92-.42,2.91-.6,2-.53,2.92-.86A25.9,25.9,0,0,0,169,69a21.22,21.22,0,0,0,2.6-1.36l1.2-.73c.39-.25.73-.54,1.08-.8a15.68,15.68,0,0,0,1.92-1.57c.56-.54,1.08-1,1.53-1.46l1.06-1.26c.59-.7,1-1.1,1-1.1s-.24.47-.69,1.28"/>
  </g>
 </g>
</svg>
